<svg xmlns="http://www.w3.org/2000/svg" version="1.1" xmlns:xlink="http://www.w3.org/1999/xlink" xmlns:svgjs="http://svgjs.com/svgjs" width="640" height="640"><svg xmlns="http://www.w3.org/2000/svg" viewBox="0 0 640 640"><defs><style>.cls-1{fill:#e9e9e9;}.cls-2{fill:#008720;}</style></defs><g id="SvgjsG1001" data-name="light gray"><path class="cls-1" d="M435.41,114.26c-7-3.78-101.93-46.56-227.41,11.14-24.82,15.48-72.05,33.88-50.22,86.65,0,0,21.76,16.57,8.07,40.36l-.12.23L156.32,272s-8.81-3.13-13.56-23.33a2.6,2.6,0,0,0-4.53-1.07c-7.28,8.75-20.26,30.53,18.09,42.47,0,0-46.29,18.53-31.55,72.91a25.23,25.23,0,0,1,.35,11.27c-2.65,13.89,6.46,52.41,40.63,57.48l0,0c.37.61,12.29,20.46,7.27,35.4,0,0,10.92,21,39.3,21.69l4.37,7.23S200,514.18,200.72,538a55.38,55.38,0,0,0-13.63,3.7c-3.49,1.6-5.82,9.45-2.49,11.37,38.89,22.32,239.23,115,390-104.48,12.07-25.77,105.53-210.06-138-350.57-3.28-1.89-9.21-3.94-6.7,5a28.23,28.23,0,0,0,5.59,11.1C435.56,114.19,435.49,114.31,435.41,114.26Z"></path></g><g id="SvgjsG1000"><path class="cls-2" d="M297.4,57l-6.1,6-7.6-4.5c-5.4-3.3-8.3-4.5-9.7-4-1.9.6-1.7,1,2.2,3.3,2.4,1.5,5.4,3.3,6.8,4,4.7,2.5,5.8,3.8,6.7,8.2.7,3.6,1.3,4.6,3.2,4.8,2.2.3,2.2.2,1.6-5l-.7-5.4,7.4-6.7c6.4-5.9,7-6.7,4.8-6.7C304.2,51,301.6,52.8,297.4,57Z"></path><path class="cls-2" d="M376.3,55.7c-.7.2-1.3,1.4-1.3,2.5,0,1.5-.5,1.8-2,1.3-1.1-.4-2-.2-2,.4s.7,1.1,1.6,1.1c1.4,0,1.5,1,.9,7-.7,7-.7,7,2.1,8a10.76,10.76,0,0,0,4.8.7c1.9-.3,1.8-.5-.8-1.5-2.7-1.2-2.8-1.4-2.1-5.8,1-6.9,1.4-7.6,4.1-7,1.4.4,2.4.2,2.4-.4s-.9-1-2-1c-1.6,0-2-.7-2-3C380,55.1,379.1,54.5,376.3,55.7Z"></path><path class="cls-2" d="M316.3,56.9c-7.2,1.8-9.3,4.8-7.7,10.8,1.9,7.1,22,7,25.2-.2C337,60.6,326.5,54.4,316.3,56.9Zm12.3,3.8c1.9,2.5,1.7,6.7-.3,8.6-3.2,2.8-11.4,2.6-14.3-.3s-2.5-6.4.8-9c2.2-1.8,3.5-2.1,7.6-1.6C325.3,58.7,327.8,59.6,328.6,60.7Z"></path><path class="cls-2" d="M389.2,65.9c-2.6,11.3-2.6,11.7-.7,12.4,1.7.7,2,.3,3-4.3,1.3-6.2,3-8,7.9-8,2.7,0,5.2.7,6.4,1.7,2.1,1.8,2.1,1.8.2,7.6-1.6,5.1-1.6,5.9-.3,6.4,1.9.7,2.5-.1,4.7-6.5,1.7-5,1.7-5.4.1-7.2-2.4-2.6-7.8-4.3-12.6-3.8-3.6.3-4,.2-3.5-1.7,1.8-6.4,1.8-6.3-.6-6.3C391.6,56.2,391.2,57,389.2,65.9Z"></path><path class="cls-2" d="M341.5,63.1c-.6,5.4-.5,6.4,1.3,8.1,2.4,2.5,10.9,3.6,14.1,1.9,1.7-1,2.5-.9,3.8.4,2.2,2.3,3,.8,3.8-8,.7-6.6.6-7.1-1.3-7.2-2.2-.2-3.2,2.1-3.2,7.4,0,4.2-2.3,6.3-7,6.3-6.6,0-7-.4-7-8.1,0-6.1-.2-6.9-1.9-6.9S342.1,58,341.5,63.1Z"></path><path class="cls-2" d="M248.3,66.5c-1.2.8-2.7,1.3-3.5,1-3.4-1.2-3.7,1-1.1,8.3,1.9,5.4,3,7.2,4.4,7.2,2.2,0,2.3-1.1.4-6.5a26.27,26.27,0,0,1-1.5-5.2c0-1.9,3-4.3,5.5-4.3,1.3,0,2.7-.5,3-1C256.5,64.4,250.7,64.8,248.3,66.5Z"></path><path class="cls-2" d="M220.6,73.4c-4.2,1.6-9.6,6.2-9.6,8.2,0,9.8,15.9,11.5,24.3,2.6,3.1-3.3,3-6.7-.3-9.7C232.4,72.2,225.4,71.7,220.6,73.4ZM231,76c2.5,2.5,2.6,7.2.2,9.3-2.8,2.6-9.7,3.3-12.7,1.3-2.2-1.4-2.6-2.4-2.3-5.4s.9-4,3.8-5.4C224.6,73.4,228.5,73.5,231,76Z"></path><path class="cls-2" d="M438.2,79.8c-10.1,6.9-11.1,7.8-9.2,8.6a3.39,3.39,0,0,0,3.4,0c6.6-4.8,5.6-4.7,13.9-1.7,7,2.5,7.7,3,7.7,5.5,0,3.7.9,5.7,3.3,6.9,1.9,1.1,2,.9,1.3-7.2-.7-7.7-2.3-18-2.9-18.5a21.14,21.14,0,0,0-3.2-.7C450,72.2,447.8,73.2,438.2,79.8Zm15.3.7c.4,3.1.5,5.8.2,6.1-.5.6-12.7-3.5-12.7-4.2,0-.5,10.3-7.3,11.2-7.3C452.6,75,453.2,77.5,453.5,80.5Z"></path><path class="cls-2" d="M191,78.4c-4.1,1.8-9.2,4.1-11.2,5.1-3.7,1.8-4.8,3.8-2.8,5,.5.3,3.3,4.2,6.1,8.5,4.5,6.9,5.4,7.8,7,6.9,2.4-1.2,2.4-1.2-.7-5.9-1.5-2.2-2.5-4.2-2.3-4.4,1.1-1,10.8-5.4,13.2-6,1.5-.3,2.7-1.1,2.7-1.7,0-1.5-3.5-.5-11.2,3.1-5.9,2.7-6.4,2.8-7.6,1.2-3.6-4.6-3.5-5.1,1-7.1,11.5-5,15.8-7,15.8-7.5C201,74.4,198.2,75.2,191,78.4Z"></path><path class="cls-2" d="M315.2,76a20,20,0,0,0,.8,4c.6,2,.8,2.1.8.5a11.4,11.4,0,0,0-.8-4C315.5,75.3,315.2,75.1,315.2,76Z"></path><path class="cls-2" d="M298.7,78.5a1.51,1.51,0,0,0,2.5,1.7A1.91,1.91,0,0,0,300,77C299.6,77,299,77.7,298.7,78.5Z"></path><path class="cls-2" d="M354.3,78.6c-.7,1.9.2,2.8,2.2,2.1s1.9-2.3,0-3.1A1.74,1.74,0,0,0,354.3,78.6Z"></path><path class="cls-2" d="M281,80.7c0,1.3.5,2.3,1,2.3,1.3,0,1.3-1.1,0-3C281.2,78.8,281,78.9,281,80.7Z"></path><path class="cls-2" d="M322,80.5c-.7.9-.8,1.5-.2,1.5s1.2-.7,1.6-1.5.4-1.5.2-1.5A6,6,0,0,0,322,80.5Z"></path><path class="cls-2" d="M287.2,82c-.7,1.1-.8,2-.3,2,.9,0,2.4-3,1.8-3.6C288.6,80.2,287.9,81,287.2,82Z"></path><path class="cls-2" d="M338.7,80.6a4.48,4.48,0,0,0-.7,2.6c0,1.3.7,1.8,2.6,1.8,2.1,0,2.5-.4,2.2-2.2C342.5,80.5,340.1,79.3,338.7,80.6Z"></path><path class="cls-2" d="M344.8,81.7a2,2,0,0,0,1.9-.1c.4-.3-.2-.6-1.3-.5S344,81.4,344.8,81.7Z"></path><path class="cls-2" d="M310.4,83.5c1.1.8,2.2,1.2,2.5.9.6-.6-1.9-2.4-3.4-2.4C309,82.1,309.4,82.7,310.4,83.5Z"></path><path class="cls-2" d="M275.4,84.8c1,1.2,2.3,1.9,2.8,1.6,1.1-.7,1.1-.7-2.2-2.4C273.5,82.7,273.5,82.7,275.4,84.8Z"></path><path class="cls-2" d="M315.8,84.4c-2.7,2-2.2,5.4.8,6.8,2.3,1.1,2.9,1,4.5-1,1.8-2.3,1.6-5-.5-6.4C319,82.7,317.7,82.9,315.8,84.4Z"></path><path class="cls-2" d="M334.5,84c-1.9.8-1.9.9.3.9,1.2.1,2.2-.4,2.2-.9s-.1-1-.2-.9A13.38,13.38,0,0,0,334.5,84Z"></path><path class="cls-2" d="M326.3,84.7c-1.3.2-2.3.9-2.3,1.4,0,1.2.2,1.2,4.1-.6C331.4,84.1,330.8,83.8,326.3,84.7Z"></path><path class="cls-2" d="M279.8,87.6c-1.1,2.3-1,2.9,1.1,4.5s2.6,1.8,4.5.6c2.8-1.9,3.2-4.8,1-6.4C283.6,84.3,281.1,84.8,279.8,87.6Z"></path><path class="cls-2" d="M290.8,86.7c-1,.2-1.8.9-1.8,1.4,0,1.2.2,1.2,4.1-.6C296.4,86.1,294.9,85.6,290.8,86.7Z"></path><path class="cls-2" d="M265.6,88.1a.55.55,0,0,1-.5.9c-.6,0-1.1.7-1.1,1.5a1.54,1.54,0,0,0,1.5,1.5c.8,0,1.5-.4,1.5-.9s.7-1.1,1.5-1.3c1-.2.7-.7-1-1.5C266.1,87.7,265.2,87.6,265.6,88.1Z"></path><path class="cls-2" d="M298.1,88.6c0,1.1.3,1.4.6.6a2,2,0,0,0-.1-1.9C298.3,86.9,298,87.5,298.1,88.6Z"></path><path class="cls-2" d="M308.5,89.6c-2.2,1-2.5,1.3-1,1.3,2.8-.1,6.1-1.4,4.9-2.1C311.9,88.5,310.2,88.9,308.5,89.6Z"></path><path class="cls-2" d="M245.5,90c.3.5.8,1,1.1,1s.4-.5.4-1a1,1,0,0,0-1.1-1C245.4,89,245.2,89.4,245.5,90Z"></path><path class="cls-2" d="M248.4,91.5c-.3.8.4,2.7,1.7,4.2s2,2.1,1.6,1.2a2.85,2.85,0,0,1,.5-2.7,2.55,2.55,0,0,0-1.7-4.2A2.41,2.41,0,0,0,248.4,91.5Z"></path><path class="cls-2" d="M274.5,91c-1.8.8-1.7.9.8.9,1.5.1,2.7-.4,2.7-.9C278,89.8,277.2,89.8,274.5,91Z"></path><path class="cls-2" d="M323.9,91.1c-1,.6-1,.9-.1.9.6,0,1.2.9,1.2,2,0,2.4,1.6,2.6,3.6.5.9-.8,1.1-1.5.5-1.5a4.72,4.72,0,0,1-2.4-1.4A2.1,2.1,0,0,0,323.9,91.1Z"></path><path class="cls-2" d="M469.7,90.7c-1.3,1.3-.7,3.2,1.8,5.8a10.28,10.28,0,0,0,3.3,2.5c1.4,0,6.2,5.1,6.2,6.5,0,2.1-3.4,1.9-8-.5-2.5-1.3-4-2.7-4-3.9a2.8,2.8,0,0,0-1.6-2.5c-2.3-.9-2.4-.8-2.4,1.3,0,5.8,18.8,12.2,19.8,6.8.4-2.2-1.9-5-7.5-8.9-4.6-3.1-5.6-5.8-2.2-5.8s9,3.1,9.9,5.5c1,2.6,4,4.1,4,2C489,94.7,473,87.3,469.7,90.7Z"></path><path class="cls-2" d="M297.7,91.6c-1.2,1.2-.8,4.2.6,4.7a2.52,2.52,0,0,0,3.5-2.9C301.5,91.5,298.9,90.4,297.7,91.6Z"></path><path class="cls-2" d="M229.2,94c0,1.4.2,1.9.5,1.2a5.28,5.28,0,0,0,0-2.5C229.4,92.1,229.2,92.6,229.2,94Z"></path><path class="cls-2" d="M290,94c2.9,2.2,4.6,2.5,5.6.8.4-.7.3-.8-.5-.4-.6.4-2.3.1-3.6-.8C288.1,91.4,287,91.7,290,94Z"></path><path class="cls-2" d="M312.5,95.6c-2.4,3.7-1.3,4,1.4.4,1.2-1.7,1.7-3,1.2-3S313.5,94.2,312.5,95.6Z"></path><path class="cls-2" d="M319.1,94.2a10.28,10.28,0,0,0,.9,3.3c.7,1.7.9,1.5.9-1.3.1-1.7-.3-3.2-.9-3.2A1,1,0,0,0,319.1,94.2Z"></path><path class="cls-2" d="M257.1,96a9.09,9.09,0,0,0,.9,4c.8,1.2,1,1.2.9-.5a11.57,11.57,0,0,0-.9-4C257.2,93.7,257.1,93.7,257.1,96Z"></path><path class="cls-2" d="M278.1,96.7c-1.3,2.7-1.3,2.8.8.9,1.1-1,1.8-2.3,1.5-2.7C279.6,93.6,279.4,93.7,278.1,96.7Z"></path><path class="cls-2" d="M284.1,95.7a9.58,9.58,0,0,0,.9,2.8c.8,1.8.9,1.7.9-.8.1-1.5-.3-2.7-.9-2.7S284,95.3,284.1,95.7Z"></path><path class="cls-2" d="M429,98.9c0,4.4,1.8,9.3,5.5,14.7,1.9,2.8,2.2,4,1.4,5-1.5,1.8-4,1.8-6.5-.1-2.3-1.8-7.8-1.9-10.7-.3-1.4.8-6.5,1.3-13.7,1.3-10.9,0-11.7.1-15.5,2.8-4.7,3.2-5.1,3.3-5.8.7-.4-1.6-1.4-2-5.2-2-4.6,0-4.6,0-4.3,3.1.2,2.6-.1,3.2-1.9,3.5s-2.3-.1-2.3-1.9c0-1.5-.9-2.6-2.8-3.5-4.2-1.8-13.9-4.2-17.1-4.2-1.6,0-5.5-1.2-8.7-2.7-5.2-2.4-7.1-2.8-15.9-2.8-9,0-10.8.3-17.9,3.2-4.3,1.8-8,3.3-8.1,3.3a5.39,5.39,0,0,1-.9-2.5c-.4-1.4-1.1-2.5-1.7-2.5s-.8.7-.5,1.5.9,2.2,1.2,3c.4,1.1-.8,2.9-3.6,5.5a31.3,31.3,0,0,0-5.4,6.2,10.12,10.12,0,0,1-4.1,3.8,29.47,29.47,0,0,0-5.2,3.5,10.36,10.36,0,0,1-4.9,2.2,14.92,14.92,0,0,0-5.1,2.1c-2.2,1.6-2.3,2.1-1.8,7.7.9,8.6,2.4,9.9,10.4,9.1,5.4-.5,6.6-.3,7.7,1.2,1.8,2.3,1.7,4.2-.1,4.2-.8,0-1.5-.9-1.5-2,0-2.9-2.4-3.5-5.5-1.4-2.5,1.6-2.7,2.2-2.2,6.5.7,5.4-.5,7-5.1,7.3-1.7.1-5,1.9-7.8,4.2-5,4.2-9.7,6.7-7.6,4.1,1.7-2,.8-5.2-1.7-5.5-1.6-.3-2.8-1.7-4.1-4.8-1.1-2.4-2.6-4.7-3.5-5a3.86,3.86,0,0,1-1.5-3.3c0-3.7-5.5-7.9-8.1-6.2A9.16,9.16,0,0,1,233,159c-1.1,0-2,.4-2,1s.7,1,1.6,1,1.4.7,1.2,2.2-.9,2.2-2,2-1.8.2-1.8.8.7,1,1.5,1,1.5.4,1.5.8c0,1-4.1.9-5.7-.1-.7-.5-2.1.1-3.3,1.3-2.5,2.5-3.3,2.5-2.5,0,.3-1.1.2-2-.2-2-1.4,0-3,5.9-3.2,11.7-.2,5.2-.1,5.3,2.6,5.3a7.44,7.44,0,0,0,3.9-.9,7.29,7.29,0,0,1,3.4-1.3c1.9-.2,2.6-1.1,3.1-3.8.4-1.9,1.2-3.6,1.8-3.8A2.39,2.39,0,0,0,234,172c0-1.7.2-1.7,3-.3,3,1.4,3.2,3.3.5,3.3-2,0-4.6,5.3-3.4,7.1,1.3,2,1.1,2.9-.5,2.9-1.8,0-2.9,2.7-1.5,3.6s16-1.6,15.4-2.6c-.2-.4.7-.5,2-.2s2.5.8,2.5,1.3c0,1.3-3.5,2.9-6.3,2.9a5.46,5.46,0,0,0-3.7,1.5c-.7.9-2.9,1.5-5.2,1.5-3.7,0-3.9.2-3.6,2.7.2,2.2,1,2.9,3.8,3.7a12.67,12.67,0,0,1,4.7,2.5c1.7,2.3,1.3,7.8-.7,10.3-1.7,2.1-1.9,2.1-10.4.8-5.8-.9-9.6-1-11.4-.4-2.6.9-2.7,1.4-3.5,9.9-1.5,17.8-1.6,16.8,2.2,17.6,7.8,1.6,7.8,6.9.1,11.7-4.8,3-8,7.9-8,12.1,0,2.2-6.3,9.1-8.3,9.1s-8.1,6.9-10.7,12.1a76.94,76.94,0,0,1-5,8.1c-3.6,5-4.6,10.4-2.6,14.3,2.3,4.3,2,8.6-1,15.2-2.1,4.5-2.4,6.1-1.5,7.5a7.47,7.47,0,0,1,.5,4.6c-.6,3.1,1.8,7.2,4.3,7.2.7,0,2.4,2,3.8,4.4a27.3,27.3,0,0,0,4,5.6,4.8,4.8,0,0,1,1.5,3.1c0,1,2.1,4,4.8,6.5,6.6,6.5,7.7,7.4,9.2,7.4a17.72,17.72,0,0,1,4.7,1.2c2.7,1,4,.9,7.1-.2,2.2-.9,6.7-1.4,11.2-1.2,6.4.1,8.7-.3,15.3-3,9.8-3.9,14.3-3.3,16.7,2,1.4,3,1.8,3.2,6,3,2.5-.1,4.3,0,4.1.2-1,1.1,2.2,5,4,5s2,.4,1.5,3.2c-2.7,13.3-1.5,20.4,4.3,24.2,2.1,1.4,3.4,3.6,4.7,7.8.9,3.3,2.1,6.1,2.6,6.4s.8,2,.8,3.8a15.72,15.72,0,0,0,1.5,6.2c2,3.9,1.9,5.4-.9,9.4-4.9,7.4-5.9,20.4-2.1,28.5A36.07,36.07,0,0,0,293,470c2.2,1.8,6,13.7,6,18.9a27.66,27.66,0,0,0,5.7,16c1.8,2.4,3.3,4.9,3.3,5.6a4.22,4.22,0,0,0,1.5,2.5c.9.8,1.5,3,1.5,6,0,3.4.5,5.2,2,6.5,1.8,1.7,2.6,1.7,8.5.6a45.24,45.24,0,0,1,11.4-.5c3.6.5,5.6.2,8.1-1.1,4.6-2.4,13-8.7,13-9.8,0-.5,1.4-2.3,3-4,9.8-10.3,10.2-10.9,9.6-14.6-.7-4.7.3-6.1,5.6-8.1l4.3-1.5.5-8.1c.4-5.9,1.2-9.4,3.3-13.4,2.3-4.8,3.4-5.8,8.5-8.3,8.1-3.8,9.7-7.3,8.7-19.2-.5-5.8-1.5-10.4-3.1-14-2.9-6.3-3.3-12.9-1-17.6s22.8-25.6,28.9-29.4c1.5-1,2.7-2.5,2.7-3.4s1-3.2,2.2-5.1c5-8.2,9.8-19.2,9.8-22.5,0-4.5-1.5-5.1-7.5-3.1-2.5.9-5.1,1.4-5.6,1-2-1.2-6,.8-12.1,6.1-3.4,3-6.7,5.5-7.3,5.5s-2.4-2-4.2-4.4c-3.8-5.2-47.1-34.7-50.6-34.5-2,.1-2,.2-.3.6,1.1.3,11.8,7,23.8,15C397.7,348,403,352.9,403,359.2c0,10.1-6.8,12.2-15.8,4.8-4.2-3.5-5.3-3.2-2.3.6s2.8,9.8-.4,12.9c-2.9,3-8.7,3.4-10.7.7a43.78,43.78,0,0,0-4.3-4.2c-3.3-2.8-1.7-.3,2.8,4.1,3.1,3.1,3.4,5.1,1.1,7.3-2.5,2.6-8.3,2-11.8-1.2-1.7-1.5-2.3-1.8-1.3-.6,2.1,2.6,2.1,3.3,0,5s-7.5,1.8-9.1.2c-.8-.8-1.5-.8-2.5,0-.8.7-3.5,1.5-6,1.8-4.2.6-4.9.4-7.7-2.5-1.8-1.7-3-3.8-2.7-4.5.4-1.1,0-1.2-2.3-.3-2.6,1-3.3.8-5.5-1.3-1.4-1.3-2.5-3.2-2.5-4.2,0-1.8-.1-1.8-2.6-.2s-2.7,1.6-5.2-.3c-3-2.2-4-6.6-2.1-8.9.9-1.1.5-1.1-1.7.2-5.9,3.4-11.1-.4-9.8-7.1.7-3.9,1.8-4.3,5.2-1.9,1.3.9,2.5,1.4,2.7,1.2s-1.8-1.8-4.5-3.6c-4.6-3-4.9-3.5-4.4-6.5.9-5.1,6.2-28.7,7.7-34.2s1-5.3,10.4-4c5,.7,5.4.6,10-3.2,3.6-3,7.7-4.9,16.5-7.8l11.7-3.8,11.8,2.2c6.5,1.2,12.6,2.4,13.6,2.7,1.2.4,1.7,0,1.7-1.5,0-1.2-.4-2.1-.8-2.1s-2.5-3-4.4-6.8-4.5-8.4-5.6-10.5c-2.6-4.5-2.6-4.7-.7-4.7a1.45,1.45,0,0,1,1.5,1.4c0,1.3,7.3,11.2,12.4,16.8a16.87,16.87,0,0,1,3.1,5.7c.4,1.7,1,3.1,1.3,3.2a25.06,25.06,0,0,1,2.7.4,12.88,12.88,0,0,0,5.2-.7c2.5-.9,3.6-.9,4.5,0a3.74,3.74,0,0,0,2.2,1.2c.5,0,.1-.6-1-1.4-2.4-1.8-2.3-1.9,5.7-5.5l6.4-3,3,3.3c3.3,3.8,10,16,13.5,24.8,1.2,3.2,2.7,5.8,3.2,5.8s2.5-1.5,4.3-3.4c3.9-4,6.6-5.6,9.5-5.6,2.5,0,8.2-5.7,9.9-9.9a13.52,13.52,0,0,1,4.1-4.6c2.4-1.6,3-2.7,3-5.6,0-3.4-.5-4-6.5-7.9a49.09,49.09,0,0,1-6.5-4.6c0-.3,2.8-.2,6.3.1s11.5.7,18,.9c10.1.3,12,.6,13.2,2.2a7.32,7.32,0,0,1,1.5,2.6c0,.5.5.8,1.1.8,1.9,0,5.9,4.4,5.9,6.6,0,3.2,2,4.4,7.6,4.4,5.1,0,5.3.1,5.2,2.7,0,3.2,3.6,14.2,6.4,19.1a15,15,0,0,1,1.8,4.3c0,1,6,14.5,9.3,20.9.9,1.9,2.2,2.6,4.9,2.8,3.2.3,4-.2,6.4-3.4,1.9-2.4,2.7-4.6,2.6-6.6a10.84,10.84,0,0,1,1.4-5.6c1.2-1.8,1.4-3.7,1-7.6-.7-4.9-.6-5.2,2.4-6.9a19.09,19.09,0,0,0,5.3-5.3c1.2-1.8,2.8-3.4,3.5-3.4s2.1-1.4,3-3c1.5-2.7,4.6-4.7,6.5-4.2.4.1.7-1.2.7-2.8,0-3.4,1.6-4.4,9.1-5.5,4.3-.6,4.5-.6,6.1,2.8a12,12,0,0,0,4.5,4.9c3.1,1.5,7.3,8.8,7.3,12.8a4.3,4.3,0,0,0,2.6,4.1l2.7,1.4-.7,15.5a225,225,0,0,1-6.1,46c-2.4,10-4,15.3-9.1,30-2.9,8.5-14.4,32.5-20.1,42-14.8,24.6-40.5,53.5-62.3,70-2.5,1.9-4.7,3.7-5,4-.9,1.1-16.9,12-17.5,12a31.47,31.47,0,0,0-5.8,3.4c-20.9,13.6-27.1,16.8-45.1,23.6-42.1,15.7-86.6,20.9-135.1,15.5-3.6-.4-4.4-.3-2.9.4,3,1.3,25.3,3.1,38.9,3.1,86.5,0,166-37.2,219.9-102.9,4.7-5.8,8.6-10.8,8.6-11.2s.9-1.1,2-1.4a2.75,2.75,0,0,0,2-2.3c0-2.1,12.8-23.2,14.1-23.2.5,0,1.3,1,1.8,2.2s1,1.7,1.5,1,2-.5,5.1.9c2.5,1.1,5.4,1.7,6.4,1.4,2-.6,3.6-3.4,2.5-4.4-.4-.3-.9,0-1.1.6-.6,1.8-3.6,1.6-7.8-.4-2.7-1.3-3.4-2.1-3-3.7.3-1.2.2-1.5-.1-.9-.7,1.5-4.4,1.7-4.4.3a79.28,79.28,0,0,1,3.9-9.2c6.3-13.3,14.4-35.4,15.7-42.8.2-.8,1.2-5.3,2.3-10,3.6-14.9,5.1-30.3,5.1-50.9,0-17.1-1.8-40.1-3.5-45-.3-.7-1.2-4.8-2.1-9-5.9-28.7-22.1-63.9-41.9-91.2a276.62,276.62,0,0,0-41-44c-2.2-1.9-4.2-3.6-4.5-4-3.8-4.2-31.9-23.1-44.5-29.9-9.7-5.2-23.2-12-23.9-12a48.76,48.76,0,0,1-6-2.5,48.76,48.76,0,0,0-6-2.5C429.3,95,429,96.7,429,98.9ZM361.4,130c3.1,0,5.6.4,5.6,1s-2,1-4.5,1c-3.3,0-4.5.4-4.5,1.5,0,2.1-1.1,1.8-3.7-.9-2.9-3-3.1-5.1-.4-3.6A24.88,24.88,0,0,0,361.4,130ZM321,132.4a17.09,17.09,0,0,1-3,3.8c-2.4,2.6-3,4.1-3,8,0,4.1,1,6.1,3,6.3a12.28,12.28,0,0,1,2.5,1.2c1.9,1.2,1.8,1.4-1.5,1.7-.9,0-1.6,1.3-1.8,3.3-.2,1.8-.7,3.3-1.3,3.3s-.9.9-.9,1.9c0,3.2-5.4,8.1-9,8.1a13.83,13.83,0,0,0-5,1c-2.1,1.1-10,.2-10-1.1,0-.5,1.2-.9,2.6-.9,4.6,0,9.1-2.8,9.8-6.2A13.2,13.2,0,0,1,307,157c3.6-3.3,4-7.5.9-8.3-3.5-.9-2.1-5.6,2.4-8.1a19.67,19.67,0,0,0,5.7-5.4c1.1-1.7,2.7-3.2,3.5-3.2S321,132.2,321,132.4ZM335,152c-2,1.3-3.3,1.3-2.5,0a2.78,2.78,0,0,1,2.3-1C336.3,151,336.3,151.2,335,152Zm39.5,51.7c-2,5.4-1.8,6.9,1.5,8.3a21.08,21.08,0,0,1,4.4,2.4,21,21,0,0,0,4.1,2.6c3.4,1.8,4,3,2.3,5.2-1.4,1.9-5.7,1.3-13.3-1.6-5-1.9-14.2-2-17.5-.1-4.1,2.3-8.9,1.9-10.1-.9-2.1-4.4,5.7-16,10-14.9a2.63,2.63,0,0,1,2.1,2.2c0,2.6,2.1,4.1,5.9,4.1,3.6,0,7.1-2.3,7.1-4.7,0-.7-.8-1.3-1.7-1.3-2.1,0-.6-1.6,2.2-2.3C375,201.9,375.2,202,374.5,203.7Zm49.5.3,2,2h-2.3c-3.8,0-6,3.2-5,7,.9,3.4,6.6,7.5,11.4,8.2,3.1.4,3.9,3.8,1,3.8-1.2,0-2.1.4-2.1,1,0,1.9,2.5,6.5,4.2,7.8,2.6,1.9,2.2,5-.7,6.4-2.1.9-3.3.8-7.3-1.2-6.8-3.3-7.3-3.9-6.1-6.2,1.8-3.4.1-9.1-4.2-13.6-2.1-2.3-3.9-4.7-3.9-5.3a3.62,3.62,0,0,0-1.7-2.4c-1.4-1.1-1-1.7,3.6-5.4C418.8,201.5,421.1,201.1,424,204Zm-131,5a1,1,0,0,1-1,1,1.08,1.08,0,0,1-1-1,1,1,0,0,1,1-1A.94.94,0,0,1,293,209Zm6,3.9c0,1.4,6.4,5.1,8.8,5.1,1.8,0,6.7,5.8,5.7,6.9-.7.6-11.5-5.1-11.5-6.1,0-.4-.5-.8-1.1-.8-1.4,0-3.8-3-3.9-4.8a1.2,1.2,0,0,1,1-1.2A.92.92,0,0,1,299,212.9Zm-17,2.8c.5,2.2,5.2,6.1,10,8.5,6.1,2.9,8,4.9,8.6,8.9.4,2.3,1.2,3.9,2,3.9,2.3,0,5.3-3.7,4.7-5.8-.4-1.5.1-2,2.5-2.4,3.9-.6,5.2,0,5.2,2.2,0,1.1,1,2,2.5,2.4s2.5,1.3,2.5,2.5c0,2.5,3.8,7.1,5.9,7.1,3.5,0,6.8-6.8,4.1-8.5-1.6-1-1.2-4.7.8-6.1a7.69,7.69,0,0,1,4-1.4c1.7,0,2.2.6,2.2,2.5a4,4,0,0,0,2,3.5,4,4,0,0,1,2,3.5c0,3.4,5.6,7.5,10.3,7.5,2,0,3.8-.4,4.1-.9s1.7-.4,3.1.2c2.5,1.2,3.4,2.7,1.5,2.7-2.3,0-.8,3.8,1.9,5,2.5,1,3.3.9,5.5-.7,2.7-1.9,3.5-5.8,1.4-6.6-.7-.3-.3-.6.9-.6,2.7-.1,4,3.7,2.4,6.7a17.51,17.51,0,0,0-1.4,5.6c-.6,4.8-2.8,7-6.7,6.7a73.57,73.57,0,0,0-11.5,0c-5.5.3-14-1.3-16.7-3.2a10.89,10.89,0,0,0-4.1-1.9,4.06,4.06,0,0,1-2.4-1.1c-.5-.5-3.2-.9-5.9-.7-4.6.3-4.9.5-5.2,3.3-.7,5.6-3,6.6-10.3,4.3-2.2-.6-3.9-1.7-3.9-2.3,0-2.2-3.5-4.3-8.4-5.1-6.7-.9-9-3.6-9.4-10.5-.2-2.9-.5-5.7-.8-6.1-.8-1.3-7.5-.9-11.9.6-3.1,1.1-5.3,1.2-9.9.4-4.3-.8-6.5-.7-7.8.1a10.21,10.21,0,0,1-4.4,1.1c-1.5,0-5.2,1.4-8.4,3.1-5.7,3.2-8.3,3.4-12,.9-1.3-.9-1.3-1.1,0-2a12.16,12.16,0,0,1,5-1,17.91,17.91,0,0,0,7.5-2.3c3.1-1.8,4.1-3,4.7-6.2,1-4.6,3-7,8-9.6,2.7-1.4,3.7-2.6,4-4.6.3-2.7.5-2.8,6.8-3.1,4.1-.2,7-.8,8-1.8C277.2,212.3,281.3,213,282,215.7Zm145.3,54.7a4.28,4.28,0,0,1,1.7,2.7c.1,3.7,9.3,9.9,14.7,9.9,1.3,0,2.3.5,2.3,1,0,1.6-4.7,6-6.3,6-1.9,0-3.7-2.1-3.7-4.2,0-1.1-.7-1.8-2-1.8-1.1,0-2-.7-2-1.5s-.9-1.5-2-1.5a3.46,3.46,0,0,1-3-2.5,17,17,0,0,0-3-4.7,7.55,7.55,0,0,1-2-3.5C422,268.6,425,268.7,427.3,270.4ZM300.5,306.1c7.5,2.5,7.5,2.4,4.5,13.2-3,10.5-7,28.6-7,31.3a4.43,4.43,0,0,1-.8,2.8c-.8.5-18.2-2.3-19-3-.5-.3,9.1-32.7,13.3-45.2C292.1,303.6,292.9,303.7,300.5,306.1Z"></path><path class="cls-2" d="M228.4,98.5c-.8,1.9.3,3.5,2.6,3.5,1.9,0,3.4-2.5,2.4-4.1C232.6,96.5,229,96.9,228.4,98.5Z"></path><path class="cls-2" d="M264,98.9c-.6,1.2-.7,2.1-.1,2.1,1,0,2.4-3,1.7-3.7C265.4,97,264.7,97.8,264,98.9Z"></path><path class="cls-2" d="M293.1,99.7c-.1,1.8.4,3.3.9,3.3,1.2,0,1.2-1.7,0-4.5C293.3,96.8,293.1,97,293.1,99.7Z"></path><path class="cls-2" d="M299.6,100.2a21.49,21.49,0,0,0-.6,3.3c.1,1.5,3-2.7,3-4.2C302,97.1,300.3,97.8,299.6,100.2Z"></path><path class="cls-2" d="M307,101a1.8,1.8,0,0,0,2,2c2.4,0,2.7-2.5.4-3.4S307,98.8,307,101Z"></path><path class="cls-2" d="M251,100.7c0,1.3,3.2,3.5,4,2.7.5-.5-.1-1.4-1.6-2.1C252.1,100.7,251,100.4,251,100.7Z"></path><path class="cls-2" d="M157.4,102.9c-1.8,1.1-3.4,2.5-3.6,3.3a2.61,2.61,0,0,1-2.3,1.3c-3.4,0-2.6,2.3,2.9,8.1,4.1,4.4,5.7,5.6,6.6,4.8s.3-2.3-2.4-5.9c-2-2.5-3.6-5.3-3.6-6,0-1.8,2.8-4.5,4.6-4.5a1.45,1.45,0,0,0,1.4-1.5C161,100.6,161.1,100.6,157.4,102.9Z"></path><path class="cls-2" d="M234,101.9a4.12,4.12,0,0,0,1.5,2.1c1.6,1.4,1.8,1,.9-1.4C235.8,100.9,234,100.4,234,101.9Z"></path><path class="cls-2" d="M242,102a1.08,1.08,0,0,0,1,1,1,1,0,0,0,1-1,.94.94,0,0,0-1-1A1,1,0,0,0,242,102Z"></path><path class="cls-2" d="M257.8,103.1c-2.7,1.5-2.3,5.7.7,7.1,1.9.8,2.8.8,4-.2,2.1-1.8,1.9-5.7-.4-7S259.9,101.8,257.8,103.1Z"></path><path class="cls-2" d="M286.5,103c.9,1.5,4.5,3.2,4.5,2.2,0-.5-1.2-1.4-2.6-2S286.1,102.4,286.5,103Z"></path><path class="cls-2" d="M494.1,104.9c-.9,1.6-.2,2.8,4.4,7.3,5.9,5.7,7,8.8,3.2,8.8-2.6,0-9.7-5.5-9.7-7.5a3.61,3.61,0,0,0-2-2.5c-3.1-1.7-2.6,1.3,1,5.4,4.9,5.5,13.7,8.8,16.4,6,2-2,1.2-3.5-4.8-9.4-5.1-5-5.7-7-2.2-7,2.7,0,8.6,4.4,8.6,6.5,0,1.1,2,2.5,3.6,2.5,1.1,0,.1-2.2-2.2-5C505.2,103.9,496.1,101.1,494.1,104.9Z"></path><path class="cls-2" d="M211.3,105.5c-1.6,1.8-.6,4.5,1.7,4.5s3.3-2.6,1.4-4.5S212.8,103.7,211.3,105.5Z"></path><path class="cls-2" d="M232.1,105.6c0,1.1.3,1.4.6.6a2,2,0,0,0-.1-1.9C232.3,103.9,232,104.5,232.1,105.6Z"></path><path class="cls-2" d="M238.3,105.6a2.71,2.71,0,0,0,.5,2.6c1.6,1.6,4.2.2,4.2-2.2S239.2,103.2,238.3,105.6Z"></path><path class="cls-2" d="M245,105c-.8.5-1,1-.5,1a6.21,6.21,0,0,0,2.5-1c.8-.5,1.1-1,.5-1A6.8,6.8,0,0,0,245,105Z"></path><path class="cls-2" d="M266,104.9c0,.5.9.7,2,.4s2-.7,2-.9-.9-.4-2-.4S266,104.4,266,104.9Z"></path><path class="cls-2" d="M277.1,105.4c-1.4,1.6-.4,4.6,1.4,4.6s2.7-1.7,2-4S278.7,103.5,277.1,105.4Z"></path><path class="cls-2" d="M293.2,105.2a5.06,5.06,0,0,0,.3,6.8c1.3,1.1,2,1.1,4,0,3.9-2.1,2.8-8-1.5-8A4.42,4.42,0,0,0,293.2,105.2Z"></path><path class="cls-2" d="M303.5,105.9c-1.6.3-2.5.9-2,1.3,1,.6,5.5-.7,5.5-1.7,0-.3-.1-.4-.2-.4S305.2,105.5,303.5,105.9Z"></path><path class="cls-2" d="M233.6,107.9c-.4.5.3.7,1.4.4,2.3-.6,2.6-1.3.6-1.3A2.53,2.53,0,0,0,233.6,107.9Z"></path><path class="cls-2" d="M251.3,107.7c-2.1.8-1.5,2.2.7,1.6,1.1-.3,2-.9,2-1.4C254,106.9,253.2,106.9,251.3,107.7Z"></path><path class="cls-2" d="M244,109a1.1,1.1,0,0,0,1.1,1c.5,0,.7-.5.4-1s-.8-1-1.1-1S244,108.4,244,109Z"></path><path class="cls-2" d="M272.8,108.7a2,2,0,0,0,1.9-.1c.4-.3-.2-.6-1.3-.5S272,108.4,272.8,108.7Z"></path><path class="cls-2" d="M265,109.8c0,.5,1.2,1.4,2.8,2.1l2.7,1.3-2.2-2.1C265.9,108.8,265,108.5,265,109.8Z"></path><path class="cls-2" d="M283.1,110.6c1.7,1.6,6.9,1,6.9-.8,0-.6-.8-.7-1.7-.3s-2.4.9-3,1.2-1.3,0-1.3-.6a1.13,1.13,0,0,0-1.2-1.1C282,109,282.1,109.5,283.1,110.6Z"></path><path class="cls-2" d="M241,112.7a4.75,4.75,0,0,1-1.1,3c-.7.7-.7,1.3-.1,1.7s1.5-.7,2-2.4c.7-1.8.7-3.2.1-3.5S241,111.7,241,112.7Z"></path><path class="cls-2" d="M300.6,111.9c-.3.4.6,1.3,1.9,1.9,1.5.7,2.5.8,2.5.2C305,112.7,301.2,110.8,300.6,111.9Z"></path><path class="cls-2" d="M254.9,114.2c-1.2,2.3-1.2,2.3,1,.4,2.3-2.1,2.6-2.6,1.1-2.6C256.5,112,255.5,113,254.9,114.2Z"></path><path class="cls-2" d="M261.3,115.1c.8,2.1,1.3,2.6,1.5,1.4.5-2.1-.5-4.5-1.7-4.5C260.6,112,260.7,113.3,261.3,115.1Z"></path><path class="cls-2" d="M194,114a1.1,1.1,0,0,0,1.1,1c.5,0,.7-.5.4-1s-.8-1-1.1-1S194,113.4,194,114Z"></path><path class="cls-2" d="M234,114.7c0,1.3.5,2.3,1,2.3,1.3,0,1.3-1.1,0-3C234.2,112.8,234,112.9,234,114.7Z"></path><path class="cls-2" d="M290.6,115.9c-2.3,4.3-1.9,5.2.5,1.3,1.2-1.8,1.9-3.5,1.6-3.8S291.4,114.2,290.6,115.9Z"></path><path class="cls-2" d="M191,115.9c0,.6.3,1.1.8,1.1s1.2,1,1.7,2.2c1.2,2.8,3.4,3,4.9.5.8-1.4.8-2-.4-2.7a3.81,3.81,0,0,0-2.9-.5,3.06,3.06,0,0,1-2.7-.6C191.4,115.1,191,115.1,191,115.9Z"></path><path class="cls-2" d="M270.1,117.7c-.1,1.8.4,3.3.9,3.3,1.2,0,1.2-1.7,0-4.5C270.3,114.8,270.1,115,270.1,117.7Z"></path><path class="cls-2" d="M136.5,117.4c-9.2,4.1-13.3,13.2-7.9,17.5,5.1,4,13.4,1.5,19.3-5.6,3-3.6,4.1-7.3,2.2-7.3-1.2,0-3.2,2.6-2.5,3.3.9.9-2.1,4.7-5.3,6.8-3,2-8.8,2.5-9.8.9-.3-.5,2.9-3.7,7.2-7s7.9-6.6,8.1-7.1c.4-1-4-2.9-6.6-2.9A22.72,22.72,0,0,0,136.5,117.4Zm6.9,2.4c.6,1-13,11.3-13.8,10.5-3.1-3.1,4-11.3,9.9-11.3C141.3,119,143.1,119.4,143.4,119.8Z"></path><path class="cls-2" d="M215.3,117.6a2.77,2.77,0,0,0,1.2,3.1c1.6,1.1,2,1.1,2.8-.3a4,4,0,0,0,.3-3C218.9,115.5,216.1,115.6,215.3,117.6Z"></path><path class="cls-2" d="M200.8,117.7a2,2,0,0,0,1.9-.1c.4-.3-.2-.6-1.3-.5S200,117.4,200.8,117.7Z"></path><path class="cls-2" d="M221.8,117.7a2,2,0,0,0,1.9-.1c.4-.3-.2-.6-1.3-.5S221,117.4,221.8,117.7Z"></path><path class="cls-2" d="M228,117.9c0,1.1,3.1,2.4,3.9,1.6.3-.3-.1-1-.9-1.5C229.1,116.8,228,116.8,228,117.9Z"></path><path class="cls-2" d="M277,119c-.6,1.2-.9,2.4-.7,2.7s1.1-.5,1.7-1.7.9-2.4.7-2.7S277.6,117.8,277,119Z"></path><path class="cls-2" d="M234.2,119.6c-2.9,2-2.8,4.7.3,6.4,2.2,1.2,2.7,1.1,4.5-.5,2.4-2.2,2.5-3.8.4-5.9C237.5,117.6,237,117.6,234.2,119.6Z"></path><path class="cls-2" d="M190,120c-.9.6-1,1-.3,1a2.53,2.53,0,0,0,1.8-1C192.3,118.8,191.9,118.8,190,120Z"></path><path class="cls-2" d="M251,120a1.1,1.1,0,0,0,1.1,1c.5,0,.7-.5.4-1s-.8-1-1.1-1S251,119.4,251,120Z"></path><path class="cls-2" d="M242,121c0,1.2.8,1.2,3.5,0,1.8-.8,1.7-.9-.7-.9C243.2,120,242,120.4,242,121Z"></path><path class="cls-2" d="M255.5,121c-.3.5-.1,1,.4,1a1.1,1.1,0,0,0,1.1-1c0-.6-.2-1-.4-1S255.8,120.4,255.5,121Z"></path><path class="cls-2" d="M514.7,121.1c-6.7,3.9-2,14.1,8.6,18.7,4.1,1.8,6.9,1.5,10-1.2,5.1-4.4,2.9-10.9-5.4-16.2C523.8,119.9,517.9,119.3,514.7,121.1Zm16.1,5.6c1.7,2.4,1.5,7.8-.4,9.4-.9.8-3.5,1.3-5.7,1.3-3.2-.1-4.7-.8-6.9-3.3-1.5-1.7-2.8-3.9-2.8-4.9,0-2.7,2.7-6,5.3-6.4C523.1,122.3,529.1,124.6,530.8,126.7Z"></path><path class="cls-2" d="M200,122a1.1,1.1,0,0,0,1.1,1c.5,0,.7-.5.4-1s-.8-1-1.1-1S200,121.4,200,122Z"></path><path class="cls-2" d="M264,122.5a4.57,4.57,0,0,0,2.9,1.5c1.3-.1,1.3-.3-.3-1.5C264,120.6,262.4,120.6,264,122.5Z"></path><path class="cls-2" d="M192.6,123.7c-.6,1.4-.5,1.5.5.6.7-.7,1-1.5.7-1.8S192.9,122.7,192.6,123.7Z"></path><path class="cls-2" d="M247.7,123.1c.7.7,1.5,1,1.8.7s-.2-.9-1.2-1.2C246.9,122,246.8,122.1,247.7,123.1Z"></path><path class="cls-2" d="M196.5,124c.3.5.8,1,1.1,1s.4-.5.4-1a1,1,0,0,0-1.1-1C196.4,123,196.2,123.4,196.5,124Z"></path><path class="cls-2" d="M226.5,124.6c-2.6,1.3-2.7,1.4-.5,1a25.85,25.85,0,0,1,3.8-.6,1.2,1.2,0,0,0,1.2-1C231,122.7,230.2,122.8,226.5,124.6Z"></path><path class="cls-2" d="M251.1,124.9c-1.4,2.6,1.2,5,3.4,3.1,2-1.6,1.9-3.6-.1-4.4C252.2,122.8,252.2,122.8,251.1,124.9Z"></path><path class="cls-2" d="M269.2,124.6c-1.6,1.8-.9,4.5,1.7,6.1s6.1-.9,6.1-4.1C277,123,271.8,121.7,269.2,124.6Z"></path><path class="cls-2" d="M199.5,126c-1.2,3.7,2,5.5,4.5,2.5,1-1.2,1-1.8,0-3C202.3,123.4,200.3,123.6,199.5,126Z"></path><path class="cls-2" d="M279,125c0,1.3,2,1.3,4,0,1.2-.8.9-1-1.2-1C280.2,124,279,124.4,279,125Z"></path><path class="cls-2" d="M241.6,125.8c-.9,1.5,4.3,3.4,6.2,2.2,1.4-.8,1.3-.9-.8-1a6,6,0,0,1-3.7-1.1C242.7,125.3,242,125.2,241.6,125.8Z"></path><path class="cls-2" d="M178.4,128.5c-.8,2,.4,3.5,2.7,3.5,1.4,0,1.9-.7,1.9-2.5s-.5-2.5-2-2.5A2.94,2.94,0,0,0,178.4,128.5Z"></path><path class="cls-2" d="M231.5,129.1c-.9,2.8-.2,3.3,1.3.9.6-1.1.8-2.1.3-2.5S231.8,127.9,231.5,129.1Z"></path><path class="cls-2" d="M237.1,129.2a10.28,10.28,0,0,0,.9,3.3c.7,1.7.9,1.5.9-1.3.1-1.7-.3-3.2-.9-3.2A1,1,0,0,0,237.1,129.2Z"></path><path class="cls-2" d="M262.5,129c-1.7.7-1.5.9,1.3.9,1.7.1,3.2-.4,3.2-.9C267,127.8,265.3,127.8,262.5,129Z"></path><path class="cls-2" d="M205,129.4c0,.2.7.7,1.6,1s1.2.2.9-.4C206.9,129,205,128.6,205,129.4Z"></path><path class="cls-2" d="M210,132.1c0,1.1.4,1.8,1,1.4a1.58,1.58,0,0,0,.3-2C210.6,129.4,210,129.6,210,132.1Z"></path><path class="cls-2" d="M216,131.9c-.6,1.2-.7,2.1-.1,2.1,1,0,2.4-3,1.7-3.7C217.4,130,216.7,130.8,216,131.9Z"></path><path class="cls-2" d="M254.1,131.6c0,1.1.3,1.4.6.6a2,2,0,0,0-.1-1.9C254.3,129.9,254,130.5,254.1,131.6Z"></path><path class="cls-2" d="M278.4,131.5c2.6,1.9,4.2,1.9,2.6,0a4.57,4.57,0,0,0-2.9-1.5C276.8,130.1,276.8,130.3,278.4,131.5Z"></path><path class="cls-2" d="M184.7,132.1c.7.7,1.5,1,1.8.7s-.2-.9-1.2-1.2C183.9,131,183.8,131.1,184.7,132.1Z"></path><path class="cls-2" d="M202.7,131.7c-.9,1.4,3.2,5.5,4.6,4.6.6-.4.2-1.1-1.1-1.6a4.63,4.63,0,0,1-2.4-2.6C203.5,131,203.2,130.8,202.7,131.7Z"></path><path class="cls-2" d="M267.6,133.6c-1.1,2.8-.6,3.9.9,2a7.69,7.69,0,0,0,1.5-2.8C270,131.4,268.2,131.9,267.6,133.6Z"></path><path class="cls-2" d="M177,134.1c0,.5.5.7,1,.4s1-.8,1-1.1-.4-.4-1-.4A1.1,1.1,0,0,0,177,134.1Z"></path><path class="cls-2" d="M229.4,135.5a7.79,7.79,0,0,1-.4,4.5,2.48,2.48,0,0,0,2.1,4c2.5,0,3.7-3,1.7-4.4a11.14,11.14,0,0,1-2.6-4.1l-1.2-3Z"></path><path class="cls-2" d="M274,135.1c.7,1.1,1.4,1.9,1.6,1.6.7-.7-.7-3.7-1.7-3.7C273.3,133,273.4,133.9,274,135.1Z"></path><path class="cls-2" d="M189.8,136.1a3.45,3.45,0,0,0-1.8,2.3c0,2.1,3.2,2.9,4.9,1.1,1.3-1.3,1.3-1.7.1-2.9A2.28,2.28,0,0,0,189.8,136.1Z"></path><path class="cls-2" d="M209.6,136.6a4.81,4.81,0,0,0-1.6,2.8c0,1.5,3.2,4.6,4.8,4.6,1.1,0,4.2-3.8,4.2-5.2,0-1.2-3.1-3.8-4.5-3.8A5,5,0,0,0,209.6,136.6Z"></path><path class="cls-2" d="M249,137.2c0,1.6.5,2.8,1,2.8,1.3,0,1.3-2,0-4C249.2,134.8,249,135.1,249,137.2Z"></path><path class="cls-2" d="M110.9,138.7a21.39,21.39,0,0,0-4.6,6l-1.4,3.4-3.5-2.7c-3.2-2.5-3.7-2.6-5-1.2s-1.3,1.8,1.8,4c15.6,11.4,16.1,11.8,17.5,10.7,1.9-1.7,1.7-2.1-3.2-5.4-4.3-2.8-5-4-4.6-7.5.2-1.9,5.7-7,7.5-7,.7,0,3.6,1.8,6.5,4.1,4.7,3.8,7.2,4.3,7,1.6,0-.7-2.1-2.9-4.5-5C118.9,135.2,115.4,134.9,110.9,138.7Z"></path><path class="cls-2" d="M219.8,136.7c-1,.2-1.8.9-1.8,1.4,0,1.2.2,1.2,4.1-.6C225.4,136.1,223.9,135.6,219.8,136.7Z"></path><path class="cls-2" d="M256,137.5a3.47,3.47,0,0,0-.8,2.6c.2.6.9,0,1.6-1.5C258.1,135.7,257.8,135.3,256,137.5Z"></path><path class="cls-2" d="M159.7,138.1c.7.7,1.5,1,1.8.7s-.2-.9-1.2-1.2C158.9,137,158.8,137.1,159.7,138.1Z"></path><path class="cls-2" d="M164,139.5c-1.6,1.9-.5,4.7,1.7,4.3s2.9-4.3.9-5.1A2.62,2.62,0,0,0,164,139.5Z"></path><path class="cls-2" d="M170,140a1.1,1.1,0,0,0,1.1,1c.5,0,.7-.5.4-1s-.8-1-1.1-1S170,139.4,170,140Z"></path><path class="cls-2" d="M184.8,139.7a2,2,0,0,0,1.9-.1c.4-.3-.2-.6-1.3-.5S184,139.4,184.8,139.7Z"></path><path class="cls-2" d="M194.5,141c.3.5.8,1,1.1,1s.4-.5.4-1a1,1,0,0,0-1.1-1C194.4,140,194.2,140.4,194.5,141Z"></path><path class="cls-2" d="M203.3,141c-3.2,1.3-2.9,1.7.7,1.2,1.7-.2,3-.8,3-1.3C207,139.8,206.2,139.8,203.3,141Z"></path><path class="cls-2" d="M244.1,141.6c1.3,1.6,2.9,1.9,2.9.5,0-.5-.9-1.1-2.1-1.4C243.3,140.3,243.1,140.4,244.1,141.6Z"></path><path class="cls-2" d="M538.8,141.5c-3.2,1.8-4.2,4.5-3.4,8.9,1,5,8.7,11.6,13.6,11.6,3.2,0,1.9-2.4-1.6-2.8-4-.5-9.4-5.8-9.4-9.3,0-3,2.3-5.9,4.6-5.9.8,0,1.2-.5.9-1.1s1-.3,3.2.6c5,2,8.6,6.1,7.9,8.9-.4,1.5.1,2.6,1.6,3.5,2,1.2,2.1,1.2,1.5-2.2a16.37,16.37,0,0,0-9.2-11.7C543.6,139.6,542.4,139.6,538.8,141.5Z"></path><path class="cls-2" d="M249,142.8c-1.8,1.5-2,2.1-1.1,4.5,1.1,2.9,3,3.4,6.2,1.7,2.3-1.3,2.5-4.3.3-6.4C252.4,140.6,251.7,140.6,249,142.8Z"></path><path class="cls-2" d="M171.9,143c-.3,2-.4,2.5-1.2,3.6-.9,1.5,1.9,3.8,3.8,3a2.24,2.24,0,0,0-.4-4.3c-1.2-.3-1.7-1.1-1.4-1.9s.2-1.4-.1-1.4S171.9,142.4,171.9,143Z"></path><path class="cls-2" d="M217,142.7c0,.5,1.1,1.3,2.5,2,2.9,1.3,3.3.6.8-1.3C218.3,141.9,217,141.6,217,142.7Z"></path><path class="cls-2" d="M224.8,142.7a2,2,0,0,0,1.9-.1c.4-.3-.2-.6-1.3-.5S224,142.4,224.8,142.7Z"></path><path class="cls-2" d="M168.5,143.9a1.22,1.22,0,0,0,.5,1.6c.5.3,1-.1,1-.9C170,142.8,169.4,142.5,168.5,143.9Z"></path><path class="cls-2" d="M235.6,144.3c.3,1,.9,1.5,1.2,1.2s0-1.1-.7-1.8C235.1,142.8,235,142.9,235.6,144.3Z"></path><path class="cls-2" d="M257,144c0,1.2.8,1.2,3.5,0,1.8-.8,1.7-.9-.7-.9C258.2,143,257,143.4,257,144Z"></path><path class="cls-2" d="M207.1,146.6c-1.2,2.7-1.1,2.8.4,1.2,1-.9,1.6-2.1,1.3-2.8S207.8,145.1,207.1,146.6Z"></path><path class="cls-2" d="M166,145.7a2.52,2.52,0,0,0,1.1,1.9c.8.4.7.9-.2,1.5s-1,.9-.2.9c1.9,0,2.2-1.4.7-3.5C166.6,145.5,166,145.1,166,145.7Z"></path><path class="cls-2" d="M213.1,145.7a9.58,9.58,0,0,0,.9,2.8c.8,1.8.9,1.7.9-.8.1-1.5-.3-2.7-.9-2.7S213,145.3,213.1,145.7Z"></path><path class="cls-2" d="M232.1,146.6c0,1.1.3,1.4.6.6a2,2,0,0,0-.1-1.9C232.3,144.9,232,145.5,232.1,146.6Z"></path><path class="cls-2" d="M242.5,147.6l-3,1.4,3-.6c3.1-.6,4.1-1.1,3.4-1.8C245.7,146.4,244.2,146.8,242.5,147.6Z"></path><path class="cls-2" d="M185,150c0,1.1.4,2,.9,2s.7-.9.4-2-.7-2-.9-2S185,148.9,185,150Z"></path><path class="cls-2" d="M191.2,150.1c-.7,1.2-1.1,2.4-.7,2.7.7.8,2.5-1.7,2.5-3.6C193,147.5,192.7,147.7,191.2,150.1Z"></path><path class="cls-2" d="M236,150c0,1.1.7,2,1.5,2s1.5-.9,1.5-2-.7-2-1.5-2S236,148.9,236,150Z"></path><path class="cls-2" d="M256.6,148.9c-.5.8,4.3,3.5,5.1,2.8.2-.2-.8-1.2-2.1-2.1S256.9,148.4,256.6,148.9Z"></path><path class="cls-2" d="M153,150.1c0,.5.5.7,1,.4s1-.8,1-1.1-.4-.4-1-.4A1.1,1.1,0,0,0,153,150.1Z"></path><path class="cls-2" d="M178.5,152.5c1.6,1.3,3.1,2.2,3.4,1.9.7-.7-3.6-4.4-5.1-4.4C176.1,150.1,176.8,151.2,178.5,152.5Z"></path><path class="cls-2" d="M222.1,152.7c-.1,1.8.4,3.3.9,3.3,1.2,0,1.2-1.7,0-4.5C222.3,149.8,222.1,150,222.1,152.7Z"></path><path class="cls-2" d="M174.1,152.6c0,1.1.3,1.4.6.6a2,2,0,0,0-.1-1.9C174.3,150.9,174,151.5,174.1,152.6Z"></path><path class="cls-2" d="M229.4,153.5c-.9,1.4-1.4,2.8-1.1,3.1s1.3-.8,2.2-2.5C232.4,150.4,231.7,150,229.4,153.5Z"></path><path class="cls-2" d="M246.6,152.6c-1,2.5.1,2.9,1.4.5.6-1.2.7-2.1.1-2.1S246.9,151.7,246.6,152.6Z"></path><path class="cls-2" d="M252,151.9a13.83,13.83,0,0,0,1.5,3.7c1.5,2.9,2,1.7.9-2.4C253.8,151.1,252,150.1,252,151.9Z"></path><path class="cls-2" d="M149,153.5c-.9,1.1-1,1.9-.3,2.6,1.7,1.7,4.8.6,4.8-1.6C153.5,152,150.7,151.4,149,153.5Z"></path><path class="cls-2" d="M156,153c-.9.6-1,1-.3,1a2.53,2.53,0,0,0,1.8-1C158.3,151.8,157.9,151.8,156,153Z"></path><path class="cls-2" d="M184.6,154.6c-3.5,3.5,0,8.8,4.3,6.5,2.9-1.6,3.3-3.9,1.1-6.1C187.6,152.6,186.6,152.5,184.6,154.6Z"></path><path class="cls-2" d="M203,154a1.1,1.1,0,0,0,1.1,1c.5,0,.7-.5.4-1s-.8-1-1.1-1S203,153.4,203,154Z"></path><path class="cls-2" d="M207.5,154.1c-.4.6-.5,1.2-.2,1.5s.7-.2,1-1.1C209,152.8,208.4,152.5,207.5,154.1Z"></path><path class="cls-2" d="M95.4,155.5c-.7,1.7-4,2-4.9.5s-2.2-1.2-2.9.7a2.43,2.43,0,0,0,.9,3,2.64,2.64,0,0,1,1,3.3c-.6,1.9-.5,2,1.3.9s2.8-.7,7.7,2.4c5.4,3.4,6,3.5,8.5,2.2s4.6-4.2,3.6-5.3c-.3-.2-1.2.3-2.1,1.2-2.1,2-1.6,2.1-7.5-1.5-4.8-2.9-6.1-5.1-4-6.4a1.9,1.9,0,0,0,1-1.6C98,153.4,96,153.9,95.4,155.5Z"></path><path class="cls-2" d="M195.8,154.7c-1.6.2-2.8.9-2.8,1.4,0,1.2,1.7,1.2,4-.1,1.3-.7,2.1-.7,2.5,0a2.34,2.34,0,0,0,1.6,1c.6,0,.4-.7-.5-1.5a6,6,0,0,0-1.8-1.4A17.92,17.92,0,0,1,195.8,154.7Z"></path><path class="cls-2" d="M216.5,157c1.8,2,3.5,2.6,3.5,1.2,0-.4-1.2-1.2-2.6-1.9C214.8,155.1,214.8,155.1,216.5,157Z"></path><path class="cls-2" d="M568.6,155.9c-.6,1,2.2,3.7,2.9,2.9S571,155,570,155A1.84,1.84,0,0,0,568.6,155.9Z"></path><path class="cls-2" d="M203.1,157.9c-1.4,2.6,1.2,5,3.4,3.1,2-1.6,1.9-3.6-.1-4.4C204.2,155.8,204.2,155.8,203.1,157.9Z"></path><path class="cls-2" d="M164.3,157.7c-1.8.7-1.6,2.8.3,4.4,1.4,1.1,1.8,1,3-.6,1-1.3,1.1-2.2.3-3.2C166.7,156.9,166.3,156.8,164.3,157.7Z"></path><path class="cls-2" d="M209,158c0,.5.7.7,1.5.4s1.5-.8,1.5-1-.7-.4-1.5-.4S209,157.4,209,158Z"></path><path class="cls-2" d="M221.1,160.2c-1.1,3.1.7,6,3.8,5.6,5.4-.7,5.2-7-.3-7.6C222.6,157.9,221.8,158.4,221.1,160.2Z"></path><path class="cls-2" d="M176.5,160l-2,.9h2a11.57,11.57,0,0,0,4-.9l2-.9h-2A11.57,11.57,0,0,0,176.5,160Z"></path><path class="cls-2" d="M556.8,163.6c-4.3,3-6.5,5.1-6.1,6,.8,2.1,1.8,1.8,9.4-3.2,5.6-3.7,6.7-4.9,5.8-6C564.3,158.5,564.4,158.5,556.8,163.6Z"></path><path class="cls-2" d="M126.7,160.7a2.41,2.41,0,0,0-.7,1.7c0,.6.5.5,1.2-.2s.9-1.4.7-1.7A.84.84,0,0,0,126.7,160.7Z"></path><path class="cls-2" d="M192.2,161.2c.2.6,1.5,1.5,2.8,2,2.3.9,2.3.8.5-1.2C193.5,159.8,191.6,159.3,192.2,161.2Z"></path><path class="cls-2" d="M197.8,160.7a5.28,5.28,0,0,0,2.5,0c.6-.3.1-.5-1.3-.5S197.1,160.4,197.8,160.7Z"></path><path class="cls-2" d="M208,161.4c0,.2.7.7,1.6,1s1.2.2.9-.4C209.9,161,208,160.6,208,161.4Z"></path><path class="cls-2" d="M182.1,164.7c-1.5,3.4-1,3.7,1.2.8.9-1.3,1.3-2.6.8-2.9S182.8,163.2,182.1,164.7Z"></path><path class="cls-2" d="M188.1,164.2a10.28,10.28,0,0,0,.9,3.3c.7,1.7.9,1.5.9-1.3.1-1.7-.3-3.2-.9-3.2A1,1,0,0,0,188.1,164.2Z"></path><path class="cls-2" d="M206.1,164.6c0,1.1.3,1.4.6.6a2,2,0,0,0-.1-1.9C206.3,162.9,206,163.5,206.1,164.6Z"></path><path class="cls-2" d="M214.5,164l-2,.9h2a7.88,7.88,0,0,0,3.5-.9c1.3-.9,1.3-1,0-.9A10.63,10.63,0,0,0,214.5,164Z"></path><path class="cls-2" d="M123,165.1c0,.5.5.7,1,.4s1-.8,1-1.1-.4-.4-1-.4A1.1,1.1,0,0,0,123,165.1Z"></path><path class="cls-2" d="M158.1,165.7c-.1,2.9.9,5.4,2.1,4.7.5-.4.5-1,0-1.7a9.49,9.49,0,0,1-1.5-3.2C158.3,163.6,158.2,163.6,158.1,165.7Z"></path><path class="cls-2" d="M166.3,165.2a2.74,2.74,0,0,1-.9,2.8c-1.5,1.4-1.9,3-.6,3,.5,0,1.5-1.1,2.2-2.5,1.1-2.1,1.1-2.7,0-3.8S165.8,163.8,166.3,165.2Z"></path><path class="cls-2" d="M131.3,166.5a6.33,6.33,0,0,1-.6,3.2A2.9,2.9,0,0,0,133,174c2.7,0,3.5-3.2,1.2-5a10.71,10.71,0,0,1-2.5-3C131.3,165,131.1,165.2,131.3,166.5Z"></path><path class="cls-2" d="M115.3,173.7c-7.2,8.2-12.7,15.6-20.9,28-5.9,9-6.2,9.2-6.7,6.3-.6-2.6-1.9-3.5-10.3-7.6-7.7-3.6-9.8-4.3-10.5-3.3a4.16,4.16,0,0,0-.3,3.1,2.42,2.42,0,0,1-1.4,2.7c-2.7,1.4-5.2,7.2-5.2,11.9,0,3.2.6,4.5,2.6,6.1,3.3,2.6,6,2.6,10.2.1,3.4-2.1,7.1-8.7,7.2-12.7,0-2,.2-2.1,2.5-1.1a3.72,3.72,0,0,1,2.5,3.5c0,2.8-3.6,10.3-4.9,10.3s-4.1,2.9-4.1,4.1c0,.6.9.7,2,.4,2.8-.9,2.6.2-1.9,9.7-20,43-26.3,91.9-18,140.6,2.5,14.9,2.5,14.4-1.2,14-3.1-.3-4.1-1.2-5.4-5.3-.6-1.7-.9-1.5-1.9,1.5s-1.5,3.5-4.4,3.4c-3.9-.2-4.1.8-.7,3,2.6,1.7,2.6,2.3.7,7.6-.5,1.2-.1,1.2,2.1-.3,3.3-2.1,4.6-2.1,6.9,0s3.1,1.3,1.8-2.3c-1-2.5-.8-3.1,1.1-4.7,1.2-1,2.6-1.6,3.2-1.4s1.7,3.4,2.7,7.2c5.7,22.5,17.9,49.3,32.3,71,20,30.1,44,54,75.2,74.9,13.8,9.2,40,23.4,41.2,22.3,1.5-1.6-1.7-3.8-15.3-10.6-8.2-4-16.3-8.1-18.1-9a121.36,121.36,0,0,1-10.9-7.1c-31.7-22.7-58.9-52.9-77.1-85.5a235.22,235.22,0,0,1-19.6-45c-8.9-27-12.3-52.7-11.4-85.5.7-24.1,4.8-49.1,10.3-63.4.8-2.1,1.2-4.1,1-4.4s-.2-1,.3-1.6,2-4.4,3.5-8.3A253,253,0,0,1,84.3,223c2.2-4.8,11.9-21.4,16-27.4,5.1-7.6,15.5-21.4,16.7-22.1s5.3-6.5,4.7-6.5C121.4,167,118.5,170,115.3,173.7ZM73.5,203.4c4.2,1.8,5.2,5,3.1,10-2.2,5.4-7.5,7.1-11.7,3.7-3.5-2.8-3-8.7,1-12.3C69.6,201.5,69.1,201.6,73.5,203.4Z"></path><path class="cls-2" d="M143.7,167.6a4.48,4.48,0,0,0-.7,2.6c0,1.3.7,1.8,2.6,1.8,2.1,0,2.5-.4,2.2-2.2C147.5,167.5,145.1,166.3,143.7,167.6Z"></path><path class="cls-2" d="M198.1,169.5c.1,3.5,1.4,7.1,2.2,5.8.4-.6,0-2.6-.8-4.4C198.6,168.7,198.1,168.2,198.1,169.5Z"></path><path class="cls-2" d="M137.5,170c-.3.5-.1,1,.4,1a1.1,1.1,0,0,0,1.1-1c0-.6-.2-1-.4-1S137.8,169.4,137.5,170Z"></path><path class="cls-2" d="M84.3,172.1c-3.2,1.6-4.8,3.3-6.8,7.2-1.4,2.8-2.5,6.4-2.5,7.9,0,3.3,4.2,7.8,7.2,7.8,7.8,0,18.3-13.8,15-19.6-.9-1.6-1-1.6-1.5.2-.3,1-.8,3.5-1.1,5.4a12.71,12.71,0,0,1-6.3,8.9c-2.5,1.3-6.3,1.5-6.3.2,0-.9,3.2-5.8,8.7-13.3,3.3-4.5,3.3-4.7,1.4-5.7C89.5,169.6,89.1,169.7,84.3,172.1Zm3.6,5.1c-1.1,1.8-3.3,5.2-4.7,7.5-3.4,5.4-5.2,5.6-5.2.5,0-5.9,4.3-11.1,9.2-11.2H90Z"></path><path class="cls-2" d="M152.4,171.4a6.76,6.76,0,0,0,3,1.6c1.2,0,.7-.5-2.4-1.9C150.6,170,150.6,170,152.4,171.4Z"></path><path class="cls-2" d="M568,170.6c0,1.1,2.9,3.4,4.4,3.4,1.9,0,7.6,7.6,7.6,10.2,0,3.6-3,3.2-6.3-.8-6.5-7.8-8.6-9.5-11.5-9.2-5.5.6-3.1,9.9,3.8,14.8,1.8,1.3,2.7,2.6,2.3,3.5-.6,1.8,1.7,5.1,2.6,3.6a35.83,35.83,0,0,1,6.1-3.8c6.4-3.3,7.1-5.3,4.1-11-2.4-4.5-4.7-7.3-8.1-9.6C570.6,170,568,169.4,568,170.6Zm2.4,11.6c2.5,2.9,4.5,5.7,4.3,6.3s-1.5,1.1-2.9,1.3c-3.7.4-9.8-5.7-9.8-9.8C562,175.4,565.1,176.2,570.4,182.2Z"></path><path class="cls-2" d="M179.5,172c.3.5.8,1,1.1,1s.4-.5.4-1a1,1,0,0,0-1.1-1C179.4,171,179.2,171.4,179.5,172Z"></path><path class="cls-2" d="M183.5,172c-.3.5-.1,1,.4,1a1.1,1.1,0,0,0,1.1-1c0-.6-.2-1-.4-1S183.8,171.4,183.5,172Z"></path><path class="cls-2" d="M205.7,172.8c-1.9,2-2.2,3.2-.9,3.2.5,0,1.4-1.1,2-2.5C208.2,170.5,207.9,170.4,205.7,172.8Z"></path><path class="cls-2" d="M158,173.4a5.82,5.82,0,0,0-.8,3.8c.2,1.8,1,2.4,3.5,2.6,2.8.3,3.3-.1,3.9-2.3C165.7,173,160.9,170,158,173.4Z"></path><path class="cls-2" d="M142,174.1c0,.5.5.7,1,.4s1-.8,1-1.1-.4-.4-1-.4A1.1,1.1,0,0,0,142,174.1Z"></path><path class="cls-2" d="M168.8,173.7c-1,.2-1.8.9-1.8,1.4s.7.6,1.8.1a30,30,0,0,1,3.2-1.5c1.3-.5,1.3-.5,0-.5A12.48,12.48,0,0,0,168.8,173.7Z"></path><path class="cls-2" d="M178.7,175.9c-.6,2.5,0,3.1,3,3.1,2,0,2.4-.5,2.1-2.3C183.4,173.8,179.5,173.1,178.7,175.9Z"></path><path class="cls-2" d="M192.6,176.1c1.2,1.2,2.8,1.9,3.5,1.7s-.1-1.2-2.1-2.2l-3.5-1.7Z"></path><path class="cls-2" d="M134.1,177.6c0,1.1.3,1.4.6.6a2,2,0,0,0-.1-1.9C134.3,175.9,134,176.5,134.1,177.6Z"></path><path class="cls-2" d="M152.5,178c-1.9.8-1.9.9.3.9,1.2.1,2.2-.4,2.2-.9s-.1-1-.2-.9A13.38,13.38,0,0,0,152.5,178Z"></path><path class="cls-2" d="M198.3,178.5c-1.8,2-1.6,3.9.6,5.9,1.5,1.4,2.4,1.5,4,.6,2.1-1.1,2.5-2.1,2.1-5S200.4,176,198.3,178.5Z"></path><path class="cls-2" d="M207,179c0,1.3,3,1.3,5,0,1.1-.7.7-1-1.7-1C208.5,178,207,178.4,207,179Z"></path><path class="cls-2" d="M166,179.9c0,.5.7,1.2,1.6,1.5,2.4.9,2.8.7,1.4-.9S166,178.5,166,179.9Z"></path><path class="cls-2" d="M123.3,181.7a14.84,14.84,0,0,1-1.1,2.7c-.2.4.7,0,2.2-.9s2.3-2.1,2-2.6C125.5,179.4,124,179.9,123.3,181.7Z"></path><path class="cls-2" d="M182.1,181.6c0,1.1.3,1.4.6.6a2,2,0,0,0-.1-1.9C182.3,179.9,182,180.5,182.1,181.6Z"></path><path class="cls-2" d="M155.5,184.2l-1.6,3.3,2.1-2.4a8.85,8.85,0,0,0,2-3.2C158,180.1,157,181.1,155.5,184.2Z"></path><path class="cls-2" d="M162,183.7a3.85,3.85,0,0,0,1,2.8c1.3.8,1.3-1.5,0-3.5C162.2,181.8,162,181.9,162,183.7Z"></path><path class="cls-2" d="M192,183c-1.2.8-.9,1,1.3,1,1.5,0,2.7-.5,2.7-1C196,181.7,194,181.7,192,183Z"></path><path class="cls-2" d="M135.1,185.2c-.1,1.6.4,2.8.9,2.8,1.2,0,1.2-.8,0-3.5C135.2,182.7,135.1,182.8,135.1,185.2Z"></path><path class="cls-2" d="M141.6,185.4c-.8,1.4-1.2,2.7-.7,3,.8.5,3.5-4.3,2.8-5.1C143.5,183.1,142.5,184.1,141.6,185.4Z"></path><path class="cls-2" d="M206,185a1,1,0,0,0,.9,1,14.23,14.23,0,0,1,2.8.6c1.6.5,1.6.4-.1-1C207.3,183.8,206,183.6,206,185Z"></path><path class="cls-2" d="M174.1,187.5c-.1,2.1,1.5,5.2,2.3,4.5.2-.3-.2-1.9-.9-3.5C174.5,186.2,174.1,186,174.1,187.5Z"></path><path class="cls-2" d="M196.2,188c-1.8,2.9-1.5,3.6.8,1.5,2-1.8,2.6-3.5,1.2-3.5C197.8,186,196.9,186.9,196.2,188Z"></path><path class="cls-2" d="M127,187.4c0,1,5,3.4,5.4,2.7.3-.5-.8-1.4-2.4-2A13,13,0,0,0,127,187.4Z"></path><path class="cls-2" d="M202.1,187.7a9.58,9.58,0,0,0,.9,2.8c.8,1.8.9,1.7.9-.8.1-1.5-.3-2.7-.9-2.7S202,187.3,202.1,187.7Z"></path><path class="cls-2" d="M181.7,189.8c-1.8,2-2.2,3.2-.9,3.2.4,0,1.2-1.1,1.9-2.5C184,187.5,183.9,187.4,181.7,189.8Z"></path><path class="cls-2" d="M115.4,190.5a2.59,2.59,0,0,0,.4,2.7c1.5,1.5,4.4.1,4-1.9C119.4,189,116.2,188.4,115.4,190.5Z"></path><path class="cls-2" d="M134.4,191.5c-1.6,2.4-1.5,2.7.1,4.5,2.2,2.4,5.1,2.2,6.6-.7,1-1.9.9-2.6-.6-4.3C138.1,188.3,136.4,188.5,134.4,191.5Z"></path><path class="cls-2" d="M145.5,190.9c-1.6.3-2.5.9-2,1.3s2.4,0,4-.7C150.8,190,150.2,189.9,145.5,190.9Z"></path><path class="cls-2" d="M155.4,192.5c-.8,1.9.3,3.5,2.6,3.5,1.9,0,3-1.7,2.3-3.8C159.7,190.5,156.1,190.7,155.4,192.5Z"></path><path class="cls-2" d="M169.3,193.7c.9.9,2,1.3,2.4.9s.1-1.1-.7-1.6C168.5,191.4,167.5,191.9,169.3,193.7Z"></path><path class="cls-2" d="M121,194a1.1,1.1,0,0,0,1.1,1c.5,0,.7-.5.4-1s-.8-1-1.1-1S121,193.4,121,194Z"></path><path class="cls-2" d="M174.7,194.8c-2,2.2-2.2,4.3-.5,6a4.3,4.3,0,0,0,6.5-.8c1.5-2.3.8-4.7-1.8-6C176.6,192.7,176.6,192.7,174.7,194.8Z"></path><path class="cls-2" d="M587.5,195c.5,2.3,0,2.8-5.5,5.2-6.7,3-7.8,4.5-6,8.8,1.5,3.6,3.5,4,2.6.6-.7-2.8-.3-3.2,6.9-6.3l5-2.1,1.3,2.4c1.7,3.3,2.5,3,1.7-.5-.5-2.4-.2-3,1.4-3.6,1.2-.3,2.1-1,2.1-1.4,0-1.7-2.7-3-4.8-2.4a3.47,3.47,0,0,1-3.8-1.3C587.1,192.6,587,192.6,587.5,195Z"></path><path class="cls-2" d="M128.5,195.4c-1.8,1.3-1.8,1.4.8.9,1.5-.3,2.4-.9,2.1-1.4C130.7,193.7,130.7,193.7,128.5,195.4Z"></path><path class="cls-2" d="M183,196c0,1.3,2,1.3,4,0,1.2-.8.9-1-1.2-1C184.2,195,183,195.4,183,196Z"></path><path class="cls-2" d="M143.2,197.1a4.64,4.64,0,0,0,2.7,2c2.7,1.1,1.9-.6-1.1-2.2C143.2,196.1,142.9,196.1,143.2,197.1Z"></path><path class="cls-2" d="M154,198.1c0,.5.5.7,1,.4s1-.8,1-1.1-.4-.4-1-.4A1.1,1.1,0,0,0,154,198.1Z"></path><path class="cls-2" d="M132.3,200.7a14.84,14.84,0,0,1-1.1,2.7c-.3.5,0,.6.6.2,1.8-1.1,3.5-4.6,2.2-4.6C133.4,199,132.7,199.8,132.3,200.7Z"></path><path class="cls-2" d="M138.5,200a3.46,3.46,0,0,0,.4,2.7c.9,1.6,1,1.4,1.1-1C140,198.9,139.5,198.3,138.5,200Z"></path><path class="cls-2" d="M167,200c-1.2.8-.9,1,1.3,1,1.5,0,2.7-.5,2.7-1C171,198.7,169,198.7,167,200Z"></path><path class="cls-2" d="M151,202.8c0,1.8.5,3.2,1,3.2s.8-1.1.4-2.8C151.4,199.3,151,199.2,151,202.8Z"></path><path class="cls-2" d="M159.1,201.6c0,1.1.3,1.4.6.6a2,2,0,0,0-.1-1.9C159.3,199.9,159,200.5,159.1,201.6Z"></path><path class="cls-2" d="M183.4,202.5a8.14,8.14,0,0,0,3,1.5c.6,0,.2-.7-.8-1.5a8.14,8.14,0,0,0-3-1.5C182,201,182.4,201.7,183.4,202.5Z"></path><path class="cls-2" d="M114.1,204.7c-.1,1.8.4,3.3.9,3.3,1.2,0,1.2-1.7,0-4.5C114.3,201.8,114.1,202,114.1,204.7Z"></path><path class="cls-2" d="M103.4,204.1a2.09,2.09,0,0,0,.5,2.2c.9.9,1.4.8,2.1-.3.9-1.5.4-3-1-3A2.36,2.36,0,0,0,103.4,204.1Z"></path><path class="cls-2" d="M172.1,205.1c-.7,1.2-1,2.3-.8,2.6s1.1-.5,1.7-1.7C174.5,203.2,173.8,202.5,172.1,205.1Z"></path><path class="cls-2" d="M121.2,205.2a4.4,4.4,0,0,0-1.2,2.7c0,1.1.5.8,1.6-.7C123.4,204.7,123.1,203.3,121.2,205.2Z"></path><path class="cls-2" d="M156.6,205.5c-.3.8-.1,1.5.3,1.5s1.1-.7,1.5-1.5.1-1.5-.3-1.5S157,204.7,156.6,205.5Z"></path><path class="cls-2" d="M178,205.2a6.79,6.79,0,0,0,1,2.8c.8,1.2,1,.9,1-1.3,0-1.5-.4-2.7-1-2.7A1.2,1.2,0,0,0,178,205.2Z"></path><path class="cls-2" d="M145.4,207.5a8.14,8.14,0,0,0,3,1.5c.6,0,.2-.7-.8-1.5a8.14,8.14,0,0,0-3-1.5C144,206,144.4,206.7,145.4,207.5Z"></path><path class="cls-2" d="M108.9,209.1c1.2,1.2,2.5,1.8,2.8,1.5s-.2-1.3-1.3-2.1C107.5,206.3,106.3,206.7,108.9,209.1Z"></path><path class="cls-2" d="M133,208.6c-1.1,1.2-1,1.8.4,3.2,1.6,1.6,1.8,1.6,3.1-.2,1.1-1.4,1.2-2.3.4-3.3C135.4,206.6,134.5,206.7,133,208.6Z"></path><path class="cls-2" d="M151.6,208.5c-2.8,2.9-1.7,7.5,1.9,7.5,4.7,0,5.9-5,1.9-7.7C153.5,207.1,153,207.1,151.6,208.5Z"></path><path class="cls-2" d="M601,208.8c0,1.5,2.8,4.7,3.5,4,1.1-1.1-.5-4.8-2.1-4.8C601.6,208,601,208.4,601,208.8Z"></path><path class="cls-2" d="M114.3,210.2c-2.3,3-2.2,4.8.2,6.4,3,2,6.5.4,6.5-2.9C121,209.6,116.5,207.4,114.3,210.2Z"></path><path class="cls-2" d="M159,210c0,1.2,1.7,1.2,4.5,0,1.7-.7,1.5-.9-1.2-.9C160.5,209,159,209.4,159,210Z"></path><path class="cls-2" d="M124.8,210.7c-3.3.8-1.8,1.9,2.2,1.5,2.2-.2,4-.8,4-1.3C131,210,127.9,209.9,124.8,210.7Z"></path><path class="cls-2" d="M587.8,213.9c-4.7,1.8-6.8,3.1-6.8,4.3,0,2.8,1.1,2.7,9.5-.6,6.3-2.4,8-3.5,7.7-4.9C597.7,210.5,595.9,210.7,587.8,213.9Z"></path><path class="cls-2" d="M131.5,214.1c-.4.6-.5,1.2-.2,1.5s.7-.2,1-1.1C133,212.8,132.4,212.5,131.5,214.1Z"></path><path class="cls-2" d="M144,214c-1.2.8-1.1,1,.7,1a3.85,3.85,0,0,0,2.8-1C148.3,212.7,146,212.7,144,214Z"></path><path class="cls-2" d="M108,215c-1.2.8-1.1,1,.8,1,1.2,0,2.2-.5,2.2-1C111,213.7,109.9,213.7,108,215Z"></path><path class="cls-2" d="M159,215c0,.5,1,1.5,2.3,2.1,2.2,1.2,2.2,1.2.3-1C159.5,213.8,159,213.5,159,215Z"></path><path class="cls-2" d="M96.3,215.7a2.56,2.56,0,0,1,.7,1.9c0,.8.9,1.4,2,1.4s2-.7,2-1.5a1.45,1.45,0,0,0-1.4-1.5,26.6,26.6,0,0,1-2.8-.3C96.1,215.5,95.8,215.5,96.3,215.7Z"></path><path class="cls-2" d="M122,216.9c0,.9,3,2.4,3.6,1.8.2-.1-.6-.8-1.6-1.5S122,216.4,122,216.9Z"></path><path class="cls-2" d="M148.6,218.6c-.9,2.4-.7,2.8.9,1.4s2-3,.6-3C149.6,217,148.9,217.7,148.6,218.6Z"></path><path class="cls-2" d="M111.3,221.5c-.6,1.9-.8,3.5-.3,3.5s1-.8,1.3-1.8a29.11,29.11,0,0,1,1.2-3.5c.4-.9.3-1.7-.2-1.7S111.9,219.6,111.3,221.5Z"></path><path class="cls-2" d="M154.7,220a5.4,5.4,0,0,0,1.6,2.7c.7.4.8,0,.4-1.1a9.72,9.72,0,0,1-.7-2.7.9.9,0,0,0-.9-.9C154.6,218,154.4,218.9,154.7,220Z"></path><path class="cls-2" d="M117.6,219.8a2.51,2.51,0,0,0,.5,2.2c.7,1.2.9,1,.9-.8C119,218.9,118.5,218.4,117.6,219.8Z"></path><path class="cls-2" d="M131.1,221.2c-.1,1.5.4,3,.9,3.3,1.2.7,1.2-1.2,0-4C131.2,218.7,131.1,218.8,131.1,221.2Z"></path><path class="cls-2" d="M137.5,223c-1,1.1-1.3,2-.7,2s1.6-.9,2.2-2,.9-2,.7-2A9.54,9.54,0,0,0,137.5,223Z"></path><path class="cls-2" d="M590.7,225c-2.3,1.8-2.7,2.9-2.7,7.3.1,9.7,5.5,17.7,12,17.7,9.8,0,10.9-13.5,2.1-23.8A8.3,8.3,0,0,0,590.7,225Zm11.5,4.7c1.8,1.6,3.8,7.2,3.8,10.5,0,2.7-4,5.8-7.6,5.8-3.9,0-7-3.4-8-8.6-.7-4,1.1-9.1,3.4-9.7A10.15,10.15,0,0,1,602.2,229.7Z"></path><path class="cls-2" d="M125,224.7c0,.5.9,1.4,2,2.1s2,.8,2,.2-.9-1.4-2-2S125,224.3,125,224.7Z"></path><path class="cls-2" d="M99.5,226c.3.5.8,1,1.1,1s.4-.5.4-1a1,1,0,0,0-1.1-1C99.4,225,99.2,225.4,99.5,226Z"></path><path class="cls-2" d="M107,226a1.1,1.1,0,0,0,1.1,1c.5,0,.7-.5.4-1s-.8-1-1.1-1S107,225.4,107,226Z"></path><path class="cls-2" d="M110.4,227.4c-.9,2.4.4,4.8,2.3,4.4,1.2-.2,1.8-1.2,1.8-2.8C114.5,226.1,111.3,224.9,110.4,227.4Z"></path><path class="cls-2" d="M131.6,227.6c-2.4,2.3-1.9,5.3,1,6.6,2.2,1.1,2.8,1,4-.7,1.7-2.3,1.8-4.7.2-6.3S133.5,225.7,131.6,227.6Z"></path><path class="cls-2" d="M56.5,228.2c-6.2,3.5-10.5,16.2-7.5,21.9,1.5,2.6,6.7,5.1,9.1,4.4,3.5-1.1,7.9-6.6,9.4-11.8,2.2-7.3,1.9-9.9-1.3-13C63.2,226.8,59.8,226.3,56.5,228.2ZM64,233c4.3,4.3,1.2,15.1-4.9,16.5s-9.8-3-8.1-9.6C53.1,232.1,59.6,228.6,64,233Z"></path><path class="cls-2" d="M142.3,227.7c-1.3.2-2.3.8-2.3,1.3,0,1,3.8.1,4.6-1.1.3-.5.4-.8.2-.8A14.85,14.85,0,0,1,142.3,227.7Z"></path><path class="cls-2" d="M99.7,228.6a4.48,4.48,0,0,0-.7,2.6c0,1.4.6,1.9,2.3,1.6a2.24,2.24,0,0,0,2.2-2.3C103.5,228.5,101,227.3,99.7,228.6Z"></path><path class="cls-2" d="M105,230c0,.5.7,1,1.5,1s1.5-.5,1.5-1-.7-1-1.5-1S105,229.4,105,230Z"></path><path class="cls-2" d="M95,232c-.9.6-1,1-.3,1a2.53,2.53,0,0,0,1.8-1C97.3,230.8,96.9,230.8,95,232Z"></path><path class="cls-2" d="M116,231.4c0,.2.7.7,1.6,1s1.2.2.9-.4C117.9,231,116,230.6,116,231.4Z"></path><path class="cls-2" d="M124.5,232c-1.8.8-1.7.9.8.9,1.5.1,2.7-.4,2.7-.9C128,230.8,127.2,230.8,124.5,232Z"></path><path class="cls-2" d="M109.8,233.2a5.46,5.46,0,0,1,1.2,3.5c0,1.3.5,2.3,1,2.3,1.3,0,1.3-1.2,0-4.4-.5-1.4-1.5-2.6-2.2-2.6C108.9,232,108.9,232.3,109.8,233.2Z"></path><path class="cls-2" d="M87.7,233.7a2.14,2.14,0,0,0,.7,3.6,1.51,1.51,0,0,0,2-.8C90.9,235,88.7,232.6,87.7,233.7Z"></path><path class="cls-2" d="M104.8,233.7a2,2,0,0,0,1.9-.1c.4-.3-.2-.6-1.3-.5S104,233.4,104.8,233.7Z"></path><path class="cls-2" d="M118.9,234.8c-2.3,2.7-3.1,4.2-2.2,4.2.5,0,1.7-1.4,2.6-3C121.3,232.6,121.2,232.1,118.9,234.8Z"></path><path class="cls-2" d="M139,233.9c0,.5.7,1.2,1.6,1.5,2.4.9,2.8.7,1.4-.9S139,232.5,139,233.9Z"></path><path class="cls-2" d="M128.1,238.2l-1.1,3.3,2-2.5c2.1-2.7,2.5-4,1.1-4C129.6,235,128.7,236.5,128.1,238.2Z"></path><path class="cls-2" d="M135.2,239.1c.6,1.6,1.3,2.8,1.5,2.5.8-.8-.6-5.6-1.7-5.6C134.5,236,134.5,237.3,135.2,239.1Z"></path><path class="cls-2" d="M105.1,239.6a3.78,3.78,0,0,0,2.6,1.4c2,0,.8-1.6-1.7-2.3C104.3,238.3,104.1,238.4,105.1,239.6Z"></path><path class="cls-2" d="M111.2,241.2a5,5,0,0,0,.5,6.9c2,1.7,1.7,1.8,4.2-.5,3.3-3,2.2-7.6-1.9-7.6A4.42,4.42,0,0,0,111.2,241.2Z"></path><path class="cls-2" d="M97.1,242.6c0,1.1.3,1.4.6.6a2,2,0,0,0-.1-1.9C97.3,240.9,97,241.5,97.1,242.6Z"></path><path class="cls-2" d="M120.6,241.9c-1.1.4-1.5,1-1,1.3s2,0,3.4-.8C125.6,241,123.9,240.6,120.6,241.9Z"></path><path class="cls-2" d="M96.7,245.7c-2.4,2.3,1.2,5.5,3.8,3.3,1.2-1,1.2-1.4,0-2.6C99,244.9,97.7,244.6,96.7,245.7Z"></path><path class="cls-2" d="M104.5,246c-1.8.8-1.7.9.8.9,1.5.1,2.7-.4,2.7-.9C108,244.8,107.2,244.8,104.5,246Z"></path><path class="cls-2" d="M85.6,247.7a3.1,3.1,0,0,0,.8,3.1c1.2,1.3,1.7,1.2,3.6-.1l2.1-1.5-2.3-1.6C87,245.6,86.4,245.6,85.6,247.7Z"></path><path class="cls-2" d="M92.6,248.5c.4.8.8,1.5,1,1.5s.4-.7.4-1.5-.4-1.5-1-1.5S92.3,247.7,92.6,248.5Z"></path><path class="cls-2" d="M119,247.9c0,1,3,2.4,3.7,1.7.3-.2-.5-.9-1.6-1.6S119,247.3,119,247.9Z"></path><path class="cls-2" d="M37.5,255.7c-2.6,11.5-5.3,27.2-4.7,27.8,1.3,1.3,2,.1,2.6-4.8,1.2-8.9,1.6-9.7,4.5-9.7a93.07,93.07,0,0,1,10.4,1.5c9.9,1.9,9.4,1.9,9.9-1s.8-2.7-11.7-5c-4.9-.9-9.2-1.8-9.6-2.1s-.1-2.3.6-4.6c2.5-8.5,2.6-9.8,1.2-9.8C39.8,248,38.7,250.7,37.5,255.7Z"></path><path class="cls-2" d="M108.6,250.6c-1.1,2.8-.6,3.8.9,1.8a6.78,6.78,0,0,0,1.5-2.7C111,248.4,109.2,249,108.6,250.6Z"></path><path class="cls-2" d="M114.7,252c.3,1.1.7,2,.9,2s.4-.9.4-2-.4-2-.9-2S114.4,250.9,114.7,252Z"></path><path class="cls-2" d="M78.2,256c0,2,.4,3,1.4,3,1.7,0,1.8-1.9,0-4.2C78.4,253.2,78.3,253.3,78.2,256Z"></path><path class="cls-2" d="M94.8,257.5c.2,1.4.8,2.5,1.2,2.5,1,0,.1-3.8-1-4.5C94.6,255.3,94.5,256.2,94.8,257.5Z"></path><path class="cls-2" d="M101.6,257.5c-1.8,2.8-2,3.5-.7,3.5.5,0,1.4-1.4,2-3C104.1,254.4,103.8,254.2,101.6,257.5Z"></path><path class="cls-2" d="M602,257.7a64.52,64.52,0,0,0-6.8,1.8,3.93,3.93,0,0,0,.2,2.3c.6,1.7,1.1,1.9,4.4,1.1a36.43,36.43,0,0,1,7.3-.9c3.2,0,3.9.4,5.3,3.5a15.6,15.6,0,0,1,1.4,7.3c-.3,4.1-1.4,4.7-10,5.7-4,.5-4.8,1-4.8,2.7,0,1.9.5,2,7.1,1.6,6.1-.3,7.4-.7,9.1-2.8,2.5-3.1,2-9.9-1.3-15.4-1.6-2.8-1.9-4-1-4.5,1.8-1.2.2-4.1-2.3-4A73.68,73.68,0,0,0,602,257.7Z"></path><path class="cls-2" d="M88.4,260.9c2,2.2,3.6,2.7,3.6,1.3,0-.5-1.2-1.4-2.7-2.1C86.5,258.8,86.5,258.8,88.4,260.9Z"></path><path class="cls-2" d="M93.4,264.5c-1.2,4.7,3.1,7.1,6.7,3.9,2.9-2.6.6-6.4-3.8-6.4C94.7,262,93.8,262.8,93.4,264.5Z"></path><path class="cls-2" d="M77.1,264.6c0,1.1.3,1.4.6.6a2,2,0,0,0-.1-1.9C77.3,262.9,77,263.5,77.1,264.6Z"></path><path class="cls-2" d="M81,264.5c-.7.9-.8,1.5-.2,1.5s1.2-.7,1.6-1.5.4-1.5.2-1.5A6,6,0,0,0,81,264.5Z"></path><path class="cls-2" d="M103,264c0,1.2.8,1.2,3.5,0,1.8-.8,1.7-.9-.7-.9C104.2,263,103,263.4,103,264Z"></path><path class="cls-2" d="M73.5,267c.3.5.8,1,1.1,1s.4-.5.4-1a1,1,0,0,0-1.1-1C73.4,266,73.2,266.4,73.5,267Z"></path><path class="cls-2" d="M89.7,266.6c-.3.4-2.1,1-3.9,1.4-3.3.8-3.3.8,1,.9,3.1.1,4.2-.3,4.2-1.4C91,265.9,90.7,265.7,89.7,266.6Z"></path><path class="cls-2" d="M76.4,268.5a2.59,2.59,0,0,0,.4,2.7c1.5,1.5,4.4.1,4-1.9C80.4,267,77.2,266.4,76.4,268.5Z"></path><path class="cls-2" d="M102.5,269c-.3.5.4,1.4,1.6,2,2.8,1.5,3.3.8.9-1.3C103.9,268.8,102.8,268.5,102.5,269Z"></path><path class="cls-2" d="M92.7,271.7a2.41,2.41,0,0,0-.7,1.7c0,.6.5.5,1.2-.2s.9-1.4.7-1.7A.84.84,0,0,0,92.7,271.7Z"></path><path class="cls-2" d="M98,273.2a6.79,6.79,0,0,0,1,2.8c.8,1.2,1,.9,1-1.3,0-1.5-.4-2.7-1-2.7A1.2,1.2,0,0,0,98,273.2Z"></path><path class="cls-2" d="M80.7,279c.7,4,1,4.6,2,3.7.3-.4-.1-2.2-1-4l-1.6-3.2Z"></path><path class="cls-2" d="M88,280.9c-1.2,2.4-1.3,3.4-.1,2.7.9-.6,2.2-4.6,1.5-4.6C89.2,279,88.6,279.9,88,280.9Z"></path><path class="cls-2" d="M71.9,281.7a18.56,18.56,0,0,1-.4,2.6c-.2,1,.1,1.4.8,1s.8,0,.4,1.3c-.7,1.8-.7,1.8.7.1a3,3,0,0,1,3.8-1.2c2.2.7,2.1.6-.5-1.9C73.9,281,72.1,280.3,71.9,281.7Z"></path><path class="cls-2" d="M80.7,286.8c-2.2,2.4-2.1,2.7.4,5.1,1.7,1.6,2.6,1.8,4.5.9,3.9-1.8,2.6-7.8-1.6-7.8A5.48,5.48,0,0,0,80.7,286.8Z"></path><path class="cls-2" d="M91,287c-1.3.9-1.3,1,0,1a7.11,7.11,0,0,0,3-1c1.3-.9,1.3-1,0-1A7.11,7.11,0,0,0,91,287Z"></path><path class="cls-2" d="M69.6,288.7a7.14,7.14,0,0,0-.6,3.2c0,2.1.2,2.3,1,1.1s1-1.3,1,0a4.36,4.36,0,0,1-1.1,2.7,1.92,1.92,0,0,0,1.5,3.3c.9,0,1.3-1,1.1-2.9-.2-2.6.2-3.1,2.6-3.6,4-.9,3.7-2.6-.3-1.8-2,.4-2.9.3-2.5-.4C73,289.1,70.6,287.8,69.6,288.7Z"></path><path class="cls-2" d="M89,292.9c0,.5.7,1.2,1.6,1.5,2.4.9,2.8.7,1.4-.9S89,291.5,89,292.9Z"></path><path class="cls-2" d="M78.6,295.6c-.9,2.4-.7,2.8.9,1.4s2-3,.6-3C79.6,294,78.9,294.7,78.6,295.6Z"></path><path class="cls-2" d="M84,295.7c.1,1.3,2.9,5.9,3,4.8,0-2.1-1.3-5.5-2.1-5.5A.81.81,0,0,0,84,295.7Z"></path><path class="cls-2" d="M72.3,302.9c.6,1.7,1.5,2.8,1.9,2.5.9-.6-.6-3.9-2.1-4.9C71.6,300.2,71.7,301.3,72.3,302.9Z"></path><path class="cls-2" d="M79.2,304c-.6,1-.8,2.1-.3,2.4s1.1-.4,1.4-1.6C81.1,301.9,80.7,301.6,79.2,304Z"></path><path class="cls-2" d="M64.3,304.7c0,.7.2,1.1.5.8.7-.6,3.2,2.2,3.2,3.6,0,.8.4.8,1.5-.1.9-.7,1.2-1.6.7-1.9a4.46,4.46,0,0,1-1.4-2C68.3,303.3,64.3,302.9,64.3,304.7Z"></path><path class="cls-2" d="M72,308.9c-1.4,2.8-1.3,4.2.8,5.7,2.5,2,4,1.7,5.8-1.1,1.6-2.4,1.6-2.7-.1-4.5C76.2,306.5,73.4,306.4,72,308.9Z"></path><path class="cls-2" d="M82.8,308.7c-1,.2-1.8.9-1.8,1.4,0,1.2,1,1.1,4-.6C87.4,308.1,86.4,307.7,82.8,308.7Z"></path><path class="cls-2" d="M409.4,312c1.5,2.5,4.3,8,6.3,12.3,4.2,9,5.4,9.7,1.9,1.1-3.1-7.5-7.2-14.8-9.3-16.6C407.3,308.1,407.8,309.4,409.4,312Z"></path><path class="cls-2" d="M66.6,313c-1.1.3-1.5.9-1,1.2a4,4,0,0,0,2.8-.2c1.1-.3,1.5-.9,1-1.2A4,4,0,0,0,66.6,313Z"></path><path class="cls-2" d="M80,314.9c0,.5.7,1.2,1.6,1.5,2.4.9,2.8.7,1.4-.9S80,313.5,80,314.9Z"></path><path class="cls-2" d="M63.6,317.5c-1.9,1.4-1.8,1.5,1.2,1.5,2.2,0,3.2-.5,3.2-1.5C68,315.6,66.1,315.6,63.6,317.5Z"></path><path class="cls-2" d="M69.5,319c-.6,2.9-1.9,3.9-2.8,2.2-.2-.4-.2-.2-.1.5a1.66,1.66,0,0,1-.6,1.8c-1.7,1.1-1.1,3.7.8,3.3a2.11,2.11,0,0,0,1.7-1.8c-.1-.8.9-2.9,2.2-4.6,2-2.9,2.1-4.4.2-4.4C70.5,316,69.9,317.3,69.5,319Z"></path><path class="cls-2" d="M76.1,318.2a10.28,10.28,0,0,0,.9,3.3c.7,1.7.9,1.5.9-1.3.1-1.7-.3-3.2-.9-3.2A1,1,0,0,0,76.1,318.2Z"></path><path class="cls-2" d="M341.8,318.7a2,2,0,0,0,1.9-.1c.4-.3-.2-.6-1.3-.5S341,318.4,341.8,318.7Z"></path><path class="cls-2" d="M313.1,324.1c-.1,2,.6,2.9,2.8,3.9,1.7.7,3.6,1,4.3.7s-.3-.9-2.2-1.4c-2.4-.6-3.6-1.7-4.1-3.4l-.7-2.4Z"></path><path class="cls-2" d="M42.5,330.9c-.6,2.7-1.1,3.1-4.1,3.1-4,0-4.4,1.1-.8,3,2.5,1.4,2.6,2.6.7,7.6-.6,1.5-.2,1.5,2.5-.5,3-2.1,3.3-2.1,5.4-.7,3.2,2.2,3.9,2,2.8-1-1.4-3.6-1.3-3.9,1.5-5.4,3.5-1.9,3.1-2.8-1.2-3.2-2.9-.2-3.9-.8-4.1-2.3C44.5,328,43.2,327.7,42.5,330.9Z"></path><path class="cls-2" d="M67,329a1.1,1.1,0,0,0,1.1,1c.5,0,.7-.5.4-1s-.8-1-1.1-1S67,328.4,67,329Z"></path><path class="cls-2" d="M613.6,329.2c-.3,1-.8,2.5-1.1,3.3s-1.6,1.5-3.5,1.5c-3.6,0-3.7.6-.8,3.1,1.9,1.7,2,2.3,1,5.4l-1,3.6,3.1-2c3.2-1.9,3.3-1.9,5.7-.1,3.4,2.6,4.1,2.5,3-.6-1.6-4-1.2-5.1,2.3-7.3l3.2-2.1h-4.6c-4.3,0-4.7-.2-5.6-3.3C614.5,328.2,614.1,327.9,613.6,329.2Z"></path><path class="cls-2" d="M70.7,330.7c-1.3,1.2-.7,2.3,1.3,2.3,1.1,0,2-.7,2-1.5C74,330,71.9,329.4,70.7,330.7Z"></path><path class="cls-2" d="M63.7,334.5a1.51,1.51,0,0,0,2.5,1.7A1.91,1.91,0,0,0,65,333C64.6,333,64,333.7,63.7,334.5Z"></path><path class="cls-2" d="M69.6,341.5c-.9,2.4-.8,2.5,1.3,2.5,1.2,0,1.8-.6,1.7-1.7C72.2,340,70.4,339.5,69.6,341.5Z"></path><path class="cls-2" d="M65.7,351.7c-1.1,1-.8,2,.8,2.7,1,.4,1.5-.1,1.5-1.4C68,351,66.9,350.4,65.7,351.7Z"></path><path class="cls-2" d="M319.3,362.2c3.7,1,5.5,3.8,4.9,7.8-.2,1.1.1,1,.8-.3,2.3-3.7-1.4-8.8-6.3-8.6l-3.2.1Z"></path><path class="cls-2" d="M310.6,363.5a7,7,0,0,0,2.8,1.5c.6,0,.1-.7-1-1.5a7,7,0,0,0-2.8-1.5C309,362,309.5,362.7,310.6,363.5Z"></path><path class="cls-2" d="M331.8,367.8c3.7,1.8,4.8,4.6,3.3,8.6s-1.4,4.8.9,3.6a4.14,4.14,0,0,1,4.3,0c2.1,1.1,2.1,1,.3-.4a6.76,6.76,0,0,0-3.2-1.6c-.8,0-1-1.2-.7-3.8.4-3.4.1-4.2-2.2-6-1.5-1.2-3.5-2.2-4.4-2.1S330,366.9,331.8,367.8Z"></path><path class="cls-2" d="M605,393.7c-1,2.9-1.7,3.3-4.8,3.3l-3.7.1,2.8,2.5c2.6,2.2,2.8,2.7,1.8,5.6-1.4,4-1,4.3,2.2,1.8l2.5-2,3.6,2.1,3.6,2.1-1.5-3.5c-1.5-3.5-1.4-3.6,1.8-6.1l3.2-2.6h-4.1c-3.8,0-4.2-.3-5.1-3.3l-1-3.2Z"></path><path class="cls-2" d="M62.7,432.4c-10.1,3.6-9.9,2.7-4.2,15.2,4.5,9.9,5.7,8.9,1.5-1.2-1.7-4.2-2.8-8-2.3-8.5a10.64,10.64,0,0,1,3.3-1.4c2.2-.5,2.7-.1,4.4,3.7,1,2.4,2.3,5.5,2.8,7s1.4,2.8,1.9,2.8c1.3,0,1.2,0-2.1-7.6-1.7-3.7-2.7-7.1-2.3-7.5,1.5-1.5,6.3-2.2,6.3-.9,0,2,6.2,14.6,6.7,13.4.2-.6-1.2-4.4-3-8.5s-3.6-7.9-3.8-8.5C71.6,429.6,68.6,430.3,62.7,432.4Z"></path><path class="cls-2" d="M587.5,430c-.6,1,4.6,7.8,6.8,8.8,1.7.8.5,2.2-2,2.2-5.1,0-10.3,1.2-10.3,2.4,0,.7,2.7,1,8.5.8l8.5-.3V447c0,1.8.4,2.9,1,2.5s1-1.9,1-3.5c0-2.6-1.1-4.2-11.1-15.3C588.7,429.4,588,429.2,587.5,430Z"></path><path class="cls-2" d="M426,438.7c-1,2.7-9.9,11.3-11.7,11.3-2.1,0-6.3,2.6-6.4,4-.1.8-.1,4.2,0,7.5.2,5-.1,6.5-2.1,9s-2.3,4-2.1,9.2c.3,7.8,1.4,10,5.6,10.8,7,1.3,11.8-3.2,13.6-12.8a103.38,103.38,0,0,1,5.6-16.5c4.9-11.8,5.5-16,2.7-21.2C428.8,435.6,427.2,435.2,426,438.7Z"></path><path class="cls-2" d="M71,455.7c-4.5,1.6-5.5,8.9-1.7,12.7,1.3,1.3,2.1,2.8,1.9,3.4-.8,2.5,2.1,1.9,9.4-2,9.5-5,9-4.6,7.6-6-.9-.9-1.6-.7-3.1.6-2.4,2.2-4.1,1.3-4.1-1.9,0-1.4-1.2-3.4-3.1-4.9C74.8,455,73.8,454.7,71,455.7Zm7.4,4.2c4.4,4.8-1.5,12.2-6.9,8.7-3.2-2.1-4-5.2-2.1-8.1A5.75,5.75,0,0,1,78.4,459.9Z"></path><path class="cls-2" d="M575,460.3a12.19,12.19,0,0,0-4.4,4.8c-2.3,4.2-1.6,8.2,1.7,10.4s8,.3,10.7-4c2.2-3.5,2.7-9.5.9-9.5-.7,0-.9,1.1-.6,3,.5,2.2,0,3.6-1.9,6-2.3,2.7-6.4,4.2-6.4,2.2a54.29,54.29,0,0,1,3-6.5C581.9,459.4,581,457.3,575,460.3Zm1.1,6.9c-3,5.7-4.4,6.4-4.9,2.4-.4-3.2,1.4-6.5,4.1-7.5C578.8,460.7,578.9,461.6,576.1,467.2Z"></path><path class="cls-2" d="M82,475.9c-5.8,3.5-6.1,5.8-1.6,10.6,2,2.1,3.3,4.1,3,4.6-1.2,1.9,2.3.7,6.8-2.4,7.1-4.8,6.2-6.7-1.2-2.5-4.4,2.6-6.5,2-8.7-2.3-1.4-2.8.1-5,4.8-6.9,1.6-.7,2.9-1.9,2.9-2.6C88,472.5,87.2,472.7,82,475.9Z"></path><path class="cls-2" d="M563,477.8c0,1.3,10.8,7.4,12,6.7s-1.8-3.3-6.9-5.8C564.3,476.8,563,476.6,563,477.8Z"></path><path class="cls-2" d="M560.3,484c-2.5,1-6.3,6.5-6.3,9s3.3,5.8,6,6.5c3.7.9,8.9-3.9,9.7-8.9.5-3.1.3-3.8-.8-3.4-.9.3-1.3,1.5-1.1,3.2a6.44,6.44,0,0,1-1.4,4.7c-3.1,3.5-10.4,1.6-10.4-2.7,0-2.9,2.8-6.4,5.1-6.4a1.79,1.79,0,0,0,1.9-1.5c0-.8-.1-1.5-.2-1.4A16.14,16.14,0,0,0,560.3,484Z"></path><path class="cls-2" d="M92,494c-3,3-2.5,7.1,1.3,10.8,1.8,1.8,4.1,3.2,5,3.2,2.9,0,1.9-1.8-1.7-3-6.9-2.3-6.1-11.1,1.1-11,3.9.1,5.8,2.9,6.2,9.4.1.6.6.5,1.2-.1,3-3-3.2-11.3-8.3-11.3A7.69,7.69,0,0,0,92,494Z"></path><path class="cls-2" d="M544.4,503.4c-4,4-4.4,7.6-1.1,10.6,2.6,2.6,8,2.2,10.9-.8s3.4-8.6.9-11.1C552,499,548.4,499.4,544.4,503.4Zm8.8.3c3.8,3.4.7,10.3-4.6,10.3-2.5,0-5.6-3.2-5.6-5.8,0-1.9,4.6-6.2,6.6-6.2A6,6,0,0,1,553.2,503.7Z"></path><path class="cls-2" d="M107.5,507a3.17,3.17,0,0,0,2.4,1c2.2,0,6.1,4,6.1,6.3,0,2.6-2.1,2-6.9-1.8s-6.3-4.2-7.9-2.3c-1.8,2.3,3,9.8,6.3,9.8.8,0,1.5.9,1.5,2s.4,2,.8,2c1.7,0,8.2-7.7,8.2-9.7,0-2.5-6.3-8.3-9.1-8.3C107.8,506,107.2,506.4,107.5,507Zm2.8,8.1c2.5,2.3,1.6,4.9-1.5,4.2-4.4-1.1-7.3-5.4-5.2-7.6C104.4,510.9,107.6,512.6,110.3,515.1Z"></path><path class="cls-2" d="M530.3,512.7c-2.6.5-9.3,7.9-9.3,10.3a4.24,4.24,0,0,0,4.1,4c1,0,4.1-1.6,7.1-3.5,5.9-3.9,8.1-4.1,8.6-.7s-5.2,8.4-9.1,8c-1.8-.2-3.2.2-3.4.9-.3.9.6,1.3,2.8,1.3,6,0,13.6-8.1,11.8-12.8-1.2-3.2-4.9-2.8-11.3,1.3-5.6,3.5-8.6,3.8-8.6.6,0-2.6,5.1-6.9,8.5-7.3,1.7-.2,2.9-.7,2.8-1.3C534.1,512.3,533.2,512.2,530.3,512.7Z"></path><path class="cls-2" d="M126,518.1c0,.6-.9.9-2,.6-1.6-.4-2-.1-1.6,1.1s-.4,2.4-2.3,3.6a19.35,19.35,0,0,0-4.1,3.9c-1,1.7-.8,2.3,1,4.1l2.2,2.1-.6-2.2c-.9-2.9,4.6-8.7,7.4-7.8,1.5.5,1.8.3,1.4-.9a3.26,3.26,0,0,1,.5-3c.6-.7.8-1.6.4-1.9C127.3,516.6,126,516.9,126,518.1Z"></path><path class="cls-2" d="M134,524a1.08,1.08,0,0,0,1,1,1,1,0,0,0,1-1,.94.94,0,0,0-1-1A1,1,0,0,0,134,524Z"></path><path class="cls-2" d="M126.3,530.9c-4,3.7-5.4,6.1-3.5,6.1,1,0,9.2-8.3,9.2-9.3C132,526.3,130.4,527.2,126.3,530.9Z"></path><path class="cls-2" d="M134.7,533.8a7,7,0,0,0-4.4,2.8c-1.5,2.3-1.5,2.8.1,6a9.76,9.76,0,0,0,5.1,4.9c3.6,1.5,5.8,1.2,8.8-1.3C149.3,541.9,142.3,532.8,134.7,533.8Zm5.4,2.2c.5,0,1.6,1.1,2.4,2.4,3.1,4.7-1.6,9.6-7.1,7.6-6.3-2.4-3.9-12.2,2.4-10.4A12.36,12.36,0,0,0,140.1,536Z"></path><path class="cls-2" d="M510.7,536.6c-.3.3.1,2.8.9,5.6s1.3,5.3,1,5.6-2.9-.5-5.6-1.8-5.3-2-5.7-1.7c-.9.9-.8,1,7,4.5,6.8,3.2,7.9,4.8,5.2,7.6-.8.8-1.1,1.7-.6,2s1.6-.3,2.6-1.4c1.5-1.7,1.6-2.6.7-6.7C513.1,536.8,512.4,534.9,510.7,536.6Z"></path><path class="cls-2" d="M147.8,548.9a35.89,35.89,0,0,0-3.8,5.5c0,1.5,2.1.3,5.4-3,2.8-2.8,4-3.4,5.8-2.9,5.1,1.5,5.4,4.8,1.1,9.5-2.6,2.8-2.9,4-.9,4,1.5,0,6.6-7.2,6.6-9.4,0-1.6-4.6-5.6-6.5-5.6a2.54,2.54,0,0,1-1.9-1.5C152.7,543.2,151.8,543.7,147.8,548.9Z"></path><path class="cls-2" d="M492,550.7a13.17,13.17,0,0,0-3.4,3.1c-.7,1.2-1.2,1.1-2.6-.8-.9-1.2-2.2-2.1-2.8-1.9-1,.4,8.7,14.8,10.1,14.9s.7-1.9-1.8-5.6c-2.8-4.2-2.9-4.3-1.2-6.5,3.1-4.1,6.6-3.2,11,3.1,1.1,1.6,2,2.1,2.7,1.4,1.1-1.1-6-9.4-8.2-9.4A9.86,9.86,0,0,0,492,550.7Z"></path><path class="cls-2" d="M475.6,556.8a1.28,1.28,0,0,0,.5,1.7,1.94,1.94,0,0,1,.5,2.1c-.3.8.1,1.4.9,1.4s1.5.4,1.5.9,1.2,2.4,2.6,4.1c2.7,3.1,6.3,3.8,7.1,1.3.3-.7-.3-.9-1.5-.6-2.8.7-7.7-6.4-5.9-8.6,1-1.2.9-1.4-.7-.8a2.42,2.42,0,0,1-3.1-.9C476.7,556.3,476.1,556.1,475.6,556.8Z"></path><path class="cls-2" d="M467.7,559.6c-.9.9,9.4,16.5,10.4,15.8s-.9-4-6.3-12.2C468.7,558.7,468.7,558.7,467.7,559.6Z"></path><path class="cls-2" d="M173.6,564.1c-4.7,3.7-2.4,10.3,4,11.5,2.8.5,3.2.9,2.3,2-2.2,2.7-9.9,1-9.9-2.1,0-1.5-1.8-3-2.6-2.2-1.1,1,1.7,4.7,4.7,6.2,5,2.7,8,1.6,11.7-4,5.5-8.4,5.7-8.9,3.3-8.2-1.4.3-2.2-.1-2.6-1.3-.5-1.7-4.5-4-6.9-4A9.56,9.56,0,0,0,173.6,564.1Zm8.5.9c1.9,1.1,2.5,4.3,1.3,7.4-.8,2.1-6.7,2.1-8.8,0C170.1,568,176.2,561.9,182.1,565Z"></path><path class="cls-2" d="M214,565.7a4.57,4.57,0,0,0,.9,2.1c.7,1.1.9,1.1,1.4-.1a2.49,2.49,0,0,0,0-2.1C215.4,564.8,214,564.9,214,565.7Z"></path><path class="cls-2" d="M196,567a1.08,1.08,0,0,0,1,1,1,1,0,0,0,1-1,.94.94,0,0,0-1-1A1,1,0,0,0,196,567Z"></path><path class="cls-2" d="M218.6,567.8c-1.4,1.3-.4,2.2,2.7,2.2,2.1,0,2.8.3,1.9.9s-.5,1.1,1.9,2c4,1.4,3.9,1.4,3.9-.2C229,571.3,219.5,566.8,218.6,567.8Z"></path><path class="cls-2" d="M458.2,570.3a15.68,15.68,0,0,0-3.8,3.5c-1.4,2-1.4,2.2,0,2.2a1.56,1.56,0,0,0,1.6-1.5c0-1.8,5.6-4.9,7.6-4.1,2.4.9,1.6,2.4-3.2,5.6-3.4,2.4-4.4,3.7-4.2,5.3.4,3.2,4.6,3.3,9.1.2,2.1-1.4,4.4-2.5,5.2-2.5,2,0,1.9-.3-1.7-5.5C465.4,568.7,462.7,567.9,458.2,570.3Zm9.1,5.1c1.3,3.2-5.3,8.7-7.9,6.5-2.1-1.7-1.8-2.4,2.4-5.2C466.2,573.7,466.6,573.6,467.3,575.4Z"></path><path class="cls-2" d="M190.6,575.5c-1.6,3.1-2.6,5.8-2.2,6.2.8.8.7.8,4.5-5.1,2.7-4.4,3.2-6.6,1.3-6.6C193.8,570,192.2,572.5,190.6,575.5Z"></path><path class="cls-2" d="M231,573.6c0,.8.5,1.2,1,.9a1.9,1.9,0,0,0,1-1.6.92.92,0,0,0-1-.9C231.5,572,231,572.7,231,573.6Z"></path><path class="cls-2" d="M199,579.8c0,5.1.4,7.1,1.4,7.5,1.5.6,12.5-7.1,12.6-8.7,0-.5-.7-.3-1.5.4s-1.5.9-1.5.5-1.6.7-3.5,2.4-4,3.1-4.5,3.1-.9-2.5-.8-5.6c.2-3.9-.1-5.8-.9-6.1C199.3,572.9,199,574.7,199,579.8Z"></path><path class="cls-2" d="M234.6,574.6c-.4,1,.4,1.4,2.7,1.4s2.8.3,1.7,1-1,1,.8,1a12.3,12.3,0,0,1,4.3,1c1.4.8,1.9.7,1.9-.3,0-.8-2.4-2.3-5.4-3.4C236.1,573.6,235,573.5,234.6,574.6Z"></path><path class="cls-2" d="M440.5,578.5c-4.5,2.2-5.9,4.9-4.3,8.3a7.79,7.79,0,0,0,8.4,4.4c2.7-.5,9-5.9,8.1-6.9-.4-.3-2,.8-3.6,2.6-3.2,3.4-5.7,3.9-8.7,1.7-2.3-1.7-2.3-1.7,4.9-4.5,3.1-1.3,5.7-2.7,5.7-3.1,0-1.4-3.7-4-5.6-4A14.76,14.76,0,0,0,440.5,578.5Zm7.5,1.9c0,1.2-7.1,4.6-9.8,4.6-1.8,0-1.5-1.7.8-4S448,578.2,448,580.4Z"></path><path class="cls-2" d="M248,579.1c0,.5.5.7,1,.4s1-.8,1-1.1-.4-.4-1-.4A1.1,1.1,0,0,0,248,579.1Z"></path><path class="cls-2" d="M251.5,579.9c-.4.7.6,1.1,2.7,1.1,2.5,0,2.9.3,1.8,1-1.3.8-1.3,1,.2,1a11.45,11.45,0,0,1,3.5.7c1.3.4,1.2.1-.6-1.5a9.81,9.81,0,0,0-3.2-2.2,9.23,9.23,0,0,1-2.2-.6A1.93,1.93,0,0,0,251.5,579.9Z"></path><path class="cls-2" d="M425.5,580.6c2.3,5.6,2,6.1-4.4,8.1s-7.2,1.9-8.5-2.5c-.7-2-2.6-3.2-2.6-1.5,0,.5,1.1,4.2,2.4,8.3,2.7,8.6,5.1,10.8,4.1,3.7-.8-5-.9-4.9,6.2-7l5.3-1.6,1.7,3.9c1.2,2.6,2.2,3.7,3,3.2,1.5-.9-4.4-15.3-6.6-16C425,578.8,424.9,579.2,425.5,580.6Z"></path><path class="cls-2" d="M261.8,582.2a2.72,2.72,0,0,0,2.3.6c.8-.3.3-.7-1-1.1C261.4,581.3,261,581.4,261.8,582.2Z"></path><path class="cls-2" d="M214.7,583.8a6.5,6.5,0,0,0,.6,9.2c2.7,2.3,6.9,3.4,9.8,2.5s1.4-2-2.7-1.6-7.4-2-7.4-5.1c0-2.2-.2-2.2,6,.2a31.36,31.36,0,0,0,6.5,2c1.7,0,2.1-4.5.5-5.5-.5-.3-1,.4-1,1.5,0,1.9-.4,2.1-2.6,1.6a57.41,57.41,0,0,1-5.8-2l-3.1-1.3,2.8-1.3c2.1-1,3.3-1.1,5.2-.2,1.4.6,2.5.8,2.5.3C226,581.5,217,581.3,214.7,583.8Z"></path><path class="cls-2" d="M272.5,586c-.3.5.3,1,1.3,1a40.18,40.18,0,0,1,5.3.5l3.4.5-3-1.4C275.9,584.8,273.4,584.6,272.5,586Z"></path><path class="cls-2" d="M233.6,589.6c-.7,1.7,2.7,5.4,4.9,5.4,1.2,0,4.5,3.1,4.5,4.3,0,.9-5.3.9-7.4.1a2.34,2.34,0,0,1-1.6-1.9,2.34,2.34,0,0,0-1.6-1.9c-1.1-.4-1.5-.1-1.2,1.2.5,2.7,7.5,5.7,10.7,4.6,4.2-1.5,3.8-4-1.3-7.1-2.5-1.5-4.6-3.4-4.6-4,0-2.1,4.8-1.5,7.1.8,1.1,1.1,2.4,1.8,2.7,1.4s-.4-1.5-1.7-2.6C241.1,587.5,234.5,587.3,233.6,589.6Z"></path><path class="cls-2" d="M269,590.7c0,.5,1.5,1.3,3.3,1.8,3.6,1.1,5,4.8,2.2,5.9-2.4.9-9.6-.5-10.2-2a6.05,6.05,0,0,1,.8-3.6c1.2-2.3,1.2-2.3-.9-.4S259,601.8,259,605c0,2.4,13.6,4.8,16.8,3.1a4.43,4.43,0,0,0,.7-7.1c-1.4-1.1-1.3-1.4.5-2.7,2.6-1.8,2.5-3.9-.2-5.7C273.8,590.7,269,589.5,269,590.7Zm.9,9.4c5.2,1.1,7,3.1,4.9,5.6-.9,1.1-2.5,1.4-6,1-6.2-.8-6.6-1-6-4.7C263.3,598.6,263.2,598.6,269.9,600.1Z"></path><path class="cls-2" d="M386.5,595c-2.1.8-5.3,4-4.1,4a11.11,11.11,0,0,0,3.5-2.1c3.2-2.3,7.4-2.2,7.9.2.2,1.1-1.1,2-4.4,3-5.5,1.7-7.4,3.9-5.5,6.3,1.7,2,5.7,2,9.4.1,1.5-.8,3.4-1.2,4.2-.8s1.5-.1,1.5-.8c0-1.6-2.2-7.9-3.3-9.7C394.8,593.9,389.6,593.7,386.5,595Zm8.3,7.2c-.4,2.7-5.5,5.5-7.5,4.2-2.4-1.5-1.9-2.8,1.7-4.6C393.7,599.4,395.2,599.5,394.8,602.2Z"></path><path class="cls-2" d="M305,598a1.93,1.93,0,0,1-1.7,2.1c-1.1,0-1.3.3-.5.6s1.2,2.5,1.2,5.8c0,4.3.4,5.6,1.9,6.5,2.4,1.2,4.1,1.3,4.1.1,0-.5-1-1.1-2.1-1.4-1.7-.5-2-1.1-1.5-2.9a26.32,26.32,0,0,0,.6-5c0-1.7.6-2.8,1.8-3.1,1.6-.4,1.6-.5,0-.6A1.93,1.93,0,0,1,307,598c0-1.1-.4-2-1-2S305,596.9,305,598Z"></path><path class="cls-2" d="M313.9,598.7c-.5,8.9-.3,14.3.6,14.3.6,0,1.1-1.9,1.3-4.2.4-5.2,1.6-6.8,5.2-6.8s5.2,2.1,5,6.2c-.3,4.9-.1,5.8,1,5.8.7,0,1-2.2.8-5.7-.3-5.2-.6-5.9-3.1-7.1a6.75,6.75,0,0,0-5.9-.3c-3,1.1-3,1.1-2.4-1.9.4-2.2.2-3-.9-3C314.6,596,313.9,597.1,313.9,598.7Z"></path><path class="cls-2" d="M343.3,598c-.3,1.1-1,2-1.7,2s-.3.5.7,1.1,1.7,2.2,1.7,4.9c0,5.8.8,7,4.4,6.9,2.8,0,2.9-.1.9-.9s-2.3-1.7-2.3-5.9c0-3,.5-5.1,1.3-5.4s.5-.6-.5-.6A1.93,1.93,0,0,1,346,598c0-1.1-.5-2-1.1-2S343.6,596.9,343.3,598Z"></path><path class="cls-2" d="M284.6,598.9c-1.2,1.9-1.9,12.1-.8,12.1s1.8-1.7,2.7-8.3C287.1,598.4,286.1,596.4,284.6,598.9Z"></path><path class="cls-2" d="M291.5,605.3c-.4,3.2-.5,6.1-.2,6.4,1.1,1.1,2.7-.9,2.7-3.5,0-5.4,1.1-7.2,4.1-7.2,1.6,0,2.9-.4,2.9-1s-2-.9-4.4-.8l-4.5.2Z"></path><path class="cls-2" d="M354,601.2c-5.9,6.3,3.1,14,11.3,9.7,4.3-2.3,5-6.6,1.7-9.9C364.1,598.1,356.8,598.2,354,601.2Zm10.8,0c2,2,1.5,7.6-.7,8.8-2.8,1.4-5.7,1.2-7.5-.6-2.2-2.1-2-7,.2-8.3S363.3,599.7,364.8,601.2Z"></path></g></svg><style>@media (prefers-color-scheme: light) { :root { filter: none; } }
</style></svg>