<?xml version="1.0" standalone="no"?>
<!DOCTYPE svg PUBLIC "-//W3C//DTD SVG 20010904//EN"
 "http://www.w3.org/TR/2001/REC-SVG-20010904/DTD/svg10.dtd">
<svg version="1.0" xmlns="http://www.w3.org/2000/svg"
 width="640.000000pt" height="640.000000pt" viewBox="0 0 640.000000 640.000000"
 preserveAspectRatio="xMidYMid meet">

<g transform="translate(0.000000,640.000000) scale(0.100000,-0.100000)"
fill="#000000" stroke="none">
<path d="M2974 5830 l-61 -60 -76 45 c-54 33 -83 45 -97 40 -19 -6 -17 -10 22
-33 24 -15 54 -33 68 -40 47 -25 58 -38 67 -82 7 -36 13 -46 32 -48 22 -3 22
-2 16 50 l-7 54 74 67 c64 59 70 67 48 67 -18 0 -44 -18 -86 -60z"/>
<path d="M3763 5843 c-7 -2 -13 -14 -13 -25 0 -15 -5 -18 -20 -13 -11 4 -20 2
-20 -4 0 -6 7 -11 16 -11 14 0 15 -10 9 -70 -7 -70 -7 -70 21 -80 15 -6 37 -9
48 -7 19 3 18 5 -8 15 -27 12 -28 14 -21 58 10 69 14 76 41 70 14 -4 24 -2 24
4 0 5 -9 10 -20 10 -16 0 -20 7 -20 30 0 29 -9 35 -37 23z"/>
<path d="M3163 5831 c-72 -18 -93 -48 -77 -108 19 -71 220 -70 252 2 32 69
-73 131 -175 106z m123 -38 c19 -25 17 -67 -3 -86 -32 -28 -114 -26 -143 3
-28 28 -25 64 8 90 22 18 35 21 76 16 29 -3 54 -12 62 -23z"/>
<path d="M3892 5741 c-26 -113 -26 -117 -7 -124 17 -7 20 -3 30 43 13 62 30
80 79 80 27 0 52 -7 64 -17 21 -18 21 -18 2 -76 -16 -51 -16 -59 -3 -64 19 -7
25 1 47 65 17 50 17 54 1 72 -24 26 -78 43 -126 38 -36 -3 -40 -2 -35 17 18
64 18 63 -6 63 -22 0 -26 -8 -46 -97z"/>
<path d="M3415 5769 c-6 -54 -5 -64 13 -81 24 -25 109 -36 141 -19 17 10 25 9
38 -4 22 -23 30 -8 38 80 7 66 6 71 -13 72 -22 2 -32 -21 -32 -74 0 -42 -23
-63 -70 -63 -66 0 -70 4 -70 81 0 61 -2 69 -19 69 -16 0 -20 -10 -26 -61z"/>
<path d="M2483 5735 c-12 -8 -27 -13 -35 -10 -34 12 -37 -10 -11 -83 19 -54
30 -72 44 -72 22 0 23 11 4 65 -8 22 -15 45 -15 52 0 19 30 43 55 43 13 0 27
5 30 10 10 16 -48 12 -72 -5z"/>
<path d="M2206 5666 c-42 -16 -96 -62 -96 -82 0 -98 159 -115 243 -26 31 33
30 67 -3 97 -26 23 -96 28 -144 11z m104 -26 c25 -25 26 -72 2 -93 -28 -26
-97 -33 -127 -13 -22 14 -26 24 -23 54 2 31 9 40 38 54 46 24 85 23 110 -2z"/>
<path d="M4382 5602 c-101 -69 -111 -78 -92 -86 14 -6 26 -6 34 0 66 48 56 47
139 17 70 -25 77 -30 77 -55 0 -37 9 -57 33 -69 19 -11 20 -9 13 72 -7 77 -23
180 -29 185 -1 1 -15 4 -32 7 -25 5 -47 -5 -143 -71z m153 -7 c4 -31 5 -58 2
-61 -5 -6 -127 35 -127 42 0 5 103 73 112 73 4 1 10 -24 13 -54z"/>
<path d="M1910 5616 c-41 -18 -92 -41 -112 -51 -37 -18 -48 -38 -28 -50 5 -3
33 -42 61 -85 45 -69 54 -78 70 -69 24 12 24 12 -7 59 -15 22 -25 42 -23 44
11 10 108 54 132 60 15 3 27 11 27 17 0 15 -35 5 -112 -31 -59 -27 -64 -28
-76 -12 -36 46 -35 51 10 71 115 50 158 70 158 75 0 12 -28 4 -100 -28z"/>
<path d="M3152 5640 c0 -8 4 -26 8 -40 6 -20 8 -21 8 -5 0 11 -3 29 -8 40 -5
12 -8 14 -8 5z"/>
<path d="M2987 5615 c-8 -18 11 -31 25 -17 11 11 3 32 -12 32 -4 0 -10 -7 -13
-15z"/>
<path d="M3543 5614 c-7 -19 2 -28 22 -21 19 8 19 23 0 31 -9 3 -18 -1 -22
-10z"/>
<path d="M2810 5593 c0 -13 5 -23 10 -23 13 0 13 11 0 30 -8 12 -10 11 -10 -7z"/>
<path d="M3220 5595 c-7 -9 -8 -15 -2 -15 5 0 12 7 16 15 3 8 4 15 2 15 -2 0
-9 -7 -16 -15z"/>
<path d="M2872 5580 c-7 -11 -8 -20 -3 -20 9 0 24 30 18 36 -1 2 -8 -6 -15
-16z"/>
<path d="M3387 5594 c-4 -4 -7 -16 -7 -26 0 -13 7 -18 26 -18 21 0 25 4 22 22
-3 23 -27 35 -41 22z"/>
<path d="M3448 5583 c7 -3 16 -2 19 1 4 3 -2 6 -13 5 -11 0 -14 -3 -6 -6z"/>
<path d="M3104 5565 c11 -8 22 -12 25 -9 6 6 -19 24 -34 24 -5 -1 -1 -7 9 -15z"/>
<path d="M2754 5552 c10 -12 23 -19 28 -16 11 7 11 7 -22 24 -25 13 -25 13 -6
-8z"/>
<path d="M3158 5556 c-27 -20 -22 -54 8 -68 23 -11 29 -10 45 10 18 23 16 50
-5 64 -16 11 -29 9 -48 -6z"/>
<path d="M3345 5560 c-19 -8 -19 -9 3 -9 12 -1 22 4 22 9 0 6 -1 10 -2 9 -2 0
-12 -4 -23 -9z"/>
<path d="M3263 5553 c-13 -2 -23 -9 -23 -14 0 -12 2 -12 41 6 33 14 27 17 -18
8z"/>
<path d="M2798 5524 c-11 -23 -10 -29 11 -45 21 -17 26 -18 45 -6 28 19 32 48
10 64 -28 20 -53 15 -66 -13z"/>
<path d="M2908 5533 c-10 -2 -18 -9 -18 -14 0 -12 2 -12 41 6 33 14 18 19 -23
8z"/>
<path d="M2656 5519 c3 -5 0 -9 -5 -9 -6 0 -11 -7 -11 -15 0 -8 7 -15 15 -15
8 0 15 4 15 9 0 5 7 11 15 13 10 2 7 7 -10 15 -14 6 -23 7 -19 2z"/>
<path d="M2981 5514 c0 -11 3 -14 6 -6 3 7 2 16 -1 19 -3 4 -6 -2 -5 -13z"/>
<path d="M3085 5504 c-22 -10 -25 -13 -10 -13 28 1 61 14 49 21 -5 3 -22 -1
-39 -8z"/>
<path d="M2455 5500 c3 -5 8 -10 11 -10 2 0 4 5 4 10 0 6 -5 10 -11 10 -5 0
-7 -4 -4 -10z"/>
<path d="M2484 5485 c-3 -8 4 -27 17 -42 12 -15 20 -21 16 -12 -3 9 -1 21 5
27 14 14 3 42 -17 42 -9 0 -18 -7 -21 -15z"/>
<path d="M2745 5490 c-18 -8 -17 -9 8 -9 15 -1 27 4 27 9 0 12 -8 12 -35 0z"/>
<path d="M3239 5489 c-10 -6 -10 -9 -1 -9 6 0 12 -9 12 -20 0 -24 16 -26 36
-5 9 8 11 15 5 15 -5 0 -16 6 -24 14 -9 9 -19 11 -28 5z"/>
<path d="M4697 5493 c-13 -13 -7 -32 18 -58 14 -14 29 -25 33 -25 14 0 62 -51
62 -65 0 -21 -34 -19 -80 5 -25 13 -40 27 -40 39 0 10 -7 22 -16 25 -23 9 -24
8 -24 -13 0 -58 188 -122 198 -68 4 22 -19 50 -75 89 -46 31 -56 58 -22 58 34
0 90 -31 99 -55 10 -26 40 -41 40 -20 0 48 -160 122 -193 88z"/>
<path d="M2977 5484 c-12 -12 -8 -42 6 -47 21 -8 39 8 35 29 -3 19 -29 30 -41
18z"/>
<path d="M2292 5460 c0 -14 2 -19 5 -12 2 6 2 18 0 25 -3 6 -5 1 -5 -13z"/>
<path d="M2900 5460 c29 -22 46 -25 56 -8 4 7 3 8 -5 4 -6 -4 -23 -1 -36 8
-34 22 -45 19 -15 -4z"/>
<path d="M3125 5444 c-24 -37 -13 -40 14 -4 12 17 17 30 12 30 -5 0 -16 -12
-26 -26z"/>
<path d="M3191 5458 c0 -7 4 -22 9 -33 7 -17 9 -15 9 13 1 17 -3 32 -9 32 -5
0 -10 -6 -9 -12z"/>
<path d="M2571 5440 c0 -14 4 -32 9 -40 8 -12 10 -12 9 5 0 11 -4 29 -9 40 -8
18 -9 18 -9 -5z"/>
<path d="M2781 5433 c-13 -27 -13 -28 8 -9 11 10 18 23 15 27 -8 13 -10 12
-23 -18z"/>
<path d="M2841 5443 c0 -5 4 -17 9 -28 8 -18 9 -17 9 8 1 15 -3 27 -9 27 -5 0
-10 -3 -9 -7z"/>
<path d="M4290 5411 c0 -44 18 -93 55 -147 19 -28 22 -40 14 -50 -15 -18 -40
-18 -65 1 -23 18 -78 19 -107 3 -14 -8 -65 -13 -137 -13 -109 0 -117 -1 -155
-28 -47 -32 -51 -33 -58 -7 -4 16 -14 20 -52 20 -46 0 -46 0 -43 -31 2 -26 -1
-32 -19 -35 -18 -3 -23 1 -23 19 0 15 -9 26 -28 35 -42 18 -139 42 -171 42
-16 0 -55 12 -87 27 -52 24 -71 28 -159 28 -90 0 -108 -3 -179 -32 -43 -18
-80 -33 -81 -33 -2 0 -6 11 -9 25 -4 14 -11 25 -17 25 -6 0 -8 -7 -5 -15 3 -8
9 -22 12 -30 4 -11 -8 -29 -36 -55 -24 -22 -48 -50 -54 -62 -6 -13 -25 -30
-41 -38 -17 -9 -40 -24 -52 -35 -12 -10 -34 -21 -49 -22 -15 -2 -37 -12 -51
-21 -22 -16 -23 -21 -18 -77 9 -86 24 -99 104 -91 54 5 66 3 77 -12 18 -23 17
-42 -1 -42 -8 0 -15 9 -15 20 0 29 -24 35 -55 14 -25 -16 -27 -22 -22 -65 7
-54 -5 -70 -51 -73 -17 -1 -50 -19 -78 -42 -50 -42 -97 -67 -76 -41 17 20 8
52 -17 55 -16 3 -28 17 -41 48 -11 24 -26 47 -35 50 -8 4 -15 18 -15 33 0 37
-55 79 -81 62 -10 -6 -28 -11 -39 -11 -11 0 -20 -4 -20 -10 0 -5 7 -10 16 -10
10 0 14 -7 12 -22 -2 -16 -9 -22 -20 -20 -10 2 -18 -2 -18 -8 0 -5 7 -10 15
-10 8 0 15 -4 15 -8 0 -10 -41 -9 -57 1 -7 5 -21 -1 -33 -13 -25 -25 -33 -25
-25 0 3 11 2 20 -2 20 -14 0 -30 -59 -32 -117 -2 -52 -1 -53 26 -53 16 0 33 4
39 9 5 5 20 11 34 13 19 2 26 11 31 38 4 19 12 36 18 38 6 2 11 12 11 22 0 17
2 17 30 3 30 -14 32 -33 5 -33 -20 0 -46 -53 -34 -71 13 -20 11 -29 -5 -29
-18 0 -29 -27 -15 -36 14 -8 160 16 154 26 -2 4 7 5 20 2 14 -2 25 -8 25 -13
0 -13 -35 -29 -63 -29 -14 0 -30 -7 -37 -15 -7 -9 -29 -15 -52 -15 -37 0 -39
-2 -36 -27 2 -22 10 -29 38 -37 19 -6 40 -17 47 -25 17 -23 13 -78 -7 -103
-17 -21 -19 -21 -104 -8 -58 9 -96 10 -114 4 -26 -9 -27 -14 -35 -99 -15 -178
-16 -168 22 -176 78 -16 78 -69 1 -117 -48 -30 -80 -79 -80 -121 0 -22 -63
-91 -83 -91 -20 0 -81 -69 -107 -121 -12 -23 -34 -59 -50 -81 -36 -50 -46
-104 -26 -143 23 -43 20 -86 -10 -152 -21 -45 -24 -61 -15 -75 6 -9 8 -30 5
-46 -6 -31 18 -72 43 -72 7 0 24 -20 38 -44 14 -24 32 -50 40 -56 8 -7 15 -21
15 -31 0 -10 21 -40 48 -65 66 -65 77 -74 92 -74 8 0 29 -5 47 -12 27 -10 40
-9 71 2 22 9 67 14 112 12 64 -1 87 3 153 30 98 39 143 33 167 -20 14 -30 18
-32 60 -30 25 1 43 0 41 -2 -10 -11 22 -50 40 -50 19 0 20 -4 15 -32 -27 -133
-15 -204 43 -242 21 -14 34 -36 47 -78 9 -33 21 -61 26 -64 4 -3 8 -20 8 -38
0 -19 7 -47 15 -62 20 -39 19 -54 -9 -94 -49 -74 -59 -204 -21 -285 11 -22 22
-42 25 -45 22 -18 60 -137 60 -189 0 -53 21 -112 57 -160 18 -24 33 -49 33
-56 0 -7 7 -18 15 -25 9 -8 15 -30 15 -60 0 -34 5 -52 20 -65 18 -17 26 -17
85 -6 36 6 87 9 114 5 36 -5 56 -2 81 11 46 24 130 87 130 98 0 5 14 23 30 40
98 103 102 109 96 146 -7 47 3 61 56 81 l43 15 5 81 c4 59 12 94 33 134 23 48
34 58 85 83 81 38 97 73 87 192 -5 58 -15 104 -31 140 -29 63 -33 129 -10 176
23 47 228 256 289 294 15 10 27 25 27 34 0 9 10 32 22 51 50 82 98 192 98 225
0 45 -15 51 -75 31 -25 -9 -51 -14 -56 -10 -20 12 -60 -8 -121 -61 -34 -30
-67 -55 -73 -55 -5 1 -24 20 -42 44 -38 52 -471 347 -506 345 -20 -1 -20 -2
-3 -6 11 -3 118 -70 238 -150 245 -163 298 -212 298 -275 0 -101 -68 -122
-158 -48 -42 35 -53 32 -23 -6 30 -38 28 -98 -4 -129 -29 -30 -87 -34 -107 -7
-7 9 -27 28 -43 42 -33 28 -17 3 28 -41 31 -31 34 -51 11 -73 -25 -26 -83 -20
-118 12 -17 15 -23 18 -13 6 21 -26 21 -33 0 -50 -22 -17 -75 -18 -91 -2 -8 8
-15 8 -25 0 -8 -7 -35 -15 -60 -18 -42 -6 -49 -4 -77 25 -18 17 -30 38 -27 45
4 11 0 12 -23 3 -26 -10 -33 -8 -55 13 -14 13 -25 32 -25 42 0 18 -1 18 -26 2
-24 -16 -27 -16 -52 3 -30 22 -40 66 -21 89 9 11 5 11 -17 -2 -59 -34 -111 4
-98 71 7 39 18 43 52 19 13 -9 25 -14 27 -12 2 2 -18 18 -45 36 -46 30 -49 35
-44 65 9 51 62 287 77 342 15 55 10 53 104 40 50 -7 54 -6 100 32 36 30 77 49
165 78 l117 38 118 -22 c65 -12 126 -24 136 -27 12 -4 17 0 17 15 0 12 -4 21
-8 21 -5 0 -25 30 -44 68 -19 37 -45 84 -56 105 -26 45 -26 47 -7 47 8 0 15
-6 15 -14 0 -13 73 -112 124 -168 13 -15 27 -41 31 -57 4 -17 10 -31 13 -32 4
0 16 -2 27 -4 11 -2 35 1 52 7 25 9 36 9 45 0 7 -7 16 -12 22 -12 5 0 1 6 -10
14 -24 18 -23 19 57 55 l64 30 30 -33 c33 -38 100 -160 135 -248 12 -32 27
-58 32 -58 5 0 25 15 43 34 39 40 66 56 95 56 25 0 82 57 99 99 6 14 25 35 41
46 24 16 30 27 30 56 0 34 -5 40 -65 79 -36 23 -65 44 -65 46 0 3 28 2 63 -1
34 -3 115 -7 180 -9 101 -3 120 -6 132 -22 8 -10 15 -22 15 -26 0 -5 5 -8 11
-8 19 0 59 -44 59 -66 0 -32 20 -44 76 -44 51 0 53 -1 52 -27 0 -32 36 -142
64 -191 10 -18 18 -37 18 -43 0 -10 60 -145 93 -209 9 -19 22 -26 49 -28 32
-3 40 2 64 34 19 24 27 46 26 66 -1 17 5 42 14 56 12 18 14 37 10 76 -7 49 -6
52 24 69 17 10 41 34 53 53 12 18 28 34 35 34 7 0 21 14 30 30 15 27 46 47 65
42 4 -1 7 12 7 28 0 34 16 44 91 55 43 6 45 6 61 -28 9 -20 30 -41 45 -49 31
-15 73 -88 73 -128 0 -19 8 -31 26 -41 l27 -14 -7 -155 c-7 -173 -24 -304 -61
-460 -24 -100 -40 -153 -91 -300 -29 -85 -144 -325 -201 -420 -148 -246 -405
-535 -623 -700 -25 -19 -47 -37 -50 -40 -9 -11 -169 -120 -175 -120 -4 0 -30
-15 -58 -34 -209 -136 -271 -168 -451 -236 -421 -157 -866 -209 -1351 -155
-36 4 -44 3 -29 -4 30 -13 253 -31 389 -31 865 0 1660 372 2199 1029 47 58 86
108 86 112 0 4 9 11 20 14 11 3 20 14 20 23 0 21 128 232 141 232 5 0 13 -10
18 -22 5 -13 10 -17 15 -10 4 7 20 5 51 -9 25 -11 54 -17 64 -14 20 6 36 34
25 44 -4 3 -9 0 -11 -6 -6 -18 -36 -16 -78 4 -27 13 -34 21 -30 37 3 12 2 15
-1 9 -7 -15 -44 -17 -44 -3 0 5 18 47 39 92 63 133 144 354 157 428 2 8 12 53
23 100 36 149 51 303 51 509 0 171 -18 401 -35 450 -3 7 -12 48 -21 90 -59
287 -221 639 -419 912 -109 149 -272 324 -410 440 -22 19 -42 36 -45 40 -38
42 -319 231 -445 299 -97 52 -232 120 -239 120 -3 0 -30 11 -60 25 -30 14 -57
25 -60 25 -3 0 -6 -17 -6 -39z m-676 -311 c31 0 56 -4 56 -10 0 -5 -20 -10
-45 -10 -33 0 -45 -4 -45 -15 0 -21 -11 -18 -37 9 -29 30 -31 51 -4 36 11 -5
45 -10 75 -10z m-404 -24 c0 -3 -13 -20 -30 -38 -24 -26 -30 -41 -30 -80 0
-41 10 -61 30 -63 3 0 14 -6 25 -12 19 -12 18 -14 -15 -17 -9 0 -16 -13 -18
-33 -2 -18 -7 -33 -13 -33 -5 0 -9 -9 -9 -19 0 -32 -54 -81 -90 -81 -17 0 -40
-5 -50 -10 -21 -11 -100 -2 -100 11 0 5 12 9 26 9 46 0 91 28 98 62 3 16 19
42 36 58 36 33 40 75 9 83 -35 9 -21 56 24 81 20 12 46 36 57 54 11 17 27 32
35 32 8 0 15 -2 15 -4z m140 -196 c-20 -13 -33 -13 -25 0 3 6 14 10 23 10 15
0 15 -2 2 -10z m395 -517 c-20 -54 -18 -69 15 -83 17 -7 37 -18 44 -24 6 -6
25 -18 41 -26 34 -18 40 -30 23 -52 -14 -19 -57 -13 -133 16 -50 19 -142 20
-175 1 -41 -23 -89 -19 -101 9 -21 44 57 160 100 149 12 -3 21 -13 21 -22 0
-26 21 -41 59 -41 36 0 71 23 71 47 0 7 -8 13 -17 13 -21 0 -6 16 22 23 35 8
37 7 30 -10z m495 -3 l20 -20 -23 0 c-38 0 -60 -32 -50 -70 9 -34 66 -75 114
-82 31 -4 39 -38 10 -38 -12 0 -21 -4 -21 -10 0 -19 25 -65 42 -78 26 -19 22
-50 -7 -64 -21 -9 -33 -8 -73 12 -68 33 -73 39 -61 62 18 34 1 91 -42 136 -21
23 -39 47 -39 53 0 7 -7 17 -17 24 -14 11 -10 17 36 54 59 46 82 50 111 21z
m-1310 -50 c0 -5 -4 -10 -10 -10 -5 0 -10 5 -10 10 0 6 5 10 10 10 6 0 10 -4
10 -10z m60 -39 c0 -14 64 -51 88 -51 18 0 67 -58 57 -69 -7 -6 -115 51 -115
61 0 4 -5 8 -11 8 -14 0 -38 30 -39 48 0 6 5 12 10 12 6 0 10 -4 10 -9z m-170
-28 c5 -22 52 -61 100 -85 61 -29 80 -49 86 -89 4 -23 12 -39 20 -39 23 0 53
37 47 58 -4 15 1 20 25 24 39 6 52 0 52 -22 0 -11 10 -20 25 -24 15 -4 25 -13
25 -25 0 -25 38 -71 59 -71 35 0 68 68 41 85 -16 10 -12 47 8 61 9 7 27 14 40
14 17 0 22 -6 22 -25 0 -14 8 -29 20 -35 12 -6 20 -21 20 -35 0 -34 56 -75
103 -75 20 0 38 4 41 9 4 5 17 4 31 -2 25 -12 34 -27 15 -27 -23 0 -8 -38 19
-50 25 -10 33 -9 55 7 27 19 35 58 14 66 -7 3 -3 6 9 6 27 1 40 -37 24 -67 -6
-10 -12 -36 -14 -56 -6 -48 -28 -70 -67 -67 -39 3 -78 3 -115 0 -55 -3 -140
13 -167 32 -15 10 -33 19 -41 19 -7 0 -18 5 -24 11 -5 5 -32 9 -59 7 -46 -3
-49 -5 -52 -33 -7 -56 -30 -66 -103 -43 -22 6 -39 17 -39 23 0 22 -35 43 -84
51 -67 9 -90 36 -94 105 -2 29 -5 57 -8 61 -8 13 -75 9 -119 -6 -31 -11 -53
-12 -99 -4 -43 8 -65 7 -78 -1 -10 -6 -30 -11 -44 -11 -15 0 -52 -14 -84 -31
-57 -32 -83 -34 -120 -9 -13 9 -13 11 0 20 8 5 31 10 50 10 19 0 53 10 75 23
31 18 41 30 47 62 10 46 30 70 80 96 27 14 37 26 40 46 3 27 5 28 68 31 41 2
70 8 80 18 22 21 63 14 70 -13z m1453 -547 c9 -7 17 -19 17 -27 1 -37 93 -99
147 -99 13 0 23 -5 23 -10 0 -16 -47 -60 -63 -60 -19 0 -37 21 -37 42 0 11 -7
18 -20 18 -11 0 -20 7 -20 15 0 8 -9 15 -20 15 -13 0 -24 10 -30 25 -5 14 -19
35 -30 47 -11 12 -20 28 -20 35 0 17 30 16 53 -1z m-1268 -357 c75 -25 75 -24
45 -132 -30 -105 -70 -286 -70 -313 0 -12 -4 -25 -8 -28 -8 -5 -182 23 -190
30 -5 3 91 327 133 452 6 16 14 15 90 -9z"/>
<path d="M2284 5415 c-8 -19 3 -35 26 -35 19 0 34 25 24 41 -8 14 -44 10 -50
-6z"/>
<path d="M2640 5411 c-6 -12 -7 -21 -1 -21 10 0 24 30 17 37 -2 3 -9 -5 -16
-16z"/>
<path d="M2931 5403 c-1 -18 4 -33 9 -33 12 0 12 17 0 45 -7 17 -9 15 -9 -12z"/>
<path d="M2996 5398 c-3 -13 -6 -27 -6 -33 1 -15 30 27 30 42 0 22 -17 15 -24
-9z"/>
<path d="M3070 5390 c0 -13 7 -20 20 -20 24 0 27 25 4 34 -23 9 -24 8 -24 -14z"/>
<path d="M2510 5393 c0 -13 32 -35 40 -27 5 5 -1 14 -16 21 -13 6 -24 9 -24 6z"/>
<path d="M1574 5371 c-18 -11 -34 -25 -36 -33 -3 -7 -13 -13 -23 -13 -34 0
-26 -23 29 -81 41 -44 57 -56 66 -48 9 9 3 23 -24 59 -20 25 -36 53 -36 60 0
18 28 45 46 45 8 0 14 7 14 15 0 19 1 19 -36 -4z"/>
<path d="M2340 5381 c0 -5 7 -14 15 -21 16 -14 18 -10 9 14 -6 17 -24 22 -24
7z"/>
<path d="M2420 5380 c0 -5 5 -10 10 -10 6 0 10 5 10 10 0 6 -4 10 -10 10 -5 0
-10 -4 -10 -10z"/>
<path d="M2578 5369 c-27 -15 -23 -57 7 -71 19 -8 28 -8 40 2 21 18 19 57 -4
70 -23 12 -22 12 -43 -1z"/>
<path d="M2865 5370 c9 -15 45 -32 45 -22 0 5 -12 14 -26 20 -14 7 -23 8 -19
2z"/>
<path d="M4941 5351 c-9 -16 -2 -28 44 -73 59 -57 70 -88 32 -88 -26 0 -97 55
-97 75 0 8 -9 19 -20 25 -31 17 -26 -13 10 -54 49 -55 137 -88 164 -60 20 20
12 35 -48 94 -51 50 -57 70 -22 70 27 0 86 -44 86 -65 0 -11 20 -25 36 -25 11
0 1 22 -22 50 -52 61 -143 89 -163 51z"/>
<path d="M2113 5345 c-16 -18 -6 -45 17 -45 24 0 33 26 14 45 -18 18 -16 18
-31 0z"/>
<path d="M2321 5344 c0 -11 3 -14 6 -6 3 7 2 16 -1 19 -3 4 -6 -2 -5 -13z"/>
<path d="M2383 5344 c-3 -8 -1 -20 5 -26 16 -16 42 -2 42 22 0 24 -38 28 -47
4z"/>
<path d="M2450 5350 c-8 -5 -10 -10 -5 -10 6 0 17 5 25 10 8 5 11 10 5 10 -5
0 -17 -5 -25 -10z"/>
<path d="M2660 5351 c0 -5 9 -7 20 -4 11 3 20 7 20 9 0 2 -9 4 -20 4 -11 0
-20 -4 -20 -9z"/>
<path d="M2771 5346 c-14 -16 -4 -46 14 -46 19 0 27 17 20 40 -7 23 -18 25
-34 6z"/>
<path d="M2932 5348 c-17 -17 -15 -53 3 -68 13 -11 20 -11 40 0 39 21 28 80
-15 80 -9 0 -21 -5 -28 -12z"/>
<path d="M3035 5341 c-16 -3 -25 -9 -20 -13 10 -6 55 7 55 17 0 3 -1 4 -2 4
-2 -1 -16 -4 -33 -8z"/>
<path d="M2336 5321 c-4 -5 3 -7 14 -4 23 6 26 13 6 13 -8 0 -17 -4 -20 -9z"/>
<path d="M2513 5323 c-21 -8 -15 -22 7 -16 11 3 20 9 20 14 0 10 -8 10 -27 2z"/>
<path d="M2440 5310 c0 -5 5 -10 11 -10 5 0 7 5 4 10 -3 6 -8 10 -11 10 -2 0
-4 -4 -4 -10z"/>
<path d="M2728 5313 c7 -3 16 -2 19 1 4 3 -2 6 -13 5 -11 0 -14 -3 -6 -6z"/>
<path d="M2650 5302 c0 -5 12 -14 28 -21 l27 -13 -22 21 c-24 23 -33 26 -33
13z"/>
<path d="M2831 5294 c17 -16 69 -10 69 8 0 6 -8 7 -17 3 -10 -4 -24 -9 -30
-12 -7 -3 -13 0 -13 6 0 6 -5 11 -12 11 -8 0 -7 -5 3 -16z"/>
<path d="M2410 5273 c0 -11 -5 -24 -11 -30 -7 -7 -7 -13 -1 -17 6 -3 15 7 20
24 7 18 7 32 1 35 -5 4 -9 -2 -9 -12z"/>
<path d="M3006 5281 c-3 -4 6 -13 19 -19 15 -7 25 -8 25 -2 0 13 -38 32 -44
21z"/>
<path d="M2549 5258 c-12 -23 -12 -23 10 -4 23 21 26 26 11 26 -5 0 -15 -10
-21 -22z"/>
<path d="M2613 5249 c8 -21 13 -26 15 -14 5 21 -5 45 -17 45 -5 0 -4 -13 2
-31z"/>
<path d="M1940 5260 c0 -5 5 -10 11 -10 5 0 7 5 4 10 -3 6 -8 10 -11 10 -2 0
-4 -4 -4 -10z"/>
<path d="M2340 5253 c0 -13 5 -23 10 -23 13 0 13 11 0 30 -8 12 -10 11 -10 -7z"/>
<path d="M2906 5241 c-23 -43 -19 -52 5 -13 12 18 19 35 16 38 -3 3 -13 -8
-21 -25z"/>
<path d="M1910 5241 c0 -6 3 -11 8 -11 4 0 12 -10 17 -22 12 -28 34 -30 49 -5
8 14 8 20 -4 27 -8 5 -21 8 -29 5 -7 -3 -20 0 -27 6 -10 8 -14 8 -14 0z"/>
<path d="M2701 5223 c-1 -18 4 -33 9 -33 12 0 12 17 0 45 -7 17 -9 15 -9 -12z"/>
<path d="M1365 5226 c-92 -41 -133 -132 -79 -175 51 -40 134 -15 193 56 30 36
41 73 22 73 -12 0 -32 -26 -25 -33 9 -9 -21 -47 -53 -68 -30 -20 -88 -25 -98
-9 -3 5 29 37 72 70 43 34 79 66 81 71 4 10 -40 29 -66 29 -9 -1 -30 -7 -47
-14z m69 -24 c6 -10 -130 -113 -138 -105 -31 31 40 113 99 113 18 0 36 -4 39
-8z"/>
<path d="M2153 5224 c-4 -11 1 -22 12 -31 16 -11 20 -11 28 3 5 8 6 22 3 30
-7 19 -35 18 -43 -2z"/>
<path d="M2008 5223 c7 -3 16 -2 19 1 4 3 -2 6 -13 5 -11 0 -14 -3 -6 -6z"/>
<path d="M2218 5223 c7 -3 16 -2 19 1 4 3 -2 6 -13 5 -11 0 -14 -3 -6 -6z"/>
<path d="M2280 5221 c0 -11 31 -24 39 -16 3 3 -1 10 -9 15 -19 12 -30 12 -30
1z"/>
<path d="M2770 5210 c-6 -12 -9 -24 -7 -27 3 -2 11 5 17 17 6 12 9 24 7 27 -3
2 -11 -5 -17 -17z"/>
<path d="M2342 5204 c-29 -20 -28 -47 3 -64 22 -12 27 -11 45 5 24 22 25 38 4
59 -19 20 -24 20 -52 0z"/>
<path d="M1900 5200 c-9 -6 -10 -10 -3 -10 6 0 15 5 18 10 8 12 4 12 -15 0z"/>
<path d="M2510 5200 c0 -5 5 -10 11 -10 5 0 7 5 4 10 -3 6 -8 10 -11 10 -2 0
-4 -4 -4 -10z"/>
<path d="M2420 5190 c0 -12 8 -12 35 0 18 8 17 9 -7 9 -16 1 -28 -3 -28 -9z"/>
<path d="M2555 5190 c-3 -5 -1 -10 4 -10 6 0 11 5 11 10 0 6 -2 10 -4 10 -3 0
-8 -4 -11 -10z"/>
<path d="M5147 5189 c-67 -39 -20 -141 86 -187 41 -18 69 -15 100 12 51 44 29
109 -54 162 -41 25 -100 31 -132 13z m161 -56 c17 -24 15 -78 -4 -94 -9 -8
-35 -13 -57 -13 -32 1 -47 8 -69 33 -15 17 -28 39 -28 49 0 27 27 60 53 64 28
5 88 -18 105 -39z"/>
<path d="M2000 5180 c0 -5 5 -10 11 -10 5 0 7 5 4 10 -3 6 -8 10 -11 10 -2 0
-4 -4 -4 -10z"/>
<path d="M2640 5175 c7 -8 20 -15 29 -15 13 1 13 3 -3 15 -26 19 -42 19 -26 0z"/>
<path d="M1926 5163 c-6 -14 -5 -15 5 -6 7 7 10 15 7 18 -3 3 -9 -2 -12 -12z"/>
<path d="M2477 5169 c7 -7 15 -10 18 -7 3 3 -2 9 -12 12 -14 6 -15 5 -6 -5z"/>
<path d="M1965 5160 c3 -5 8 -10 11 -10 2 0 4 5 4 10 0 6 -5 10 -11 10 -5 0
-7 -4 -4 -10z"/>
<path d="M2265 5154 c-26 -13 -27 -14 -5 -10 14 3 31 6 38 6 6 0 12 5 12 10 0
13 -8 12 -45 -6z"/>
<path d="M2511 5151 c-14 -26 12 -50 34 -31 20 16 19 36 -1 44 -22 8 -22 8
-33 -13z"/>
<path d="M2692 5154 c-16 -18 -9 -45 17 -61 25 -16 61 9 61 41 0 36 -52 49
-78 20z"/>
<path d="M1995 5140 c-12 -37 20 -55 45 -25 10 12 10 18 0 30 -17 21 -37 19
-45 -5z"/>
<path d="M2790 5150 c0 -13 20 -13 40 0 12 8 9 10 -12 10 -16 0 -28 -4 -28
-10z"/>
<path d="M2416 5142 c-9 -15 43 -34 62 -22 14 8 13 9 -8 10 -15 0 -31 5 -37
11 -6 6 -13 7 -17 1z"/>
<path d="M1784 5115 c-8 -20 4 -35 27 -35 14 0 19 7 19 25 0 18 -5 25 -20 25
-11 0 -23 -7 -26 -15z"/>
<path d="M2315 5109 c-9 -28 -2 -33 13 -9 6 11 8 21 3 25 -5 3 -13 -4 -16 -16z"/>
<path d="M2371 5108 c0 -7 4 -22 9 -33 7 -17 9 -15 9 13 1 17 -3 32 -9 32 -5
0 -10 -6 -9 -12z"/>
<path d="M2625 5110 c-17 -7 -15 -9 13 -9 17 -1 32 4 32 9 0 12 -17 12 -45 0z"/>
<path d="M2050 5106 c0 -2 7 -7 16 -10 8 -3 12 -2 9 4 -6 10 -25 14 -25 6z"/>
<path d="M2100 5079 c0 -11 4 -18 10 -14 5 3 7 12 3 20 -7 21 -13 19 -13 -6z"/>
<path d="M2160 5081 c-6 -12 -7 -21 -1 -21 10 0 24 30 17 37 -2 3 -9 -5 -16
-16z"/>
<path d="M2541 5084 c0 -11 3 -14 6 -6 3 7 2 16 -1 19 -3 4 -6 -2 -5 -13z"/>
<path d="M2784 5085 c26 -19 42 -19 26 0 -7 8 -20 15 -29 15 -13 -1 -13 -3 3
-15z"/>
<path d="M1847 5079 c7 -7 15 -10 18 -7 3 3 -2 9 -12 12 -14 6 -15 5 -6 -5z"/>
<path d="M2027 5083 c-9 -14 32 -55 46 -46 6 4 2 11 -11 16 -11 5 -22 17 -24
26 -3 11 -6 13 -11 4z"/>
<path d="M2676 5064 c-11 -28 -6 -39 9 -20 8 11 15 23 15 28 0 14 -18 9 -24
-8z"/>
<path d="M1770 5059 c0 -5 5 -7 10 -4 6 3 10 8 10 11 0 2 -4 4 -10 4 -5 0 -10
-5 -10 -11z"/>
<path d="M2294 5045 c3 -17 1 -37 -4 -45 -12 -19 -1 -40 21 -40 25 0 37 30 17
44 -8 6 -20 25 -26 41 l-12 30 4 -30z"/>
<path d="M2740 5049 c7 -11 14 -19 16 -16 7 7 -7 37 -17 37 -6 0 -5 -9 1 -21z"/>
<path d="M1898 5039 c-10 -6 -18 -16 -18 -23 0 -21 32 -29 49 -11 13 13 13 17
1 29 -11 11 -20 12 -32 5z"/>
<path d="M2096 5034 c-9 -8 -16 -21 -16 -28 0 -15 32 -46 48 -46 11 0 42 38
42 52 0 12 -31 38 -45 38 -7 0 -21 -7 -29 -16z"/>
<path d="M2490 5028 c0 -16 5 -28 10 -28 13 0 13 20 0 40 -8 12 -10 9 -10 -12z"/>
<path d="M1109 5013 c-17 -15 -38 -42 -46 -60 l-14 -34 -35 27 c-32 25 -37 26
-50 12 -14 -14 -13 -18 18 -40 156 -114 161 -118 175 -107 19 17 17 21 -32 54
-43 28 -50 40 -46 75 2 19 57 70 75 70 7 0 36 -18 65 -41 47 -38 72 -43 70
-16 0 7 -21 29 -45 50 -55 45 -90 48 -135 10z"/>
<path d="M2198 5033 c-10 -2 -18 -9 -18 -14 0 -12 2 -12 41 6 33 14 18 19 -23
8z"/>
<path d="M2560 5025 c-6 -8 -10 -19 -8 -26 2 -6 9 0 16 15 13 29 10 33 -8 11z"/>
<path d="M1597 5019 c7 -7 15 -10 18 -7 3 3 -2 9 -12 12 -14 6 -15 5 -6 -5z"/>
<path d="M1640 5005 c-16 -19 -5 -47 17 -43 22 4 29 43 9 51 -8 3 -20 -1 -26
-8z"/>
<path d="M1700 5000 c0 -5 5 -10 11 -10 5 0 7 5 4 10 -3 6 -8 10 -11 10 -2 0
-4 -4 -4 -10z"/>
<path d="M1848 5003 c7 -3 16 -2 19 1 4 3 -2 6 -13 5 -11 0 -14 -3 -6 -6z"/>
<path d="M1945 4990 c3 -5 8 -10 11 -10 2 0 4 5 4 10 0 6 -5 10 -11 10 -5 0
-7 -4 -4 -10z"/>
<path d="M2033 4990 c-32 -13 -29 -17 7 -12 17 2 30 8 30 13 0 11 -8 11 -37
-1z"/>
<path d="M2441 4984 c13 -16 29 -19 29 -5 0 5 -9 11 -21 14 -16 4 -18 3 -8 -9z"/>
<path d="M5388 4985 c-32 -18 -42 -45 -34 -89 10 -50 87 -116 136 -116 32 0
19 24 -16 28 -40 5 -94 58 -94 93 0 30 23 59 46 59 8 0 12 5 9 11 -4 5 10 3
32 -6 50 -20 86 -61 79 -89 -4 -15 1 -26 16 -35 20 -12 21 -12 15 22 -8 49
-43 93 -92 117 -49 24 -61 24 -97 5z"/>
<path d="M2490 4972 c-18 -15 -20 -21 -11 -45 11 -29 30 -34 62 -17 23 13 25
43 3 64 -20 20 -27 20 -54 -2z"/>
<path d="M1719 4970 c-3 -20 -4 -25 -12 -36 -9 -15 19 -38 38 -30 21 8 19 37
-4 43 -12 3 -17 11 -14 19 3 8 2 14 -1 14 -3 0 -7 -4 -7 -10z"/>
<path d="M2170 4973 c0 -5 11 -13 25 -20 29 -13 33 -6 8 13 -20 15 -33 18 -33
7z"/>
<path d="M2248 4973 c7 -3 16 -2 19 1 4 3 -2 6 -13 5 -11 0 -14 -3 -6 -6z"/>
<path d="M1685 4961 c-3 -5 -1 -12 5 -16 5 -3 10 1 10 9 0 18 -6 21 -15 7z"/>
<path d="M2356 4957 c3 -10 9 -15 12 -12 3 3 0 11 -7 18 -10 9 -11 8 -5 -6z"/>
<path d="M2570 4960 c0 -12 8 -12 35 0 18 8 17 9 -7 9 -16 1 -28 -3 -28 -9z"/>
<path d="M2071 4934 c-12 -27 -11 -28 4 -12 10 9 16 21 13 28 -2 7 -10 -1 -17
-16z"/>
<path d="M1660 4943 c0 -7 5 -15 11 -19 8 -4 7 -9 -2 -15 -10 -6 -10 -9 -2 -9
19 0 22 14 7 35 -8 10 -14 14 -14 8z"/>
<path d="M2131 4943 c0 -5 4 -17 9 -28 8 -18 9 -17 9 8 1 15 -3 27 -9 27 -5 0
-10 -3 -9 -7z"/>
<path d="M2321 4934 c0 -11 3 -14 6 -6 3 7 2 16 -1 19 -3 4 -6 -2 -5 -13z"/>
<path d="M2425 4924 l-30 -14 30 6 c31 6 41 11 34 18 -2 2 -17 -2 -34 -10z"/>
<path d="M1850 4900 c0 -11 4 -20 9 -20 5 0 7 9 4 20 -3 11 -7 20 -9 20 -2 0
-4 -9 -4 -20z"/>
<path d="M1912 4899 c-7 -12 -11 -24 -7 -27 7 -8 25 17 25 36 0 17 -3 15 -18
-9z"/>
<path d="M2360 4900 c0 -11 7 -20 15 -20 8 0 15 9 15 20 0 11 -7 20 -15 20 -8
0 -15 -9 -15 -20z"/>
<path d="M2566 4911 c-5 -8 43 -35 51 -28 2 2 -8 12 -21 21 -14 8 -27 12 -30
7z"/>
<path d="M1530 4899 c0 -5 5 -7 10 -4 6 3 10 8 10 11 0 2 -4 4 -10 4 -5 0 -10
-5 -10 -11z"/>
<path d="M1785 4875 c16 -13 31 -22 34 -19 7 7 -36 44 -51 44 -7 -1 0 -12 17
-25z"/>
<path d="M2221 4873 c-1 -18 4 -33 9 -33 12 0 12 17 0 45 -7 17 -9 15 -9 -12z"/>
<path d="M1741 4874 c0 -11 3 -14 6 -6 3 7 2 16 -1 19 -3 4 -6 -2 -5 -13z"/>
<path d="M2294 4865 c-9 -14 -14 -28 -11 -31 3 -3 13 8 22 25 19 37 12 41 -11
6z"/>
<path d="M2466 4874 c-10 -25 1 -29 14 -5 6 12 7 21 1 21 -5 0 -12 -7 -15 -16z"/>
<path d="M2520 4881 c0 -5 7 -22 15 -37 15 -29 20 -17 9 24 -6 21 -24 31 -24
13z"/>
<path d="M1490 4865 c-9 -11 -10 -19 -3 -26 17 -17 48 -6 48 16 0 25 -28 31
-45 10z"/>
<path d="M1560 4870 c-9 -6 -10 -10 -3 -10 6 0 15 5 18 10 8 12 4 12 -15 0z"/>
<path d="M1846 4854 c-35 -35 0 -88 43 -65 29 16 33 39 11 61 -24 24 -34 25
-54 4z"/>
<path d="M2030 4860 c0 -5 5 -10 11 -10 5 0 7 5 4 10 -3 6 -8 10 -11 10 -2 0
-4 -4 -4 -10z"/>
<path d="M2075 4859 c-4 -6 -5 -12 -2 -15 2 -3 7 2 10 11 7 17 1 20 -8 4z"/>
<path d="M954 4845 c-7 -17 -40 -20 -49 -5 -9 15 -22 12 -29 -7 -5 -11 -1 -22
9 -30 11 -8 15 -19 10 -33 -6 -19 -5 -20 13 -9 17 10 28 7 77 -24 54 -34 60
-35 85 -22 26 14 46 42 36 53 -3 2 -12 -3 -21 -12 -21 -20 -16 -21 -75 15 -48
29 -61 51 -40 64 6 3 10 10 10 16 0 15 -20 10 -26 -6z"/>
<path d="M1958 4853 c-16 -2 -28 -9 -28 -14 0 -12 17 -12 40 1 13 7 21 7 25 0
3 -5 11 -10 16 -10 6 0 4 7 -5 15 -8 8 -16 14 -18 14 -2 -1 -15 -4 -30 -6z"/>
<path d="M2165 4830 c18 -20 35 -26 35 -12 0 4 -12 12 -26 19 -26 12 -26 12
-9 -7z"/>
<path d="M5686 4841 c-6 -10 22 -37 29 -29 8 7 -5 38 -15 38 -5 0 -11 -4 -14
-9z"/>
<path d="M2031 4821 c-14 -26 12 -50 34 -31 20 16 19 36 -1 44 -22 8 -22 8
-33 -13z"/>
<path d="M1643 4823 c-18 -7 -16 -28 3 -44 14 -11 18 -10 30 6 10 13 11 22 3
32 -12 14 -16 15 -36 6z"/>
<path d="M2090 4820 c0 -5 7 -7 15 -4 8 4 15 8 15 10 0 2 -7 4 -15 4 -8 0 -15
-4 -15 -10z"/>
<path d="M2211 4798 c-11 -31 7 -60 38 -56 54 7 52 70 -3 76 -20 3 -28 -2 -35
-20z"/>
<path d="M1765 4800 l-20 -9 20 0 c11 0 29 4 40 9 l20 9 -20 0 c-11 0 -29 -4
-40 -9z"/>
<path d="M5568 4764 c-43 -30 -65 -51 -61 -60 8 -21 18 -18 94 32 56 37 67 49
58 60 -16 19 -15 19 -91 -32z"/>
<path d="M1267 4793 c-4 -3 -7 -11 -7 -17 0 -6 5 -5 12 2 6 6 9 14 7 17 -3 3
-9 2 -12 -2z"/>
<path d="M1922 4788 c2 -6 15 -15 28 -20 23 -9 23 -8 5 12 -20 22 -39 27 -33
8z"/>
<path d="M1978 4793 c6 -2 18 -2 25 0 6 3 1 5 -13 5 -14 0 -19 -2 -12 -5z"/>
<path d="M2080 4786 c0 -2 7 -7 16 -10 8 -3 12 -2 9 4 -6 10 -25 14 -25 6z"/>
<path d="M1821 4753 c-15 -34 -10 -37 12 -8 9 13 13 26 8 29 -4 3 -13 -6 -20
-21z"/>
<path d="M1881 4758 c0 -7 4 -22 9 -33 7 -17 9 -15 9 13 1 17 -3 32 -9 32 -5
0 -10 -6 -9 -12z"/>
<path d="M2061 4754 c0 -11 3 -14 6 -6 3 7 2 16 -1 19 -3 4 -6 -2 -5 -13z"/>
<path d="M2145 4760 l-20 -9 20 0 c11 0 27 4 35 9 13 9 13 10 0 9 -8 0 -24 -4
-35 -9z"/>
<path d="M1230 4749 c0 -5 5 -7 10 -4 6 3 10 8 10 11 0 2 -4 4 -10 4 -5 0 -10
-5 -10 -11z"/>
<path d="M1581 4743 c-1 -29 9 -54 21 -47 5 4 5 10 0 17 -6 7 -12 21 -15 32
-4 19 -5 19 -6 -2z"/>
<path d="M1663 4748 c3 -9 -1 -22 -9 -28 -15 -14 -19 -30 -6 -30 5 0 15 11 22
25 11 21 11 27 0 38 -10 10 -12 9 -7 -5z"/>
<path d="M1313 4735 c1 -11 -2 -25 -6 -32 -11 -17 3 -43 23 -43 27 0 35 32 12
50 -10 9 -22 22 -25 30 -4 10 -6 8 -4 -5z"/>
<path d="M1153 4663 c-72 -82 -127 -156 -209 -280 -59 -90 -62 -92 -67 -63 -6
26 -19 35 -103 76 -77 36 -98 43 -105 33 -5 -8 -6 -22 -3 -31 3 -10 -3 -21
-14 -27 -27 -14 -52 -72 -52 -119 0 -32 6 -45 26 -61 33 -26 60 -26 102 -1 34
21 71 87 72 127 0 20 2 21 25 11 16 -7 25 -19 25 -35 0 -28 -36 -103 -49 -103
-13 0 -41 -29 -41 -41 0 -6 9 -7 20 -4 28 9 26 -2 -19 -97 -200 -430 -263
-919 -180 -1406 25 -149 25 -144 -12 -140 -31 3 -41 12 -54 53 -6 17 -9 15
-19 -15 -10 -31 -15 -35 -44 -34 -39 2 -41 -8 -7 -30 26 -17 26 -23 7 -76 -5
-12 -1 -12 21 3 33 21 46 21 69 0 24 -22 31 -13 18 23 -10 25 -8 31 11 47 12
10 26 16 32 14 5 -1 17 -34 27 -72 57 -225 179 -493 323 -710 200 -301 440
-540 752 -749 138 -92 400 -234 412 -223 15 16 -17 38 -153 106 -82 40 -163
81 -181 90 -18 9 -67 41 -109 71 -317 227 -589 529 -771 855 -84 151 -138 273
-196 450 -89 270 -123 527 -114 855 7 241 48 491 103 634 8 21 12 41 10 44 -3
3 -2 10 3 16 5 6 20 44 35 83 22 63 51 130 99 233 22 48 119 214 160 274 51
76 155 214 167 221 11 7 53 65 47 65 -3 0 -32 -30 -64 -67z m-418 -297 c42
-18 52 -50 31 -100 -22 -54 -75 -71 -117 -37 -35 28 -30 87 10 123 37 33 32
32 76 14z"/>
<path d="M1437 4724 c-4 -4 -7 -16 -7 -26 0 -13 7 -18 26 -18 21 0 25 4 22 22
-3 23 -27 35 -41 22z"/>
<path d="M1981 4705 c1 -35 14 -71 22 -58 4 6 0 26 -8 44 -9 22 -14 27 -14 14z"/>
<path d="M1375 4700 c-3 -5 -1 -10 4 -10 6 0 11 5 11 10 0 6 -2 10 -4 10 -3 0
-8 -4 -11 -10z"/>
<path d="M843 4679 c-32 -16 -48 -33 -68 -72 -14 -28 -25 -64 -25 -79 0 -33
42 -78 72 -78 78 0 183 138 150 196 -9 16 -10 16 -15 -2 -3 -10 -8 -35 -11
-54 -7 -38 -30 -71 -63 -89 -25 -13 -63 -15 -63 -2 0 9 32 58 87 133 33 45 33
47 14 57 -26 15 -30 14 -78 -10z m36 -51 c-11 -18 -33 -52 -47 -75 -34 -54
-52 -56 -52 -5 0 59 43 111 92 112 l28 0 -21 -32z"/>
<path d="M1524 4686 c11 -9 24 -16 30 -16 12 0 7 5 -24 19 -24 11 -24 11 -6
-3z"/>
<path d="M5680 4694 c0 -11 29 -34 44 -34 19 0 76 -76 76 -102 0 -36 -30 -32
-63 8 -65 78 -86 95 -115 92 -55 -6 -31 -99 38 -148 18 -13 27 -26 23 -35 -6
-18 17 -51 26 -36 4 5 31 22 61 38 64 33 71 53 41 110 -24 45 -47 73 -81 96
-24 17 -50 23 -50 11z m24 -116 c25 -29 45 -57 43 -63 -2 -5 -15 -11 -29 -13
-37 -4 -98 57 -98 98 0 46 31 38 84 -22z"/>
<path d="M1795 4680 c3 -5 8 -10 11 -10 2 0 4 5 4 10 0 6 -5 10 -11 10 -5 0
-7 -4 -4 -10z"/>
<path d="M1835 4680 c-3 -5 -1 -10 4 -10 6 0 11 5 11 10 0 6 -2 10 -4 10 -3 0
-8 -4 -11 -10z"/>
<path d="M2057 4672 c-19 -20 -22 -32 -9 -32 5 0 14 11 20 25 14 30 11 31 -11
7z"/>
<path d="M1580 4666 c-6 -8 -10 -25 -8 -38 2 -18 10 -24 35 -26 28 -3 33 1 39
23 11 45 -37 75 -66 41z"/>
<path d="M1420 4659 c0 -5 5 -7 10 -4 6 3 10 8 10 11 0 2 -4 4 -10 4 -5 0 -10
-5 -10 -11z"/>
<path d="M1688 4663 c-10 -2 -18 -9 -18 -14 0 -6 7 -6 18 -1 9 5 24 12 32 15
13 5 13 5 0 5 -8 0 -23 -2 -32 -5z"/>
<path d="M1787 4641 c-6 -25 0 -31 30 -31 20 0 24 5 21 23 -4 29 -43 36 -51 8z"/>
<path d="M1926 4639 c12 -12 28 -19 35 -17 8 3 -1 12 -21 22 l-35 17 21 -22z"/>
<path d="M1341 4624 c0 -11 3 -14 6 -6 3 7 2 16 -1 19 -3 4 -6 -2 -5 -13z"/>
<path d="M1525 4620 c-19 -8 -19 -9 3 -9 12 -1 22 4 22 9 0 6 -1 10 -2 9 -2 0
-12 -4 -23 -9z"/>
<path d="M1983 4615 c-18 -20 -16 -39 6 -59 15 -14 24 -15 40 -6 21 11 25 21
21 50 -4 30 -46 40 -67 15z"/>
<path d="M2070 4610 c0 -13 30 -13 50 0 11 7 7 10 -17 10 -18 0 -33 -4 -33
-10z"/>
<path d="M1660 4601 c0 -5 7 -12 16 -15 24 -9 28 -7 14 9 -14 17 -30 20 -30 6z"/>
<path d="M1233 4583 c-3 -10 -8 -22 -11 -27 -2 -4 7 0 22 9 14 9 23 21 20 26
-9 15 -24 10 -31 -8z"/>
<path d="M1821 4584 c0 -11 3 -14 6 -6 3 7 2 16 -1 19 -3 4 -6 -2 -5 -13z"/>
<path d="M1555 4558 l-16 -33 21 24 c11 13 20 27 20 32 0 18 -10 8 -25 -23z"/>
<path d="M1620 4563 c0 -12 5 -25 10 -28 13 -8 13 15 0 35 -8 12 -10 11 -10
-7z"/>
<path d="M1920 4570 c-12 -8 -9 -10 13 -10 15 0 27 5 27 10 0 13 -20 13 -40 0z"/>
<path d="M1351 4548 c-1 -16 4 -28 9 -28 12 0 12 8 0 35 -8 18 -9 17 -9 -7z"/>
<path d="M1416 4546 c-8 -14 -12 -27 -7 -30 8 -5 35 43 28 51 -2 2 -12 -8 -21
-21z"/>
<path d="M2060 4550 c0 -5 4 -10 9 -10 5 0 18 -3 28 -6 16 -5 16 -4 -1 10 -23
18 -36 20 -36 6z"/>
<path d="M1741 4525 c-1 -21 15 -52 23 -45 2 3 -2 19 -9 35 -10 23 -14 25 -14
10z"/>
<path d="M1962 4520 c-18 -29 -15 -36 8 -15 20 18 26 35 12 35 -4 0 -13 -9
-20 -20z"/>
<path d="M1270 4526 c0 -10 50 -34 54 -27 3 5 -8 14 -24 20 -17 5 -30 8 -30 7z"/>
<path d="M2021 4523 c0 -5 4 -17 9 -28 8 -18 9 -17 9 8 1 15 -3 27 -9 27 -5 0
-10 -3 -9 -7z"/>
<path d="M1817 4502 c-18 -20 -22 -32 -9 -32 4 0 12 11 19 25 13 30 12 31 -10
7z"/>
<path d="M1154 4495 c-4 -9 -2 -21 4 -27 15 -15 44 -1 40 19 -4 23 -36 29 -44
8z"/>
<path d="M1344 4485 c-16 -24 -15 -27 1 -45 22 -24 51 -22 66 7 10 19 9 26 -6
43 -24 27 -41 25 -61 -5z"/>
<path d="M1455 4491 c-16 -3 -25 -9 -20 -13 6 -3 24 0 40 7 33 15 27 16 -20 6z"/>
<path d="M1554 4475 c-8 -19 3 -35 26 -35 19 0 30 17 23 38 -6 17 -42 15 -49
-3z"/>
<path d="M1693 4463 c9 -9 20 -13 24 -9 4 4 1 11 -7 16 -25 16 -35 11 -17 -7z"/>
<path d="M1210 4460 c0 -5 5 -10 11 -10 5 0 7 5 4 10 -3 6 -8 10 -11 10 -2 0
-4 -4 -4 -10z"/>
<path d="M1747 4452 c-20 -22 -22 -43 -5 -60 18 -18 52 -14 65 8 15 23 8 47
-18 60 -23 13 -23 13 -42 -8z"/>
<path d="M5875 4450 c5 -23 0 -28 -55 -52 -67 -30 -78 -45 -60 -88 15 -36 35
-40 26 -6 -7 28 -3 32 69 63 l50 21 13 -24 c17 -33 25 -30 17 5 -5 24 -2 30
14 36 12 3 21 10 21 14 0 17 -27 30 -48 24 -16 -4 -28 1 -38 13 -13 18 -14 18
-9 -6z"/>
<path d="M1285 4446 c-18 -13 -18 -14 8 -9 15 3 24 9 21 14 -7 12 -7 12 -29
-5z"/>
<path d="M1830 4440 c0 -13 20 -13 40 0 12 8 9 10 -12 10 -16 0 -28 -4 -28
-10z"/>
<path d="M1432 4429 c2 -6 14 -16 27 -20 27 -11 19 6 -11 22 -16 8 -19 8 -16
-2z"/>
<path d="M1540 4419 c0 -5 5 -7 10 -4 6 3 10 8 10 11 0 2 -4 4 -10 4 -5 0 -10
-5 -10 -11z"/>
<path d="M1323 4393 c-3 -10 -8 -22 -11 -27 -3 -5 0 -6 6 -2 18 11 35 46 22
46 -6 0 -13 -8 -17 -17z"/>
<path d="M1385 4400 c-3 -5 -1 -18 4 -27 9 -16 10 -14 11 10 0 28 -5 34 -15
17z"/>
<path d="M1670 4400 c-12 -8 -9 -10 13 -10 15 0 27 5 27 10 0 13 -20 13 -40 0z"/>
<path d="M1510 4372 c0 -18 5 -32 10 -32 6 0 8 11 4 28 -10 39 -14 40 -14 4z"/>
<path d="M1591 4384 c0 -11 3 -14 6 -6 3 7 2 16 -1 19 -3 4 -6 -2 -5 -13z"/>
<path d="M1834 4375 c11 -8 25 -15 30 -15 6 0 2 7 -8 15 -11 8 -25 15 -30 15
-6 0 -2 -7 8 -15z"/>
<path d="M1141 4353 c-1 -18 4 -33 9 -33 12 0 12 17 0 45 -7 17 -9 15 -9 -12z"/>
<path d="M1034 4359 c-3 -6 -1 -16 5 -22 9 -9 14 -8 21 3 9 15 4 30 -10 30 -5
0 -12 -5 -16 -11z"/>
<path d="M1721 4349 c-7 -12 -10 -23 -8 -26 3 -3 11 5 17 17 15 28 8 35 -9 9z"/>
<path d="M1212 4348 c-7 -7 -12 -19 -12 -27 0 -11 5 -8 16 7 18 25 15 39 -4
20z"/>
<path d="M1566 4345 c-3 -8 -1 -15 3 -15 5 0 11 7 15 15 3 8 1 15 -3 15 -5 0
-11 -7 -15 -15z"/>
<path d="M1780 4348 c0 -7 5 -20 10 -28 8 -12 10 -9 10 13 0 15 -4 27 -10 27
-5 0 -10 -6 -10 -12z"/>
<path d="M1454 4325 c11 -8 25 -15 30 -15 6 0 2 7 -8 15 -11 8 -25 15 -30 15
-6 0 -2 -7 8 -15z"/>
<path d="M1089 4309 c12 -12 25 -18 28 -15 4 3 -2 13 -13 21 -29 22 -41 18
-15 -6z"/>
<path d="M1330 4314 c-11 -12 -10 -18 4 -32 16 -16 18 -16 31 2 11 14 12 23 4
33 -15 17 -24 16 -39 -3z"/>
<path d="M1516 4315 c-28 -29 -17 -75 19 -75 47 0 59 50 19 77 -19 12 -24 12
-38 -2z"/>
<path d="M6010 4312 c0 -15 28 -47 35 -40 11 11 -5 48 -21 48 -8 0 -14 -4 -14
-8z"/>
<path d="M1143 4298 c-23 -30 -22 -48 2 -64 30 -20 65 -4 65 29 0 41 -45 63
-67 35z"/>
<path d="M1590 4300 c0 -12 17 -12 45 0 17 7 15 9 -12 9 -18 1 -33 -3 -33 -9z"/>
<path d="M1248 4293 c-33 -8 -18 -19 22 -15 22 2 40 8 40 13 0 9 -31 10 -62 2z"/>
<path d="M5878 4261 c-47 -18 -68 -31 -68 -43 0 -28 11 -27 95 6 63 24 80 35
77 49 -5 22 -23 20 -104 -12z"/>
<path d="M1315 4259 c-4 -6 -5 -12 -2 -15 2 -3 7 2 10 11 7 17 1 20 -8 4z"/>
<path d="M1440 4260 c-12 -8 -11 -10 7 -10 12 0 25 5 28 10 8 13 -15 13 -35 0z"/>
<path d="M1080 4250 c-12 -8 -11 -10 8 -10 12 0 22 5 22 10 0 13 -11 13 -30 0z"/>
<path d="M1590 4250 c0 -5 10 -15 23 -21 22 -12 22 -12 3 10 -21 23 -26 26
-26 11z"/>
<path d="M963 4243 c4 -3 7 -11 7 -19 0 -8 9 -14 20 -14 11 0 20 7 20 15 0 8
-6 15 -14 15 -8 0 -20 2 -28 3 -7 2 -10 2 -5 0z"/>
<path d="M1220 4231 c0 -9 30 -24 36 -18 2 1 -6 8 -16 15 -11 7 -20 8 -20 3z"/>
<path d="M1486 4214 c-9 -24 -7 -28 9 -14 17 14 20 30 6 30 -5 0 -12 -7 -15
-16z"/>
<path d="M1113 4185 c-6 -19 -8 -35 -3 -35 4 0 10 8 13 18 2 9 8 25 12 35 4 9
3 17 -2 17 -5 0 -14 -16 -20 -35z"/>
<path d="M1547 4200 c3 -11 10 -23 16 -27 7 -4 8 0 4 11 -4 10 -7 22 -7 27 0
5 -4 9 -9 9 -5 0 -7 -9 -4 -20z"/>
<path d="M1176 4202 c-2 -4 -1 -14 5 -22 7 -12 9 -10 9 8 0 23 -5 28 -14 14z"/>
<path d="M1311 4188 c-1 -15 4 -30 9 -33 12 -7 12 12 0 40 -8 18 -9 17 -9 -7z"/>
<path d="M1375 4170 c-10 -11 -13 -20 -7 -20 6 0 16 9 22 20 6 11 9 20 7 20
-2 0 -12 -9 -22 -20z"/>
<path d="M5907 4150 c-23 -18 -27 -29 -27 -73 1 -97 55 -177 120 -177 98 0
109 135 21 238 -29 34 -79 39 -114 12z m115 -47 c18 -16 38 -72 38 -105 0 -27
-40 -58 -76 -58 -39 0 -70 34 -80 86 -7 40 11 91 34 97 25 7 65 -2 84 -20z"/>
<path d="M1250 4153 c0 -5 9 -14 20 -21 11 -7 20 -8 20 -2 0 5 -9 14 -20 20
-11 6 -20 7 -20 3z"/>
<path d="M995 4140 c3 -5 8 -10 11 -10 2 0 4 5 4 10 0 6 -5 10 -11 10 -5 0 -7
-4 -4 -10z"/>
<path d="M1070 4140 c0 -5 5 -10 11 -10 5 0 7 5 4 10 -3 6 -8 10 -11 10 -2 0
-4 -4 -4 -10z"/>
<path d="M1104 4126 c-9 -24 4 -48 23 -44 12 2 18 12 18 28 0 29 -32 41 -41
16z"/>
<path d="M1316 4124 c-24 -23 -19 -53 10 -66 22 -11 28 -10 40 7 17 23 18 47
2 63 -16 16 -33 15 -52 -4z"/>
<path d="M565 4118 c-62 -35 -105 -162 -75 -219 15 -26 67 -51 91 -44 35 11
79 66 94 118 22 73 19 99 -13 130 -30 29 -64 34 -97 15z m75 -48 c43 -43 12
-151 -49 -165 -61 -13 -98 30 -81 96 21 78 86 113 130 69z"/>
<path d="M1423 4123 c-13 -2 -23 -8 -23 -13 0 -10 38 -1 46 11 3 5 4 8 2 8 -2
-1 -13 -4 -25 -6z"/>
<path d="M997 4114 c-4 -4 -7 -16 -7 -26 0 -14 6 -19 23 -16 14 2 22 10 22 23
0 20 -25 32 -38 19z"/>
<path d="M1050 4100 c0 -5 7 -10 15 -10 8 0 15 5 15 10 0 6 -7 10 -15 10 -8 0
-15 -4 -15 -10z"/>
<path d="M950 4080 c-9 -6 -10 -10 -3 -10 6 0 15 5 18 10 8 12 4 12 -15 0z"/>
<path d="M1160 4086 c0 -2 7 -7 16 -10 8 -3 12 -2 9 4 -6 10 -25 14 -25 6z"/>
<path d="M1245 4080 c-18 -8 -17 -9 8 -9 15 -1 27 4 27 9 0 12 -8 12 -35 0z"/>
<path d="M1098 4068 c7 -7 12 -22 12 -35 0 -13 5 -23 10 -23 13 0 13 12 0 44
-5 14 -15 26 -22 26 -9 0 -9 -3 0 -12z"/>
<path d="M877 4063 c-12 -11 -8 -31 7 -36 8 -3 17 0 20 8 5 15 -17 39 -27 28z"/>
<path d="M1048 4063 c7 -3 16 -2 19 1 4 3 -2 6 -13 5 -11 0 -14 -3 -6 -6z"/>
<path d="M1189 4052 c-23 -27 -31 -42 -22 -42 5 0 17 14 26 30 20 34 19 39 -4
12z"/>
<path d="M1390 4061 c0 -5 7 -12 16 -15 24 -9 28 -7 14 9 -14 17 -30 20 -30 6z"/>
<path d="M1281 4018 l-11 -33 20 25 c21 27 25 40 11 40 -5 0 -14 -15 -20 -32z"/>
<path d="M1352 4009 c6 -16 13 -28 15 -25 8 8 -6 56 -17 56 -5 0 -5 -13 2 -31z"/>
<path d="M1051 4004 c6 -8 18 -14 26 -14 20 0 8 16 -17 23 -17 4 -19 3 -9 -9z"/>
<path d="M1112 3988 c-17 -17 -15 -53 5 -69 20 -17 17 -18 42 5 33 30 22 76
-19 76 -9 0 -21 -5 -28 -12z"/>
<path d="M971 3974 c0 -11 3 -14 6 -6 3 7 2 16 -1 19 -3 4 -6 -2 -5 -13z"/>
<path d="M1206 3981 c-11 -4 -15 -10 -10 -13 5 -4 20 0 34 8 26 14 9 18 -24 5z"/>
<path d="M967 3943 c-24 -23 12 -55 38 -33 12 10 12 14 0 26 -15 15 -28 18
-38 7z"/>
<path d="M1045 3940 c-18 -8 -17 -9 8 -9 15 -1 27 4 27 9 0 12 -8 12 -35 0z"/>
<path d="M856 3923 c-4 -9 0 -23 8 -31 12 -13 17 -12 36 1 l21 15 -23 16 c-28
20 -34 20 -42 -1z"/>
<path d="M926 3915 c4 -8 8 -15 10 -15 2 0 4 7 4 15 0 8 -4 15 -10 15 -5 0 -7
-7 -4 -15z"/>
<path d="M1190 3921 c0 -10 30 -24 37 -17 3 2 -5 9 -16 16 -12 6 -21 7 -21 1z"/>
<path d="M375 3843 c-26 -115 -53 -272 -47 -278 13 -13 20 -1 26 48 12 89 16
97 45 97 14 0 61 -7 104 -15 99 -19 94 -19 99 10 6 28 8 27 -117 50 -49 9 -92
18 -96 21 -4 2 -1 23 6 46 25 85 26 98 12 98 -9 0 -20 -27 -32 -77z"/>
<path d="M1086 3894 c-11 -28 -6 -38 9 -18 8 10 15 22 15 27 0 13 -18 7 -24
-9z"/>
<path d="M1147 3880 c3 -11 7 -20 9 -20 2 0 4 9 4 20 0 11 -4 20 -9 20 -5 0
-7 -9 -4 -20z"/>
<path d="M782 3840 c0 -20 4 -30 14 -30 17 0 18 19 0 42 -12 16 -13 15 -14
-12z"/>
<path d="M948 3825 c2 -14 8 -25 12 -25 10 0 1 38 -10 45 -4 2 -5 -7 -2 -20z"/>
<path d="M1016 3825 c-18 -28 -20 -35 -7 -35 5 0 14 14 20 30 12 36 9 38 -13
5z"/>
<path d="M6020 3823 c-36 -8 -67 -17 -68 -18 -2 -2 -1 -12 2 -23 6 -17 11 -19
44 -11 20 5 53 9 73 9 32 0 39 -4 53 -35 10 -20 16 -52 14 -73 -3 -41 -14 -47
-100 -57 -40 -5 -48 -10 -48 -27 0 -19 5 -20 71 -16 61 3 74 7 91 28 25 31 20
99 -13 154 -16 28 -19 40 -10 45 18 12 2 41 -23 40 -11 0 -50 -8 -86 -16z"/>
<path d="M884 3791 c20 -22 36 -27 36 -13 0 5 -12 14 -27 21 -28 13 -28 13 -9
-8z"/>
<path d="M934 3755 c-12 -47 31 -71 67 -39 29 26 6 64 -38 64 -16 0 -25 -8
-29 -25z"/>
<path d="M771 3754 c0 -11 3 -14 6 -6 3 7 2 16 -1 19 -3 4 -6 -2 -5 -13z"/>
<path d="M810 3755 c-7 -9 -8 -15 -2 -15 5 0 12 7 16 15 3 8 4 15 2 15 -2 0
-9 -7 -16 -15z"/>
<path d="M1030 3760 c0 -12 8 -12 35 0 18 8 17 9 -7 9 -16 1 -28 -3 -28 -9z"/>
<path d="M735 3730 c3 -5 8 -10 11 -10 2 0 4 5 4 10 0 6 -5 10 -11 10 -5 0 -7
-4 -4 -10z"/>
<path d="M897 3734 c-3 -4 -21 -10 -39 -14 -33 -8 -33 -8 10 -9 31 -1 42 3 42
14 0 16 -3 18 -13 9z"/>
<path d="M764 3715 c-4 -9 -2 -21 4 -27 15 -15 44 -1 40 19 -4 23 -36 29 -44
8z"/>
<path d="M1025 3710 c-3 -5 4 -14 16 -20 28 -15 33 -8 9 13 -11 9 -22 12 -25
7z"/>
<path d="M927 3683 c-4 -3 -7 -11 -7 -17 0 -6 5 -5 12 2 6 6 9 14 7 17 -3 3
-9 2 -12 -2z"/>
<path d="M980 3668 c0 -7 5 -20 10 -28 8 -12 10 -9 10 13 0 15 -4 27 -10 27
-5 0 -10 -6 -10 -12z"/>
<path d="M807 3610 c7 -40 10 -46 20 -37 3 4 -1 22 -10 40 l-16 32 6 -35z"/>
<path d="M880 3591 c-12 -24 -13 -34 -1 -27 9 6 22 46 15 46 -2 0 -8 -9 -14
-19z"/>
<path d="M719 3583 c0 -5 -2 -16 -4 -26 -2 -10 1 -14 8 -10 7 4 8 0 4 -13 -7
-18 -7 -18 7 -1 11 14 21 17 38 12 22 -7 21 -6 -5 19 -28 26 -46 33 -48 19z"/>
<path d="M807 3532 c-22 -24 -21 -27 4 -51 17 -16 26 -18 45 -9 39 18 26 78
-16 78 -9 0 -24 -8 -33 -18z"/>
<path d="M910 3530 c-13 -9 -13 -10 0 -10 8 0 22 5 30 10 13 9 13 10 0 10 -8
0 -22 -5 -30 -10z"/>
<path d="M696 3513 c-3 -4 -6 -18 -6 -32 0 -21 2 -23 10 -11 9 13 10 13 10 0
0 -9 -5 -21 -11 -27 -13 -13 -4 -33 15 -33 9 0 13 10 11 29 -2 26 2 31 26 36
40 9 37 26 -3 18 -20 -4 -29 -3 -25 4 7 12 -17 25 -27 16z"/>
<path d="M890 3471 c0 -5 7 -12 16 -15 24 -9 28 -7 14 9 -14 17 -30 20 -30 6z"/>
<path d="M786 3444 c-9 -24 -7 -28 9 -14 17 14 20 30 6 30 -5 0 -12 -7 -15
-16z"/>
<path d="M840 3443 c1 -13 29 -59 30 -48 0 21 -13 55 -21 55 -5 0 -9 -3 -9 -7z"/>
<path d="M723 3371 c6 -17 15 -28 19 -25 9 6 -6 39 -21 49 -5 3 -4 -8 2 -24z"/>
<path d="M792 3360 c-6 -10 -8 -21 -3 -24 5 -3 11 4 14 16 8 29 4 32 -11 8z"/>
<path d="M643 3353 c0 -7 2 -11 5 -8 7 6 32 -22 32 -36 0 -8 4 -8 15 1 9 7 12
16 7 19 -5 3 -11 12 -14 20 -5 18 -45 22 -45 4z"/>
<path d="M720 3311 c-14 -28 -13 -42 8 -57 25 -20 40 -17 58 11 16 24 16 27
-1 45 -23 25 -51 26 -65 1z"/>
<path d="M828 3313 c-10 -2 -18 -9 -18 -14 0 -12 10 -11 40 6 24 14 14 18 -22
8z"/>
<path d="M4094 3280 c15 -25 43 -80 63 -123 42 -90 54 -97 19 -11 -31 75 -72
148 -93 166 -10 7 -5 -6 11 -32z"/>
<path d="M666 3270 c-11 -3 -15 -9 -10 -12 5 -3 18 -2 28 2 11 3 15 9 10 12
-5 3 -18 2 -28 -2z"/>
<path d="M800 3251 c0 -5 7 -12 16 -15 24 -9 28 -7 14 9 -14 17 -30 20 -30 6z"/>
<path d="M636 3225 c-19 -14 -18 -15 12 -15 22 0 32 5 32 15 0 19 -19 19 -44
0z"/>
<path d="M695 3210 c-6 -29 -19 -39 -28 -22 -2 4 -2 2 -1 -5 2 -7 -1 -15 -6
-18 -17 -11 -11 -37 8 -33 9 2 17 10 17 18 -1 8 9 29 22 46 20 29 21 44 2 44
-4 0 -10 -13 -14 -30z"/>
<path d="M761 3218 c0 -7 4 -22 9 -33 7 -17 9 -15 9 13 1 17 -3 32 -9 32 -5 0
-10 -6 -9 -12z"/>
<path d="M3418 3213 c7 -3 16 -2 19 1 4 3 -2 6 -13 5 -11 0 -14 -3 -6 -6z"/>
<path d="M3131 3159 c-1 -20 6 -29 28 -39 17 -7 36 -10 43 -7 7 2 -3 9 -22 14
-24 6 -36 17 -41 34 l-7 24 -1 -26z"/>
<path d="M425 3091 c-6 -27 -11 -31 -41 -31 -40 0 -44 -11 -8 -30 25 -14 26
-26 7 -76 -6 -15 -2 -15 25 5 30 21 33 21 54 7 32 -22 39 -20 28 10 -14 36
-13 39 15 54 35 19 31 28 -12 32 -29 2 -39 8 -41 23 -7 35 -20 38 -27 6z"/>
<path d="M670 3110 c0 -5 5 -10 11 -10 5 0 7 5 4 10 -3 6 -8 10 -11 10 -2 0
-4 -4 -4 -10z"/>
<path d="M6136 3108 c-3 -10 -8 -25 -11 -33 -2 -9 -16 -15 -35 -15 -36 0 -37
-6 -8 -31 19 -17 20 -23 10 -54 l-10 -36 31 20 c32 19 33 19 57 1 34 -26 41
-25 30 6 -16 40 -12 51 23 73 l32 21 -46 0 c-43 0 -47 2 -56 33 -8 25 -12 28
-17 15z"/>
<path d="M707 3093 c-13 -12 -7 -23 13 -23 11 0 20 7 20 15 0 15 -21 21 -33 8z"/>
<path d="M637 3055 c-8 -18 11 -31 25 -17 11 11 3 32 -12 32 -4 0 -10 -7 -13
-15z"/>
<path d="M696 2985 c-9 -24 -8 -25 13 -25 12 0 18 6 17 17 -4 23 -22 28 -30 8z"/>
<path d="M657 2883 c-11 -10 -8 -20 8 -27 10 -4 15 1 15 14 0 20 -11 26 -23
13z"/>
<path d="M3193 2778 c37 -10 55 -38 49 -78 -2 -11 1 -10 8 3 23 37 -14 88 -63
86 l-32 -1 38 -10z"/>
<path d="M3106 2765 c10 -8 23 -15 28 -15 6 0 1 7 -10 15 -10 8 -23 15 -28 15
-6 0 -1 -7 10 -15z"/>
<path d="M3318 2722 c37 -18 48 -46 33 -86 -16 -40 -14 -48 9 -36 14 8 26 8
43 0 21 -11 21 -10 3 4 -11 9 -25 16 -32 16 -8 0 -10 12 -7 38 4 34 1 42 -22
60 -15 12 -35 22 -44 21 -9 0 -1 -8 17 -17z"/>
<path d="M6050 2463 c-10 -29 -17 -33 -48 -33 l-37 -1 28 -25 c26 -22 28 -27
18 -56 -14 -40 -10 -43 22 -18 l25 20 36 -21 36 -21 -15 35 c-15 35 -14 36 18
61 l32 26 -41 0 c-38 0 -42 3 -51 33 l-10 32 -13 -32z"/>
<path d="M627 2076 c-101 -36 -99 -27 -42 -152 45 -99 57 -89 15 12 -17 42
-28 80 -23 85 4 4 19 10 33 14 22 5 27 1 44 -37 10 -24 23 -55 28 -70 6 -16
14 -28 19 -28 13 0 12 0 -21 76 -17 37 -27 71 -23 75 15 15 63 22 63 9 0 -20
62 -146 67 -134 2 6 -12 44 -30 85 -19 41 -36 79 -38 85 -3 8 -33 1 -92 -20z"/>
<path d="M5875 2100 c-6 -10 46 -78 68 -88 17 -8 5 -22 -20 -22 -51 0 -103
-12 -103 -24 0 -7 27 -10 85 -8 l85 3 0 -31 c0 -18 4 -29 10 -25 6 3 10 19 10
35 0 26 -11 42 -111 153 -12 13 -19 15 -24 7z"/>
<path d="M4260 2013 c-10 -27 -99 -113 -117 -113 -21 0 -63 -26 -64 -40 -1 -8
-1 -42 0 -75 2 -50 -1 -65 -21 -90 -19 -25 -23 -40 -21 -92 3 -78 14 -100 56
-108 70 -13 118 32 136 128 6 32 31 107 56 165 49 118 55 160 27 212 -24 44
-40 48 -52 13z"/>
<path d="M710 1843 c-45 -16 -55 -89 -17 -127 13 -13 21 -28 19 -34 -8 -25 21
-19 94 20 95 50 90 46 76 60 -9 9 -16 7 -31 -6 -24 -22 -41 -13 -41 19 0 14
-12 34 -31 49 -31 26 -41 29 -69 19z m74 -42 c44 -48 -15 -122 -69 -87 -32 21
-40 52 -21 81 20 31 65 33 90 6z"/>
<path d="M5750 1797 c-14 -7 -34 -28 -44 -48 -23 -42 -16 -82 17 -104 33 -21
80 -3 107 40 22 35 27 95 9 95 -7 0 -9 -11 -6 -30 5 -22 0 -36 -19 -60 -23
-27 -64 -42 -64 -22 0 4 14 33 30 65 39 73 30 94 -30 64z m11 -69 c-30 -57
-44 -64 -49 -24 -4 32 14 65 41 75 35 14 36 5 8 -51z"/>
<path d="M820 1641 c-58 -35 -61 -58 -16 -106 20 -21 33 -41 30 -46 -12 -19
23 -7 68 24 71 48 62 67 -12 25 -44 -26 -65 -20 -87 23 -14 28 1 50 48 69 16
7 29 19 29 26 0 19 -8 17 -60 -15z"/>
<path d="M5630 1622 c0 -13 108 -74 120 -67 12 8 -18 33 -69 58 -38 19 -51 21
-51 9z"/>
<path d="M5603 1560 c-25 -10 -63 -65 -63 -90 1 -24 33 -58 60 -65 37 -9 89
39 97 89 5 31 3 38 -8 34 -9 -3 -13 -15 -11 -32 2 -16 -4 -36 -14 -47 -31 -35
-104 -16 -104 27 0 29 28 64 51 64 10 0 19 7 19 15 0 8 -1 15 -2 14 -2 0 -13
-4 -25 -9z"/>
<path d="M920 1460 c-30 -30 -25 -71 13 -108 18 -18 41 -32 50 -32 29 0 19 18
-17 30 -69 23 -61 111 11 110 39 -1 58 -29 62 -94 1 -6 6 -5 12 1 30 30 -32
113 -83 113 -16 0 -37 -9 -48 -20z"/>
<path d="M5444 1366 c-40 -40 -44 -76 -11 -106 26 -26 80 -22 109 8 30 29 34
86 9 111 -31 31 -67 27 -107 -13z m88 -3 c38 -34 7 -103 -46 -103 -25 0 -56
32 -56 58 0 19 46 62 66 62 10 0 26 -7 36 -17z"/>
<path d="M1075 1330 c3 -5 14 -10 24 -10 22 0 61 -40 61 -63 0 -26 -21 -20
-69 18 -47 38 -63 42 -79 23 -18 -23 30 -98 63 -98 8 0 15 -9 15 -20 0 -11 4
-20 8 -20 17 0 82 77 82 97 0 25 -63 83 -91 83 -11 0 -17 -4 -14 -10z m28 -81
c25 -23 16 -49 -15 -42 -44 11 -73 54 -52 76 8 8 40 -9 67 -34z"/>
<path d="M5303 1273 c-26 -5 -93 -79 -93 -103 0 -21 20 -40 41 -40 10 0 41 16
71 35 59 39 81 41 86 7 5 -34 -52 -84 -91 -80 -18 2 -32 -2 -34 -9 -3 -9 6
-13 28 -13 60 0 136 81 118 128 -12 32 -49 28 -113 -13 -56 -35 -86 -38 -86
-6 0 26 51 69 85 73 17 2 29 7 28 13 -2 12 -11 13 -40 8z"/>
<path d="M1260 1219 c0 -6 -9 -9 -20 -6 -16 4 -20 1 -16 -11 4 -11 -4 -24 -23
-36 -15 -11 -34 -28 -41 -39 -10 -17 -8 -23 10 -41 l22 -21 -6 22 c-9 29 46
87 74 78 15 -5 18 -3 14 9 -4 9 -1 22 5 30 6 7 8 16 4 19 -10 11 -23 8 -23 -4z"/>
<path d="M1340 1160 c0 -5 5 -10 10 -10 6 0 10 5 10 10 0 6 -4 10 -10 10 -5 0
-10 -4 -10 -10z"/>
<path d="M1263 1091 c-40 -37 -54 -61 -35 -61 10 0 92 83 92 93 0 14 -16 5
-57 -32z"/>
<path d="M1347 1062 c-16 -2 -34 -14 -44 -28 -15 -23 -15 -28 1 -60 10 -22 29
-40 51 -49 36 -15 58 -12 88 13 50 43 -20 134 -96 124z m54 -22 c5 0 16 -11
24 -24 31 -47 -16 -96 -71 -76 -63 24 -39 122 24 104 8 -2 18 -4 23 -4z"/>
<path d="M5107 1034 c-3 -3 1 -28 9 -56 9 -27 13 -53 10 -56 -3 -3 -29 5 -56
18 -27 13 -53 20 -57 17 -9 -9 -8 -10 70 -45 68 -32 79 -48 52 -76 -8 -8 -11
-17 -6 -20 4 -3 16 3 26 14 15 17 16 26 7 67 -31 135 -38 154 -55 137z"/>
<path d="M1478 911 c-21 -27 -38 -52 -38 -55 0 -15 21 -3 54 30 28 28 40 34
58 29 51 -15 54 -48 11 -95 -26 -28 -29 -40 -9 -40 15 0 66 72 66 94 0 16 -46
56 -65 56 -7 0 -15 7 -19 15 -9 23 -18 18 -58 -34z"/>
<path d="M4920 893 c-14 -9 -29 -23 -34 -31 -7 -12 -12 -11 -26 8 -9 12 -22
21 -28 19 -10 -4 87 -148 101 -149 13 0 7 19 -18 56 -28 42 -29 43 -12 65 31
41 66 32 110 -31 11 -16 20 -21 27 -14 11 11 -60 94 -82 94 -7 0 -25 -8 -38
-17z"/>
<path d="M4756 832 c-3 -6 -1 -14 5 -17 5 -4 8 -13 5 -21 -3 -8 1 -14 9 -14 8
0 15 -4 15 -9 0 -5 12 -24 26 -41 27 -31 63 -38 71 -13 3 7 -3 9 -15 6 -28 -7
-77 64 -59 86 10 12 9 14 -7 8 -12 -5 -23 -2 -31 9 -8 11 -14 13 -19 6z"/>
<path d="M4677 804 c-9 -9 94 -165 104 -158 10 6 -9 40 -63 122 -31 45 -31 45
-41 36z"/>
<path d="M1736 759 c-47 -37 -24 -103 40 -115 28 -5 32 -9 23 -20 -22 -27 -99
-10 -99 21 0 15 -18 30 -26 22 -11 -10 17 -47 47 -62 50 -27 80 -16 117 40 55
84 57 89 33 82 -14 -3 -22 1 -26 13 -5 17 -45 40 -69 40 -7 0 -25 -9 -40 -21z
m85 -9 c19 -11 25 -43 13 -74 -8 -21 -67 -21 -88 0 -45 44 16 105 75 74z"/>
<path d="M2140 743 c0 -5 4 -14 9 -21 7 -11 9 -11 14 1 3 8 3 18 0 21 -9 8
-23 7 -23 -1z"/>
<path d="M1960 730 c0 -5 5 -10 10 -10 6 0 10 5 10 10 0 6 -4 10 -10 10 -5 0
-10 -4 -10 -10z"/>
<path d="M2186 722 c-14 -13 -4 -22 27 -22 21 0 28 -3 19 -9 -10 -6 -5 -11 19
-20 40 -14 39 -14 39 2 0 14 -95 59 -104 49z"/>
<path d="M4582 697 c-12 -7 -29 -23 -38 -35 -14 -20 -14 -22 0 -22 9 0 16 7
16 15 0 18 56 49 76 41 24 -9 16 -24 -32 -56 -34 -24 -44 -37 -42 -53 4 -32
46 -33 91 -2 21 14 44 25 52 25 20 0 19 3 -17 55 -34 48 -61 56 -106 32z m91
-51 c13 -32 -53 -87 -79 -65 -21 17 -18 24 24 52 44 30 48 31 55 13z"/>
<path d="M1906 645 c-16 -31 -26 -58 -22 -62 8 -8 7 -8 45 51 27 44 32 66 13
66 -4 0 -20 -25 -36 -55z"/>
<path d="M2310 664 c0 -8 5 -12 10 -9 6 3 10 10 10 16 0 5 -4 9 -10 9 -5 0
-10 -7 -10 -16z"/>
<path d="M1990 602 c0 -51 4 -71 14 -75 15 -6 125 71 126 87 0 5 -7 3 -15 -4
-8 -7 -15 -9 -15 -5 0 4 -16 -7 -35 -24 -20 -17 -40 -31 -45 -31 -6 0 -9 25
-8 56 2 39 -1 58 -9 61 -10 4 -13 -14 -13 -65z"/>
<path d="M2346 654 c-4 -10 4 -14 27 -14 24 0 28 -3 17 -10 -12 -8 -10 -10 8
-10 13 0 32 -5 43 -10 14 -8 19 -7 19 3 0 8 -24 23 -54 34 -45 17 -56 18 -60
7z"/>
<path d="M4405 615 c-45 -22 -59 -49 -43 -83 16 -32 50 -51 84 -44 27 5 90 59
81 69 -4 3 -20 -8 -36 -26 -32 -34 -57 -39 -87 -17 -23 17 -23 17 49 45 31 13
57 27 57 31 0 14 -37 40 -56 40 -10 0 -33 -7 -49 -15z m75 -19 c0 -12 -71 -46
-98 -46 -18 0 -15 17 8 40 23 23 90 28 90 6z"/>
<path d="M2480 609 c0 -5 5 -7 10 -4 6 3 10 8 10 11 0 2 -4 4 -10 4 -5 0 -10
-5 -10 -11z"/>
<path d="M2515 601 c-4 -7 6 -11 27 -11 25 0 29 -3 18 -10 -13 -8 -13 -10 2
-10 9 0 25 -3 35 -7 13 -4 12 -1 -6 15 -13 12 -28 22 -32 22 -4 0 -14 3 -22 6
-8 3 -18 1 -22 -5z"/>
<path d="M4255 594 c23 -56 20 -61 -44 -81 -65 -21 -72 -19 -85 25 -7 20 -26
32 -26 15 0 -5 11 -42 24 -83 27 -86 51 -108 41 -37 -8 50 -9 49 62 70 l53 16
17 -39 c12 -26 22 -37 30 -32 15 9 -44 153 -66 160 -11 4 -12 0 -6 -14z"/>
<path d="M2618 578 c5 -5 16 -8 23 -6 8 3 3 7 -10 11 -17 4 -21 3 -13 -5z"/>
<path d="M2147 562 c-24 -26 -21 -70 6 -92 27 -23 69 -34 98 -25 30 10 14 20
-27 16 -40 -3 -74 20 -74 51 0 22 -2 22 60 -2 28 -11 57 -20 65 -20 17 0 21
45 5 55 -5 3 -10 -4 -10 -15 0 -19 -4 -21 -26 -16 -15 4 -41 13 -58 20 l-31
13 28 13 c21 10 33 11 52 2 14 -6 25 -8 25 -3 0 26 -90 28 -113 3z"/>
<path d="M2725 540 c-3 -5 3 -10 13 -10 11 0 35 -2 53 -5 l34 -5 -30 14 c-36
18 -61 20 -70 6z"/>
<path d="M2336 504 c-7 -17 27 -54 49 -54 12 0 45 -31 45 -43 0 -9 -53 -9 -74
-1 -9 3 -16 12 -16 19 0 7 -7 16 -16 19 -11 4 -15 1 -12 -12 5 -27 75 -57 107
-46 42 15 38 40 -13 71 -25 15 -46 34 -46 40 0 21 48 15 71 -8 11 -11 24 -18
27 -14 4 4 -4 15 -17 26 -30 24 -96 26 -105 3z"/>
<path d="M2690 493 c0 -5 15 -13 33 -18 36 -11 50 -48 22 -59 -24 -9 -96 5
-102 20 -2 7 1 23 8 36 12 23 12 23 -9 4 -21 -18 -52 -94 -52 -126 0 -24 136
-48 168 -31 26 14 29 53 7 71 -14 11 -13 14 5 27 26 18 25 39 -2 57 -30 19
-78 31 -78 19z m9 -94 c52 -11 70 -31 49 -56 -9 -11 -25 -14 -60 -10 -62 8
-66 10 -60 47 5 34 4 34 71 19z"/>
<path d="M3865 450 c-21 -8 -53 -40 -41 -40 4 0 20 9 35 21 32 23 74 22 79 -2
2 -11 -11 -20 -44 -30 -55 -17 -74 -39 -55 -63 17 -20 57 -20 94 -1 15 8 34
12 42 8 9 -3 15 1 15 8 0 16 -22 79 -33 97 -9 13 -61 15 -92 2z m83 -72 c-4
-27 -55 -55 -75 -42 -24 15 -19 28 17 46 47 24 62 23 58 -4z"/>
<path d="M3050 420 c0 -12 -7 -20 -17 -21 -11 0 -13 -3 -5 -6 7 -3 12 -25 12
-58 0 -43 4 -56 19 -65 24 -12 41 -13 41 -1 0 5 -10 11 -21 14 -17 5 -20 11
-15 29 3 13 6 35 6 50 0 17 6 28 18 31 16 4 16 5 0 6 -11 1 -18 9 -18 21 0 11
-4 20 -10 20 -5 0 -10 -9 -10 -20z"/>
<path d="M3139 413 c-5 -89 -3 -143 6 -143 6 0 11 19 13 42 4 52 16 68 52 68
35 0 52 -21 50 -62 -3 -49 -1 -58 10 -58 7 0 10 22 8 57 -3 52 -6 59 -31 71
-21 10 -35 11 -59 3 -30 -11 -30 -11 -24 19 4 22 2 30 -9 30 -9 0 -16 -11 -16
-27z"/>
<path d="M3433 420 c-3 -11 -10 -20 -17 -20 -6 0 -3 -5 7 -11 11 -7 17 -22 17
-49 0 -58 8 -70 44 -69 28 0 29 1 9 9 -20 8 -23 17 -23 59 0 30 5 51 13 54 7
3 5 6 -5 6 -11 1 -18 9 -18 21 0 11 -5 20 -11 20 -6 0 -13 -9 -16 -20z"/>
<path d="M2846 411 c-12 -19 -19 -121 -8 -121 12 0 18 17 27 83 6 43 -4 63
-19 38z"/>
<path d="M2915 347 c-4 -32 -5 -61 -2 -64 11 -11 27 9 27 35 0 54 11 72 41 72
16 0 29 4 29 10 0 5 -20 9 -44 8 l-45 -2 -6 -59z"/>
<path d="M3540 388 c-59 -63 31 -140 113 -97 43 23 50 66 17 99 -29 29 -102
28 -130 -2z m108 0 c20 -20 15 -76 -7 -88 -28 -14 -57 -12 -75 6 -22 21 -20
70 2 83 23 14 65 14 80 -1z"/>
</g>
</svg>
